%FSLAX45Y45*%
G04 Gerber Fmt 4.5, Leading zero omitted, Abs format (unit mm)*
G04 Created by KiCad (PCBNEW (6.0.4)) date 2022-04-22 20:47:05*
%MOMM*%
%LPD*%
G01*
G04 APERTURE LIST*
%TA.AperFunction,Profile*%
%ADD10C,0.200000*%
%TD*%
%ADD11C,0.200000*%
%ADD12C,0.320000*%
G04 APERTURE END LIST*
D10*
X17960340Y-7101840D02*
X11102340Y-7101840D01*
X11102340Y-7101840D02*
X11102340Y-12943840D01*
X11102340Y-12943840D02*
X17960340Y-12943840D01*
X17960340Y-12943840D02*
X17960340Y-7101840D01*
D11*
D12*
X11323340Y-7322840D02*
X11643340Y-7642840D01*
X11643340Y-7322840D02*
X11323340Y-7642840D01*
X11323340Y-12402840D02*
X11643340Y-12722840D01*
X11643340Y-12402840D02*
X11323340Y-12722840D01*
X17419340Y-7322840D02*
X17739340Y-7642840D01*
X17739340Y-7322840D02*
X17419340Y-7642840D01*
X17419340Y-12402840D02*
X17739340Y-12722840D01*
X17739340Y-12402840D02*
X17419340Y-12722840D01*
D11*
X11349959Y-13264316D02*
X11349959Y-13064316D01*
X11397578Y-13064316D01*
X11426149Y-13073840D01*
X11445197Y-13092888D01*
X11454721Y-13111935D01*
X11464245Y-13150030D01*
X11464245Y-13178602D01*
X11454721Y-13216697D01*
X11445197Y-13235745D01*
X11426149Y-13254792D01*
X11397578Y-13264316D01*
X11349959Y-13264316D01*
X11549959Y-13264316D02*
X11549959Y-13130983D01*
X11549959Y-13169078D02*
X11559483Y-13150030D01*
X11569007Y-13140507D01*
X11588054Y-13130983D01*
X11607102Y-13130983D01*
X11673768Y-13264316D02*
X11673768Y-13130983D01*
X11673768Y-13064316D02*
X11664245Y-13073840D01*
X11673768Y-13083364D01*
X11683292Y-13073840D01*
X11673768Y-13064316D01*
X11673768Y-13083364D01*
X11797578Y-13264316D02*
X11778530Y-13254792D01*
X11769007Y-13235745D01*
X11769007Y-13064316D01*
X11902340Y-13264316D02*
X11883292Y-13254792D01*
X11873768Y-13235745D01*
X11873768Y-13064316D01*
X12130911Y-13264316D02*
X12130911Y-13064316D01*
X12197578Y-13207173D01*
X12264245Y-13064316D01*
X12264245Y-13264316D01*
X12445197Y-13264316D02*
X12445197Y-13159554D01*
X12435673Y-13140507D01*
X12416626Y-13130983D01*
X12378530Y-13130983D01*
X12359483Y-13140507D01*
X12445197Y-13254792D02*
X12426149Y-13264316D01*
X12378530Y-13264316D01*
X12359483Y-13254792D01*
X12349959Y-13235745D01*
X12349959Y-13216697D01*
X12359483Y-13197649D01*
X12378530Y-13188126D01*
X12426149Y-13188126D01*
X12445197Y-13178602D01*
X12540435Y-13130983D02*
X12540435Y-13330983D01*
X12540435Y-13140507D02*
X12559483Y-13130983D01*
X12597578Y-13130983D01*
X12616626Y-13140507D01*
X12626149Y-13150030D01*
X12635673Y-13169078D01*
X12635673Y-13226221D01*
X12626149Y-13245268D01*
X12616626Y-13254792D01*
X12597578Y-13264316D01*
X12559483Y-13264316D01*
X12540435Y-13254792D01*
X12721388Y-13245268D02*
X12730911Y-13254792D01*
X12721388Y-13264316D01*
X12711864Y-13254792D01*
X12721388Y-13245268D01*
X12721388Y-13264316D01*
X12721388Y-13140507D02*
X12730911Y-13150030D01*
X12721388Y-13159554D01*
X12711864Y-13150030D01*
X12721388Y-13140507D01*
X12721388Y-13159554D01*
X10892340Y-13493840D02*
X11092340Y-13693840D01*
X11092340Y-13493840D02*
X10892340Y-13693840D01*
X11330911Y-13484316D02*
X11454721Y-13484316D01*
X11388054Y-13560507D01*
X11416626Y-13560507D01*
X11435673Y-13570030D01*
X11445197Y-13579554D01*
X11454721Y-13598602D01*
X11454721Y-13646221D01*
X11445197Y-13665268D01*
X11435673Y-13674792D01*
X11416626Y-13684316D01*
X11359483Y-13684316D01*
X11340435Y-13674792D01*
X11330911Y-13665268D01*
X11540435Y-13665268D02*
X11549959Y-13674792D01*
X11540435Y-13684316D01*
X11530911Y-13674792D01*
X11540435Y-13665268D01*
X11540435Y-13684316D01*
X11626149Y-13503364D02*
X11635673Y-13493840D01*
X11654721Y-13484316D01*
X11702340Y-13484316D01*
X11721388Y-13493840D01*
X11730911Y-13503364D01*
X11740435Y-13522411D01*
X11740435Y-13541459D01*
X11730911Y-13570030D01*
X11616626Y-13684316D01*
X11740435Y-13684316D01*
X11864245Y-13484316D02*
X11883292Y-13484316D01*
X11902340Y-13493840D01*
X11911864Y-13503364D01*
X11921388Y-13522411D01*
X11930911Y-13560507D01*
X11930911Y-13608126D01*
X11921388Y-13646221D01*
X11911864Y-13665268D01*
X11902340Y-13674792D01*
X11883292Y-13684316D01*
X11864245Y-13684316D01*
X11845197Y-13674792D01*
X11835673Y-13665268D01*
X11826149Y-13646221D01*
X11816626Y-13608126D01*
X11816626Y-13560507D01*
X11826149Y-13522411D01*
X11835673Y-13503364D01*
X11845197Y-13493840D01*
X11864245Y-13484316D01*
X12054721Y-13484316D02*
X12073768Y-13484316D01*
X12092816Y-13493840D01*
X12102340Y-13503364D01*
X12111864Y-13522411D01*
X12121388Y-13560507D01*
X12121388Y-13608126D01*
X12111864Y-13646221D01*
X12102340Y-13665268D01*
X12092816Y-13674792D01*
X12073768Y-13684316D01*
X12054721Y-13684316D01*
X12035673Y-13674792D01*
X12026149Y-13665268D01*
X12016626Y-13646221D01*
X12007102Y-13608126D01*
X12007102Y-13560507D01*
X12016626Y-13522411D01*
X12026149Y-13503364D01*
X12035673Y-13493840D01*
X12054721Y-13484316D01*
X12207102Y-13684316D02*
X12207102Y-13550983D01*
X12207102Y-13570030D02*
X12216626Y-13560507D01*
X12235673Y-13550983D01*
X12264245Y-13550983D01*
X12283292Y-13560507D01*
X12292816Y-13579554D01*
X12292816Y-13684316D01*
X12292816Y-13579554D02*
X12302340Y-13560507D01*
X12321388Y-13550983D01*
X12349959Y-13550983D01*
X12369007Y-13560507D01*
X12378530Y-13579554D01*
X12378530Y-13684316D01*
X12473768Y-13684316D02*
X12473768Y-13550983D01*
X12473768Y-13570030D02*
X12483292Y-13560507D01*
X12502340Y-13550983D01*
X12530911Y-13550983D01*
X12549959Y-13560507D01*
X12559483Y-13579554D01*
X12559483Y-13684316D01*
X12559483Y-13579554D02*
X12569007Y-13560507D01*
X12588054Y-13550983D01*
X12616626Y-13550983D01*
X12635673Y-13560507D01*
X12645197Y-13579554D01*
X12645197Y-13684316D01*
X13035673Y-13474792D02*
X12864245Y-13731935D01*
X13292816Y-13484316D02*
X13311864Y-13484316D01*
X13330911Y-13493840D01*
X13340435Y-13503364D01*
X13349959Y-13522411D01*
X13359483Y-13560507D01*
X13359483Y-13608126D01*
X13349959Y-13646221D01*
X13340435Y-13665268D01*
X13330911Y-13674792D01*
X13311864Y-13684316D01*
X13292816Y-13684316D01*
X13273768Y-13674792D01*
X13264245Y-13665268D01*
X13254721Y-13646221D01*
X13245197Y-13608126D01*
X13245197Y-13560507D01*
X13254721Y-13522411D01*
X13264245Y-13503364D01*
X13273768Y-13493840D01*
X13292816Y-13484316D01*
X13445197Y-13665268D02*
X13454721Y-13674792D01*
X13445197Y-13684316D01*
X13435673Y-13674792D01*
X13445197Y-13665268D01*
X13445197Y-13684316D01*
X13645197Y-13684316D02*
X13530911Y-13684316D01*
X13588054Y-13684316D02*
X13588054Y-13484316D01*
X13569007Y-13512888D01*
X13549959Y-13531935D01*
X13530911Y-13541459D01*
X13721388Y-13503364D02*
X13730911Y-13493840D01*
X13749959Y-13484316D01*
X13797578Y-13484316D01*
X13816626Y-13493840D01*
X13826149Y-13503364D01*
X13835673Y-13522411D01*
X13835673Y-13541459D01*
X13826149Y-13570030D01*
X13711864Y-13684316D01*
X13835673Y-13684316D01*
X14007102Y-13484316D02*
X13969007Y-13484316D01*
X13949959Y-13493840D01*
X13940435Y-13503364D01*
X13921388Y-13531935D01*
X13911864Y-13570030D01*
X13911864Y-13646221D01*
X13921388Y-13665268D01*
X13930911Y-13674792D01*
X13949959Y-13684316D01*
X13988054Y-13684316D01*
X14007102Y-13674792D01*
X14016626Y-13665268D01*
X14026149Y-13646221D01*
X14026149Y-13598602D01*
X14016626Y-13579554D01*
X14007102Y-13570030D01*
X13988054Y-13560507D01*
X13949959Y-13560507D01*
X13930911Y-13570030D01*
X13921388Y-13579554D01*
X13911864Y-13598602D01*
X14149959Y-13484316D02*
X14169007Y-13484316D01*
X14188054Y-13493840D01*
X14197578Y-13503364D01*
X14207102Y-13522411D01*
X14216626Y-13560507D01*
X14216626Y-13608126D01*
X14207102Y-13646221D01*
X14197578Y-13665268D01*
X14188054Y-13674792D01*
X14169007Y-13684316D01*
X14149959Y-13684316D01*
X14130911Y-13674792D01*
X14121388Y-13665268D01*
X14111864Y-13646221D01*
X14102340Y-13608126D01*
X14102340Y-13560507D01*
X14111864Y-13522411D01*
X14121388Y-13503364D01*
X14130911Y-13493840D01*
X14149959Y-13484316D01*
X14292816Y-13484316D02*
X14292816Y-13522411D01*
X14369007Y-13484316D02*
X14369007Y-13522411D01*
X14664245Y-13760507D02*
X14654721Y-13750983D01*
X14635673Y-13722411D01*
X14626149Y-13703364D01*
X14616626Y-13674792D01*
X14607102Y-13627173D01*
X14607102Y-13589078D01*
X14616626Y-13541459D01*
X14626149Y-13512888D01*
X14635673Y-13493840D01*
X14654721Y-13465268D01*
X14664245Y-13455745D01*
X14826149Y-13550983D02*
X14826149Y-13684316D01*
X14778530Y-13474792D02*
X14730911Y-13617649D01*
X14854721Y-13617649D01*
X15083292Y-13684316D02*
X15083292Y-13484316D01*
X15169007Y-13684316D02*
X15169007Y-13579554D01*
X15159483Y-13560507D01*
X15140435Y-13550983D01*
X15111864Y-13550983D01*
X15092816Y-13560507D01*
X15083292Y-13570030D01*
X15292816Y-13684316D02*
X15273768Y-13674792D01*
X15264245Y-13665268D01*
X15254721Y-13646221D01*
X15254721Y-13589078D01*
X15264245Y-13570030D01*
X15273768Y-13560507D01*
X15292816Y-13550983D01*
X15321388Y-13550983D01*
X15340435Y-13560507D01*
X15349959Y-13570030D01*
X15359483Y-13589078D01*
X15359483Y-13646221D01*
X15349959Y-13665268D01*
X15340435Y-13674792D01*
X15321388Y-13684316D01*
X15292816Y-13684316D01*
X15473768Y-13684316D02*
X15454721Y-13674792D01*
X15445197Y-13655745D01*
X15445197Y-13484316D01*
X15626149Y-13674792D02*
X15607102Y-13684316D01*
X15569007Y-13684316D01*
X15549959Y-13674792D01*
X15540435Y-13655745D01*
X15540435Y-13579554D01*
X15549959Y-13560507D01*
X15569007Y-13550983D01*
X15607102Y-13550983D01*
X15626149Y-13560507D01*
X15635673Y-13579554D01*
X15635673Y-13598602D01*
X15540435Y-13617649D01*
X15711864Y-13674792D02*
X15730911Y-13684316D01*
X15769007Y-13684316D01*
X15788054Y-13674792D01*
X15797578Y-13655745D01*
X15797578Y-13646221D01*
X15788054Y-13627173D01*
X15769007Y-13617649D01*
X15740435Y-13617649D01*
X15721388Y-13608126D01*
X15711864Y-13589078D01*
X15711864Y-13579554D01*
X15721388Y-13560507D01*
X15740435Y-13550983D01*
X15769007Y-13550983D01*
X15788054Y-13560507D01*
X15864245Y-13760507D02*
X15873768Y-13750983D01*
X15892816Y-13722411D01*
X15902340Y-13703364D01*
X15911864Y-13674792D01*
X15921388Y-13627173D01*
X15921388Y-13589078D01*
X15911864Y-13541459D01*
X15902340Y-13512888D01*
X15892816Y-13493840D01*
X15873768Y-13465268D01*
X15864245Y-13455745D01*
X16226149Y-13760507D02*
X16216626Y-13750983D01*
X16197578Y-13722411D01*
X16188054Y-13703364D01*
X16178530Y-13674792D01*
X16169007Y-13627173D01*
X16169007Y-13589078D01*
X16178530Y-13541459D01*
X16188054Y-13512888D01*
X16197578Y-13493840D01*
X16216626Y-13465268D01*
X16226149Y-13455745D01*
X16302340Y-13550983D02*
X16302340Y-13684316D01*
X16302340Y-13570030D02*
X16311864Y-13560507D01*
X16330911Y-13550983D01*
X16359483Y-13550983D01*
X16378530Y-13560507D01*
X16388054Y-13579554D01*
X16388054Y-13684316D01*
X16511864Y-13684316D02*
X16492816Y-13674792D01*
X16483292Y-13665268D01*
X16473768Y-13646221D01*
X16473768Y-13589078D01*
X16483292Y-13570030D01*
X16492816Y-13560507D01*
X16511864Y-13550983D01*
X16540435Y-13550983D01*
X16559483Y-13560507D01*
X16569007Y-13570030D01*
X16578530Y-13589078D01*
X16578530Y-13646221D01*
X16569007Y-13665268D01*
X16559483Y-13674792D01*
X16540435Y-13684316D01*
X16511864Y-13684316D01*
X16635673Y-13550983D02*
X16711864Y-13550983D01*
X16664245Y-13484316D02*
X16664245Y-13655745D01*
X16673768Y-13674792D01*
X16692816Y-13684316D01*
X16711864Y-13684316D01*
X16930911Y-13550983D02*
X16930911Y-13750983D01*
X16930911Y-13560507D02*
X16949959Y-13550983D01*
X16988054Y-13550983D01*
X17007102Y-13560507D01*
X17016626Y-13570030D01*
X17026150Y-13589078D01*
X17026150Y-13646221D01*
X17016626Y-13665268D01*
X17007102Y-13674792D01*
X16988054Y-13684316D01*
X16949959Y-13684316D01*
X16930911Y-13674792D01*
X17140435Y-13684316D02*
X17121388Y-13674792D01*
X17111864Y-13655745D01*
X17111864Y-13484316D01*
X17302340Y-13684316D02*
X17302340Y-13579554D01*
X17292816Y-13560507D01*
X17273769Y-13550983D01*
X17235673Y-13550983D01*
X17216626Y-13560507D01*
X17302340Y-13674792D02*
X17283292Y-13684316D01*
X17235673Y-13684316D01*
X17216626Y-13674792D01*
X17207102Y-13655745D01*
X17207102Y-13636697D01*
X17216626Y-13617649D01*
X17235673Y-13608126D01*
X17283292Y-13608126D01*
X17302340Y-13598602D01*
X17369007Y-13550983D02*
X17445197Y-13550983D01*
X17397578Y-13484316D02*
X17397578Y-13655745D01*
X17407102Y-13674792D01*
X17426150Y-13684316D01*
X17445197Y-13684316D01*
X17588054Y-13674792D02*
X17569007Y-13684316D01*
X17530911Y-13684316D01*
X17511864Y-13674792D01*
X17502340Y-13655745D01*
X17502340Y-13579554D01*
X17511864Y-13560507D01*
X17530911Y-13550983D01*
X17569007Y-13550983D01*
X17588054Y-13560507D01*
X17597578Y-13579554D01*
X17597578Y-13598602D01*
X17502340Y-13617649D01*
X17769007Y-13684316D02*
X17769007Y-13484316D01*
X17769007Y-13674792D02*
X17749959Y-13684316D01*
X17711864Y-13684316D01*
X17692816Y-13674792D01*
X17683292Y-13665268D01*
X17673769Y-13646221D01*
X17673769Y-13589078D01*
X17683292Y-13570030D01*
X17692816Y-13560507D01*
X17711864Y-13550983D01*
X17749959Y-13550983D01*
X17769007Y-13560507D01*
X17845197Y-13760507D02*
X17854721Y-13750983D01*
X17873769Y-13722411D01*
X17883292Y-13703364D01*
X17892816Y-13674792D01*
X17902340Y-13627173D01*
X17902340Y-13589078D01*
X17892816Y-13541459D01*
X17883292Y-13512888D01*
X17873769Y-13493840D01*
X17854721Y-13465268D01*
X17845197Y-13455745D01*
M02*
