M48
; DRILL file {KiCad (6.0.4)} date Fri 22 Apr 2022 08:47:05 PM PDT
; FORMAT={-:-/ absolute / metric / decimal}
; #@! TF.CreationDate,2022-04-22T20:47:05-07:00
; #@! TF.GenerationSoftware,Kicad,Pcbnew,(6.0.4)
; #@! TF.FileFunction,Plated,1,2,PTH
FMAT,2
METRIC
; #@! TA.AperFunction,Plated,PTH,ComponentDrill
T1C0.700
; #@! TA.AperFunction,Plated,PTH,ComponentDrill
T2C0.800
; #@! TA.AperFunction,Plated,PTH,ComponentDrill
T3C0.900
; #@! TA.AperFunction,Plated,PTH,ComponentDrill
T4C1.000
; #@! TA.AperFunction,Plated,PTH,ComponentDrill
T5C1.100
; #@! TA.AperFunction,Plated,PTH,ComponentDrill
T6C1.700
%
G90
G05
T1
X121.133Y-101.453
X121.133Y-109.073
X133.633Y-101.353
X133.633Y-108.973
X133.833Y-116.713
X133.833Y-124.333
X135.933Y-101.353
X135.933Y-108.973
X135.933Y-116.693
X135.933Y-124.313
X138.133Y-114.193
X138.133Y-121.813
X138.233Y-101.353
X138.233Y-108.973
X142.683Y-106.613
X142.683Y-114.233
X142.943Y-89.598
X142.943Y-97.218
X144.973Y-108.923
X145.11Y-114.503
X145.11Y-120.802
X145.11Y-124.663
X145.203Y-89.598
X145.203Y-93.448
X145.223Y-95.798
X145.223Y-98.498
X147.879Y-103.734
X152.243Y-78.628
X152.243Y-86.248
X152.593Y-108.923
X152.73Y-114.503
X152.73Y-120.802
X152.73Y-124.663
X152.823Y-89.598
X152.823Y-93.448
X152.843Y-95.798
X152.843Y-98.498
X155.499Y-103.734
X165.483Y-78.588
X165.483Y-86.208
X165.633Y-107.463
X166.913Y-114.243
X166.913Y-121.863
X168.043Y-81.178
X168.043Y-88.798
X170.713Y-114.243
X170.713Y-121.863
X172.669Y-86.258
X172.669Y-93.878
X173.253Y-107.463
T2
X117.966Y-89.107
X117.966Y-91.607
X120.633Y-119.273
X120.633Y-124.273
X123.733Y-106.573
X123.733Y-109.113
X123.733Y-111.653
X123.733Y-114.193
X123.733Y-116.733
X123.733Y-119.273
X123.733Y-121.813
X131.166Y-95.397
X131.166Y-97.897
X131.353Y-106.573
X131.353Y-109.113
X131.353Y-111.653
X131.353Y-114.193
X131.353Y-116.733
X131.353Y-119.273
X131.353Y-121.813
X133.633Y-111.673
X138.633Y-111.673
X143.843Y-83.798
X143.843Y-86.298
X147.583Y-111.623
X147.73Y-117.551
X152.583Y-111.623
X152.73Y-117.551
X155.483Y-81.173
X155.483Y-83.713
X155.483Y-86.253
X155.483Y-88.793
X155.483Y-91.333
X155.483Y-93.873
X155.483Y-96.413
X155.483Y-106.573
X155.483Y-109.113
X155.483Y-111.653
X155.483Y-114.193
X155.483Y-116.733
X155.483Y-119.273
X155.483Y-121.813
X163.103Y-81.173
X163.103Y-83.713
X163.103Y-86.253
X163.103Y-88.793
X163.103Y-91.333
X163.103Y-93.873
X163.103Y-96.413
X163.103Y-106.573
X163.103Y-109.113
X163.103Y-111.653
X163.103Y-114.193
X163.103Y-116.733
X163.103Y-119.273
X163.103Y-121.813
X165.713Y-104.163
X165.713Y-110.923
X170.713Y-104.163
X170.713Y-110.923
T3
X172.695Y-80.594
X172.695Y-83.134
T4
X118.133Y-109.073
X118.133Y-111.613
X123.666Y-89.097
X123.666Y-91.637
X123.666Y-94.177
X168.143Y-93.898
T5
X127.866Y-87.737
X127.866Y-97.897
X148.743Y-76.108
X148.743Y-86.268
T6
X123.586Y-83.352
X127.546Y-83.352
T0
M30
