%TF.GenerationSoftware,KiCad,Pcbnew,(6.0.4)*%
%TF.CreationDate,2022-04-22T20:46:50-07:00*%
%TF.ProjectId,beacondetector-v2,62656163-6f6e-4646-9574-6563746f722d,v2.0*%
%TF.SameCoordinates,Original*%
%TF.FileFunction,Soldermask,Bot*%
%TF.FilePolarity,Negative*%
%FSLAX46Y46*%
G04 Gerber Fmt 4.6, Leading zero omitted, Abs format (unit mm)*
G04 Created by KiCad (PCBNEW (6.0.4)) date 2022-04-22 20:46:50*
%MOMM*%
%LPD*%
G01*
G04 APERTURE LIST*
G04 Aperture macros list*
%AMRoundRect*
0 Rectangle with rounded corners*
0 $1 Rounding radius*
0 $2 $3 $4 $5 $6 $7 $8 $9 X,Y pos of 4 corners*
0 Add a 4 corners polygon primitive as box body*
4,1,4,$2,$3,$4,$5,$6,$7,$8,$9,$2,$3,0*
0 Add four circle primitives for the rounded corners*
1,1,$1+$1,$2,$3*
1,1,$1+$1,$4,$5*
1,1,$1+$1,$6,$7*
1,1,$1+$1,$8,$9*
0 Add four rect primitives between the rounded corners*
20,1,$1+$1,$2,$3,$4,$5,0*
20,1,$1+$1,$4,$5,$6,$7,0*
20,1,$1+$1,$6,$7,$8,$9,0*
20,1,$1+$1,$8,$9,$2,$3,0*%
G04 Aperture macros list end*
%ADD10O,1.600000X1.600000*%
%ADD11R,1.600000X1.600000*%
%ADD12C,1.600000*%
%ADD13C,3.200000*%
%ADD14O,1.400000X1.400000*%
%ADD15C,1.400000*%
%ADD16R,2.200000X2.200000*%
%ADD17O,2.200000X2.200000*%
%ADD18C,2.000000*%
%ADD19R,2.000000X2.000000*%
%ADD20R,1.700000X1.700000*%
%ADD21O,1.700000X1.700000*%
%ADD22C,1.800000*%
%ADD23R,1.800000X1.800000*%
%ADD24RoundRect,0.250000X-1.330000X-1.800000X1.330000X-1.800000X1.330000X1.800000X-1.330000X1.800000X0*%
%ADD25O,3.160000X4.100000*%
G04 APERTURE END LIST*
D10*
X163103400Y-81173400D03*
X163103400Y-83713400D03*
X163103400Y-86253400D03*
X163103400Y-88793400D03*
X163103400Y-91333400D03*
X163103400Y-93873400D03*
X163103400Y-96413400D03*
X155483400Y-96413400D03*
X155483400Y-93873400D03*
X155483400Y-91333400D03*
X155483400Y-88793400D03*
X155483400Y-86253400D03*
X155483400Y-83713400D03*
D11*
X155483400Y-81173400D03*
D12*
X170713400Y-110923400D03*
X165713400Y-110923400D03*
D13*
X114833400Y-125628400D03*
D14*
X166913400Y-114243400D03*
D15*
X166913400Y-121863400D03*
D14*
X152843400Y-95798400D03*
D15*
X145223400Y-95798400D03*
D16*
X127865607Y-97897010D03*
D17*
X127865607Y-87737010D03*
D18*
X123665600Y-94177000D03*
X123665600Y-91637000D03*
D19*
X123665600Y-89097000D03*
D15*
X145203400Y-89598400D03*
D14*
X152823400Y-89598400D03*
D15*
X135933400Y-124313400D03*
D14*
X135933400Y-116693400D03*
D15*
X135933400Y-101353400D03*
D14*
X135933400Y-108973400D03*
D11*
X143843400Y-86298400D03*
D12*
X143843400Y-83798400D03*
D15*
X133633400Y-108973400D03*
D14*
X133633400Y-101353400D03*
D15*
X145110200Y-120802400D03*
D14*
X152730200Y-120802400D03*
X142683400Y-106613400D03*
D15*
X142683400Y-114233400D03*
D13*
X114833400Y-74828400D03*
D15*
X152823400Y-93448400D03*
D14*
X145203400Y-93448400D03*
X155498800Y-103733600D03*
D15*
X147878800Y-103733600D03*
D12*
X138633400Y-111673400D03*
X133633400Y-111673400D03*
D14*
X165483400Y-86208400D03*
D15*
X165483400Y-78588400D03*
D13*
X175793400Y-74828400D03*
D12*
X117965600Y-89107000D03*
D11*
X117965600Y-91607000D03*
D13*
X175793400Y-125628400D03*
D11*
X155483400Y-106573400D03*
D10*
X155483400Y-109113400D03*
X155483400Y-111653400D03*
X155483400Y-114193400D03*
X155483400Y-116733400D03*
X155483400Y-119273400D03*
X155483400Y-121813400D03*
X163103400Y-121813400D03*
X163103400Y-119273400D03*
X163103400Y-116733400D03*
X163103400Y-114193400D03*
X163103400Y-111653400D03*
X163103400Y-109113400D03*
X163103400Y-106573400D03*
D15*
X152730200Y-114503200D03*
D14*
X145110200Y-114503200D03*
X145223400Y-98498400D03*
D15*
X152843400Y-98498400D03*
D14*
X172669200Y-93878400D03*
D15*
X172669200Y-86258400D03*
X165633400Y-107463400D03*
D14*
X173253400Y-107463400D03*
D12*
X147583400Y-111623400D03*
X152583400Y-111623400D03*
D20*
X118133393Y-109073391D03*
D21*
X118133393Y-111613391D03*
D15*
X133833400Y-116713400D03*
D14*
X133833400Y-124333400D03*
D12*
X120633400Y-124273400D03*
X120633400Y-119273400D03*
D14*
X152730200Y-124663200D03*
D15*
X145110200Y-124663200D03*
D11*
X123733400Y-106573400D03*
D10*
X123733400Y-109113400D03*
X123733400Y-111653400D03*
X123733400Y-114193400D03*
X123733400Y-116733400D03*
X123733400Y-119273400D03*
X123733400Y-121813400D03*
X131353400Y-121813400D03*
X131353400Y-119273400D03*
X131353400Y-116733400D03*
X131353400Y-114193400D03*
X131353400Y-111653400D03*
X131353400Y-109113400D03*
X131353400Y-106573400D03*
D14*
X152243400Y-78628400D03*
D15*
X152243400Y-86248400D03*
D12*
X131165600Y-95397000D03*
X131165600Y-97897000D03*
D15*
X121133400Y-109073400D03*
D14*
X121133400Y-101453400D03*
D22*
X172694600Y-80594200D03*
D23*
X172694600Y-83134200D03*
D15*
X142943400Y-89598400D03*
D14*
X142943400Y-97218400D03*
D12*
X147730200Y-117551200D03*
X152730200Y-117551200D03*
D15*
X138133400Y-114193400D03*
D14*
X138133400Y-121813400D03*
D12*
X170713400Y-104163400D03*
X165713400Y-104163400D03*
D24*
X123585600Y-83352000D03*
D25*
X127545600Y-83352000D03*
D14*
X138233400Y-101353400D03*
D15*
X138233400Y-108973400D03*
X152593400Y-108923400D03*
D14*
X144973400Y-108923400D03*
D15*
X168043400Y-81178400D03*
D14*
X168043400Y-88798400D03*
D15*
X170713400Y-114243400D03*
D14*
X170713400Y-121863400D03*
D17*
X148743400Y-76108400D03*
D16*
X148743400Y-86268400D03*
D20*
X168143400Y-93898400D03*
M02*
