<?xml version="1.0" standalone="no"?>
 <!DOCTYPE svg PUBLIC "-//W3C//DTD SVG 1.1//EN" 
 "http://www.w3.org/Graphics/SVG/1.1/DTD/svg11.dtd"> 
<svg
  xmlns:svg="http://www.w3.org/2000/svg"
  xmlns="http://www.w3.org/2000/svg"
  xmlns:xlink="http://www.w3.org/1999/xlink"
  version="1.1"
  width="27.940000cm" height="21.590000cm" viewBox="0 0 279400000 215900000">
<title>SVG Picture created as beacondetector-v2-B_Silkscreen.svg date 2022/05/12 10:14:54 </title>
  <desc>Picture generated by PCBNEW </desc>
<g style="fill:#000000; fill-opacity:1.000000;stroke:#000000; stroke-opacity:1.000000;
stroke-linecap:round; stroke-linejoin:round;"
 transform="translate(0 0) scale(1 1)">
</g>
<g style="fill:#000000; fill-opacity:0.0; 
stroke:#000000; stroke-width:0.000000; stroke-opacity:1; 
stroke-linecap:round; stroke-linejoin:round;">
</g>
<g style="fill:#000000; fill-opacity:0.0; 
stroke:#000000; stroke-width:21200.000000; stroke-opacity:1; 
stroke-linecap:round; stroke-linejoin:round;">
</g>
<g style="fill:#000000; fill-opacity:0.0; 
stroke:#000000; stroke-width:150000.000000; stroke-opacity:1; 
stroke-linecap:round; stroke-linejoin:round;">
<rect x="159400000.000000" y="171900000.000000" width="108000000.000000" height="32000000.000000" rx="0.000000" />
</g>
<g style="fill:#000000; fill-opacity:0.0; 
stroke:#000000; stroke-width:21200.000000; stroke-opacity:1; 
stroke-linecap:round; stroke-linejoin:round;">
</g>
<g style="fill:#000000; fill-opacity:0.0; 
stroke:#000000; stroke-width:150000.000000; stroke-opacity:1; 
stroke-linecap:round; stroke-linejoin:round;">
<rect x="10000000.000000" y="10000000.000000" width="259400000.000000" height="195900000.000000" rx="0.000000" />
</g>
<g style="fill:#000000; fill-opacity:0.0; 
stroke:#000000; stroke-width:21200.000000; stroke-opacity:1; 
stroke-linecap:round; stroke-linejoin:round;">
</g>
<g style="fill:#000000; fill-opacity:0.0; 
stroke:#000000; stroke-width:150000.000000; stroke-opacity:1; 
stroke-linecap:round; stroke-linejoin:round;">
<rect x="12000000.000000" y="12000000.000000" width="255400000.000000" height="191900000.000000" rx="0.000000" />
</g>
<g style="fill:#000000; fill-opacity:0.0; 
stroke:#000000; stroke-width:21200.000000; stroke-opacity:1; 
stroke-linecap:round; stroke-linejoin:round;">
</g>
<g style="fill:#000000; fill-opacity:0.0; 
stroke:#000000; stroke-width:150000.000000; stroke-opacity:1; 
stroke-linecap:round; stroke-linejoin:round;">
<path d="M60000000 12000000
L60000000 10000000
" />
</g>
<g style="fill:#000000; fill-opacity:0.0; 
stroke:#000000; stroke-width:21200.000000; stroke-opacity:1; 
stroke-linecap:round; stroke-linejoin:round;">
</g>
<g style="fill:#000000; fill-opacity:0.0; 
stroke:#000000; stroke-width:150000.000000; stroke-opacity:1; 
stroke-linecap:round; stroke-linejoin:round;">
<path d="M110000000 12000000
L110000000 10000000
" />
</g>
<g style="fill:#000000; fill-opacity:0.0; 
stroke:#000000; stroke-width:21200.000000; stroke-opacity:1; 
stroke-linecap:round; stroke-linejoin:round;">
</g>
<g style="fill:#000000; fill-opacity:0.0; 
stroke:#000000; stroke-width:150000.000000; stroke-opacity:1; 
stroke-linecap:round; stroke-linejoin:round;">
<path d="M160000000 12000000
L160000000 10000000
" />
</g>
<g style="fill:#000000; fill-opacity:0.0; 
stroke:#000000; stroke-width:21200.000000; stroke-opacity:1; 
stroke-linecap:round; stroke-linejoin:round;">
</g>
<g style="fill:#000000; fill-opacity:0.0; 
stroke:#000000; stroke-width:150000.000000; stroke-opacity:1; 
stroke-linecap:round; stroke-linejoin:round;">
<path d="M210000000 12000000
L210000000 10000000
" />
</g>
<g style="fill:#000000; fill-opacity:0.0; 
stroke:#000000; stroke-width:21200.000000; stroke-opacity:1; 
stroke-linecap:round; stroke-linejoin:round;">
</g>
<g style="fill:#000000; fill-opacity:0.0; 
stroke:#000000; stroke-width:150000.000000; stroke-opacity:1; 
stroke-linecap:round; stroke-linejoin:round;">
<path d="M260000000 12000000
L260000000 10000000
" />
</g>
<g style="fill:#000000; fill-opacity:0.0; 
stroke:#000000; stroke-width:21200.000000; stroke-opacity:1; 
stroke-linecap:round; stroke-linejoin:round;">
</g>
<g style="fill:#000000; fill-opacity:0.0; 
stroke:#000000; stroke-width:150000.000000; stroke-opacity:1; 
stroke-linecap:round; stroke-linejoin:round;">
<text x="35000000.000000" y="11650000.000000"
textLength="1433095.000000" font-size="1733333.000000" lengthAdjust="spacingAndGlyphs"
text-anchor="start" opacity="0">1</text>
<g class="stroked-text"><desc>1</desc>
<path d="M36065476 11588095
L35322619 11588095
" />
<path d="M35694047 11588095
L35694047 10288095
L35570238 10473809
L35446428 10597619
L35322619 10659523
" />
</g></g>
<g style="fill:#000000; fill-opacity:0.0; 
stroke:#000000; stroke-width:21200.000000; stroke-opacity:1; 
stroke-linecap:round; stroke-linejoin:round;">
</g>
<g style="fill:#000000; fill-opacity:0.0; 
stroke:#000000; stroke-width:150000.000000; stroke-opacity:1; 
stroke-linecap:round; stroke-linejoin:round;">
<text x="85000000.000000" y="11650000.000000"
textLength="1388095.000000" font-size="1733333.000000" lengthAdjust="spacingAndGlyphs"
text-anchor="start" opacity="0">2</text>
<g class="stroked-text"><desc>2</desc>
<path d="M85322619 10411904
L85384523 10350000
L85508333 10288095
L85817857 10288095
L85941666 10350000
L86003571 10411904
L86065476 10535714
L86065476 10659523
L86003571 10845238
L85260714 11588095
L86065476 11588095
" />
</g></g>
<g style="fill:#000000; fill-opacity:0.0; 
stroke:#000000; stroke-width:21200.000000; stroke-opacity:1; 
stroke-linecap:round; stroke-linejoin:round;">
</g>
<g style="fill:#000000; fill-opacity:0.0; 
stroke:#000000; stroke-width:150000.000000; stroke-opacity:1; 
stroke-linecap:round; stroke-linejoin:round;">
<text x="135000000.000000" y="11650000.000000"
textLength="1388095.000000" font-size="1733333.000000" lengthAdjust="spacingAndGlyphs"
text-anchor="start" opacity="0">3</text>
<g class="stroked-text"><desc>3</desc>
<path d="M135260714 10288095
L136065476 10288095
L135632142 10783333
L135817857 10783333
L135941666 10845238
L136003571 10907142
L136065476 11030952
L136065476 11340476
L136003571 11464285
L135941666 11526190
L135817857 11588095
L135446428 11588095
L135322619 11526190
L135260714 11464285
" />
</g></g>
<g style="fill:#000000; fill-opacity:0.0; 
stroke:#000000; stroke-width:21200.000000; stroke-opacity:1; 
stroke-linecap:round; stroke-linejoin:round;">
</g>
<g style="fill:#000000; fill-opacity:0.0; 
stroke:#000000; stroke-width:150000.000000; stroke-opacity:1; 
stroke-linecap:round; stroke-linejoin:round;">
<text x="185000000.000000" y="11650000.000000"
textLength="1388095.000000" font-size="1733333.000000" lengthAdjust="spacingAndGlyphs"
text-anchor="start" opacity="0">4</text>
<g class="stroked-text"><desc>4</desc>
<path d="M185941666 10721428
L185941666 11588095
" />
<path d="M185632142 10226190
L185322619 11154761
L186127380 11154761
" />
</g></g>
<g style="fill:#000000; fill-opacity:0.0; 
stroke:#000000; stroke-width:21200.000000; stroke-opacity:1; 
stroke-linecap:round; stroke-linejoin:round;">
</g>
<g style="fill:#000000; fill-opacity:0.0; 
stroke:#000000; stroke-width:150000.000000; stroke-opacity:1; 
stroke-linecap:round; stroke-linejoin:round;">
<text x="235000000.000000" y="11650000.000000"
textLength="1388095.000000" font-size="1733333.000000" lengthAdjust="spacingAndGlyphs"
text-anchor="start" opacity="0">5</text>
<g class="stroked-text"><desc>5</desc>
<path d="M236003571 10288095
L235384523 10288095
L235322619 10907142
L235384523 10845238
L235508333 10783333
L235817857 10783333
L235941666 10845238
L236003571 10907142
L236065476 11030952
L236065476 11340476
L236003571 11464285
L235941666 11526190
L235817857 11588095
L235508333 11588095
L235384523 11526190
L235322619 11464285
" />
</g></g>
<g style="fill:#000000; fill-opacity:0.0; 
stroke:#000000; stroke-width:21200.000000; stroke-opacity:1; 
stroke-linecap:round; stroke-linejoin:round;">
</g>
<g style="fill:#000000; fill-opacity:0.0; 
stroke:#000000; stroke-width:150000.000000; stroke-opacity:1; 
stroke-linecap:round; stroke-linejoin:round;">
<path d="M60000000 203900000
L60000000 205900000
" />
</g>
<g style="fill:#000000; fill-opacity:0.0; 
stroke:#000000; stroke-width:21200.000000; stroke-opacity:1; 
stroke-linecap:round; stroke-linejoin:round;">
</g>
<g style="fill:#000000; fill-opacity:0.0; 
stroke:#000000; stroke-width:150000.000000; stroke-opacity:1; 
stroke-linecap:round; stroke-linejoin:round;">
<path d="M110000000 203900000
L110000000 205900000
" />
</g>
<g style="fill:#000000; fill-opacity:0.0; 
stroke:#000000; stroke-width:21200.000000; stroke-opacity:1; 
stroke-linecap:round; stroke-linejoin:round;">
</g>
<g style="fill:#000000; fill-opacity:0.0; 
stroke:#000000; stroke-width:150000.000000; stroke-opacity:1; 
stroke-linecap:round; stroke-linejoin:round;">
<path d="M160000000 203900000
L160000000 205900000
" />
</g>
<g style="fill:#000000; fill-opacity:0.0; 
stroke:#000000; stroke-width:21200.000000; stroke-opacity:1; 
stroke-linecap:round; stroke-linejoin:round;">
</g>
<g style="fill:#000000; fill-opacity:0.0; 
stroke:#000000; stroke-width:150000.000000; stroke-opacity:1; 
stroke-linecap:round; stroke-linejoin:round;">
<path d="M210000000 203900000
L210000000 205900000
" />
</g>
<g style="fill:#000000; fill-opacity:0.0; 
stroke:#000000; stroke-width:21200.000000; stroke-opacity:1; 
stroke-linecap:round; stroke-linejoin:round;">
</g>
<g style="fill:#000000; fill-opacity:0.0; 
stroke:#000000; stroke-width:150000.000000; stroke-opacity:1; 
stroke-linecap:round; stroke-linejoin:round;">
<path d="M260000000 203900000
L260000000 205900000
" />
</g>
<g style="fill:#000000; fill-opacity:0.0; 
stroke:#000000; stroke-width:21200.000000; stroke-opacity:1; 
stroke-linecap:round; stroke-linejoin:round;">
</g>
<g style="fill:#000000; fill-opacity:0.0; 
stroke:#000000; stroke-width:150000.000000; stroke-opacity:1; 
stroke-linecap:round; stroke-linejoin:round;">
<text x="35000000.000000" y="205550000.000000"
textLength="1388095.000000" font-size="1733333.000000" lengthAdjust="spacingAndGlyphs"
text-anchor="start" opacity="0">1</text>
<g class="stroked-text"><desc>1</desc>
<path d="M36065476 205488095
L35322619 205488095
" />
<path d="M35694047 205488095
L35694047 204188095
L35570238 204373809
L35446428 204497619
L35322619 204559523
" />
</g></g>
<g style="fill:#000000; fill-opacity:0.0; 
stroke:#000000; stroke-width:21200.000000; stroke-opacity:1; 
stroke-linecap:round; stroke-linejoin:round;">
</g>
<g style="fill:#000000; fill-opacity:0.0; 
stroke:#000000; stroke-width:150000.000000; stroke-opacity:1; 
stroke-linecap:round; stroke-linejoin:round;">
<text x="85000000.000000" y="205550000.000000"
textLength="1388095.000000" font-size="1733333.000000" lengthAdjust="spacingAndGlyphs"
text-anchor="start" opacity="0">2</text>
<g class="stroked-text"><desc>2</desc>
<path d="M85322619 204311904
L85384523 204250000
L85508333 204188095
L85817857 204188095
L85941666 204250000
L86003571 204311904
L86065476 204435714
L86065476 204559523
L86003571 204745238
L85260714 205488095
L86065476 205488095
" />
</g></g>
<g style="fill:#000000; fill-opacity:0.0; 
stroke:#000000; stroke-width:21200.000000; stroke-opacity:1; 
stroke-linecap:round; stroke-linejoin:round;">
</g>
<g style="fill:#000000; fill-opacity:0.0; 
stroke:#000000; stroke-width:150000.000000; stroke-opacity:1; 
stroke-linecap:round; stroke-linejoin:round;">
<text x="135000000.000000" y="205550000.000000"
textLength="1388095.000000" font-size="1733333.000000" lengthAdjust="spacingAndGlyphs"
text-anchor="start" opacity="0">3</text>
<g class="stroked-text"><desc>3</desc>
<path d="M135260714 204188095
L136065476 204188095
L135632142 204683333
L135817857 204683333
L135941666 204745238
L136003571 204807142
L136065476 204930952
L136065476 205240476
L136003571 205364285
L135941666 205426190
L135817857 205488095
L135446428 205488095
L135322619 205426190
L135260714 205364285
" />
</g></g>
<g style="fill:#000000; fill-opacity:0.0; 
stroke:#000000; stroke-width:21200.000000; stroke-opacity:1; 
stroke-linecap:round; stroke-linejoin:round;">
</g>
<g style="fill:#000000; fill-opacity:0.0; 
stroke:#000000; stroke-width:150000.000000; stroke-opacity:1; 
stroke-linecap:round; stroke-linejoin:round;">
<text x="185000000.000000" y="205550000.000000"
textLength="1388095.000000" font-size="1733333.000000" lengthAdjust="spacingAndGlyphs"
text-anchor="start" opacity="0">4</text>
<g class="stroked-text"><desc>4</desc>
<path d="M185941666 204621428
L185941666 205488095
" />
<path d="M185632142 204126190
L185322619 205054761
L186127380 205054761
" />
</g></g>
<g style="fill:#000000; fill-opacity:0.0; 
stroke:#000000; stroke-width:21200.000000; stroke-opacity:1; 
stroke-linecap:round; stroke-linejoin:round;">
</g>
<g style="fill:#000000; fill-opacity:0.0; 
stroke:#000000; stroke-width:150000.000000; stroke-opacity:1; 
stroke-linecap:round; stroke-linejoin:round;">
<text x="235000000.000000" y="205550000.000000"
textLength="1388095.000000" font-size="1733333.000000" lengthAdjust="spacingAndGlyphs"
text-anchor="start" opacity="0">5</text>
<g class="stroked-text"><desc>5</desc>
<path d="M236003571 204188095
L235384523 204188095
L235322619 204807142
L235384523 204745238
L235508333 204683333
L235817857 204683333
L235941666 204745238
L236003571 204807142
L236065476 204930952
L236065476 205240476
L236003571 205364285
L235941666 205426190
L235817857 205488095
L235508333 205488095
L235384523 205426190
L235322619 205364285
" />
</g></g>
<g style="fill:#000000; fill-opacity:0.0; 
stroke:#000000; stroke-width:21200.000000; stroke-opacity:1; 
stroke-linecap:round; stroke-linejoin:round;">
</g>
<g style="fill:#000000; fill-opacity:0.0; 
stroke:#000000; stroke-width:150000.000000; stroke-opacity:1; 
stroke-linecap:round; stroke-linejoin:round;">
<path d="M10000000 60000000
L12000000 60000000
" />
</g>
<g style="fill:#000000; fill-opacity:0.0; 
stroke:#000000; stroke-width:21200.000000; stroke-opacity:1; 
stroke-linecap:round; stroke-linejoin:round;">
</g>
<g style="fill:#000000; fill-opacity:0.0; 
stroke:#000000; stroke-width:150000.000000; stroke-opacity:1; 
stroke-linecap:round; stroke-linejoin:round;">
<path d="M10000000 110000000
L12000000 110000000
" />
</g>
<g style="fill:#000000; fill-opacity:0.0; 
stroke:#000000; stroke-width:21200.000000; stroke-opacity:1; 
stroke-linecap:round; stroke-linejoin:round;">
</g>
<g style="fill:#000000; fill-opacity:0.0; 
stroke:#000000; stroke-width:150000.000000; stroke-opacity:1; 
stroke-linecap:round; stroke-linejoin:round;">
<path d="M10000000 160000000
L12000000 160000000
" />
</g>
<g style="fill:#000000; fill-opacity:0.0; 
stroke:#000000; stroke-width:21200.000000; stroke-opacity:1; 
stroke-linecap:round; stroke-linejoin:round;">
</g>
<g style="fill:#000000; fill-opacity:0.0; 
stroke:#000000; stroke-width:150000.000000; stroke-opacity:1; 
stroke-linecap:round; stroke-linejoin:round;">
<text x="11000000.000000" y="35650000.000000"
textLength="1264286.000000" font-size="1733333.000000" lengthAdjust="spacingAndGlyphs"
text-anchor="middle" opacity="0">A</text>
<g class="stroked-text"><desc>A</desc>
<path d="M10690476 35216666
L11309523 35216666
" />
<path d="M10566666 35588095
L11000000 34288095
L11433333 35588095
" />
</g></g>
<g style="fill:#000000; fill-opacity:0.0; 
stroke:#000000; stroke-width:21200.000000; stroke-opacity:1; 
stroke-linecap:round; stroke-linejoin:round;">
</g>
<g style="fill:#000000; fill-opacity:0.0; 
stroke:#000000; stroke-width:150000.000000; stroke-opacity:1; 
stroke-linecap:round; stroke-linejoin:round;">
<text x="11000000.000000" y="85650000.000000"
textLength="1450000.000000" font-size="1733333.000000" lengthAdjust="spacingAndGlyphs"
text-anchor="middle" opacity="0">B</text>
<g class="stroked-text"><desc>B</desc>
<path d="M11092857 84907142
L11278571 84969047
L11340476 85030952
L11402380 85154761
L11402380 85340476
L11340476 85464285
L11278571 85526190
L11154761 85588095
L10659523 85588095
L10659523 84288095
L11092857 84288095
L11216666 84350000
L11278571 84411904
L11340476 84535714
L11340476 84659523
L11278571 84783333
L11216666 84845238
L11092857 84907142
L10659523 84907142
" />
</g></g>
<g style="fill:#000000; fill-opacity:0.0; 
stroke:#000000; stroke-width:21200.000000; stroke-opacity:1; 
stroke-linecap:round; stroke-linejoin:round;">
</g>
<g style="fill:#000000; fill-opacity:0.0; 
stroke:#000000; stroke-width:150000.000000; stroke-opacity:1; 
stroke-linecap:round; stroke-linejoin:round;">
<text x="11000000.000000" y="135650000.000000"
textLength="1450000.000000" font-size="1733333.000000" lengthAdjust="spacingAndGlyphs"
text-anchor="middle" opacity="0">C</text>
<g class="stroked-text"><desc>C</desc>
<path d="M11402380 135464285
L11340476 135526190
L11154761 135588095
L11030952 135588095
L10845238 135526190
L10721428 135402380
L10659523 135278571
L10597619 135030952
L10597619 134845238
L10659523 134597619
L10721428 134473809
L10845238 134350000
L11030952 134288095
L11154761 134288095
L11340476 134350000
L11402380 134411904
" />
</g></g>
<g style="fill:#000000; fill-opacity:0.0; 
stroke:#000000; stroke-width:21200.000000; stroke-opacity:1; 
stroke-linecap:round; stroke-linejoin:round;">
</g>
<g style="fill:#000000; fill-opacity:0.0; 
stroke:#000000; stroke-width:150000.000000; stroke-opacity:1; 
stroke-linecap:round; stroke-linejoin:round;">
<text x="11000000.000000" y="185650000.000000"
textLength="1450000.000000" font-size="1733333.000000" lengthAdjust="spacingAndGlyphs"
text-anchor="middle" opacity="0">D</text>
<g class="stroked-text"><desc>D</desc>
<path d="M10659523 185588095
L10659523 184288095
L10969047 184288095
L11154761 184350000
L11278571 184473809
L11340476 184597619
L11402380 184845238
L11402380 185030952
L11340476 185278571
L11278571 185402380
L11154761 185526190
L10969047 185588095
L10659523 185588095
" />
</g></g>
<g style="fill:#000000; fill-opacity:0.0; 
stroke:#000000; stroke-width:21200.000000; stroke-opacity:1; 
stroke-linecap:round; stroke-linejoin:round;">
</g>
<g style="fill:#000000; fill-opacity:0.0; 
stroke:#000000; stroke-width:150000.000000; stroke-opacity:1; 
stroke-linecap:round; stroke-linejoin:round;">
<path d="M269400000 60000000
L267400000 60000000
" />
</g>
<g style="fill:#000000; fill-opacity:0.0; 
stroke:#000000; stroke-width:21200.000000; stroke-opacity:1; 
stroke-linecap:round; stroke-linejoin:round;">
</g>
<g style="fill:#000000; fill-opacity:0.0; 
stroke:#000000; stroke-width:150000.000000; stroke-opacity:1; 
stroke-linecap:round; stroke-linejoin:round;">
<path d="M269400000 110000000
L267400000 110000000
" />
</g>
<g style="fill:#000000; fill-opacity:0.0; 
stroke:#000000; stroke-width:21200.000000; stroke-opacity:1; 
stroke-linecap:round; stroke-linejoin:round;">
</g>
<g style="fill:#000000; fill-opacity:0.0; 
stroke:#000000; stroke-width:150000.000000; stroke-opacity:1; 
stroke-linecap:round; stroke-linejoin:round;">
<path d="M269400000 160000000
L267400000 160000000
" />
</g>
<g style="fill:#000000; fill-opacity:0.0; 
stroke:#000000; stroke-width:21200.000000; stroke-opacity:1; 
stroke-linecap:round; stroke-linejoin:round;">
</g>
<g style="fill:#000000; fill-opacity:0.0; 
stroke:#000000; stroke-width:150000.000000; stroke-opacity:1; 
stroke-linecap:round; stroke-linejoin:round;">
<text x="268400000.000000" y="35650000.000000"
textLength="1264286.000000" font-size="1733333.000000" lengthAdjust="spacingAndGlyphs"
text-anchor="middle" opacity="0">A</text>
<g class="stroked-text"><desc>A</desc>
<path d="M268090476 35216666
L268709523 35216666
" />
<path d="M267966666 35588095
L268400000 34288095
L268833333 35588095
" />
</g></g>
<g style="fill:#000000; fill-opacity:0.0; 
stroke:#000000; stroke-width:21200.000000; stroke-opacity:1; 
stroke-linecap:round; stroke-linejoin:round;">
</g>
<g style="fill:#000000; fill-opacity:0.0; 
stroke:#000000; stroke-width:150000.000000; stroke-opacity:1; 
stroke-linecap:round; stroke-linejoin:round;">
<text x="268400000.000000" y="85650000.000000"
textLength="1450000.000000" font-size="1733333.000000" lengthAdjust="spacingAndGlyphs"
text-anchor="middle" opacity="0">B</text>
<g class="stroked-text"><desc>B</desc>
<path d="M268492857 84907142
L268678571 84969047
L268740476 85030952
L268802380 85154761
L268802380 85340476
L268740476 85464285
L268678571 85526190
L268554761 85588095
L268059523 85588095
L268059523 84288095
L268492857 84288095
L268616666 84350000
L268678571 84411904
L268740476 84535714
L268740476 84659523
L268678571 84783333
L268616666 84845238
L268492857 84907142
L268059523 84907142
" />
</g></g>
<g style="fill:#000000; fill-opacity:0.0; 
stroke:#000000; stroke-width:21200.000000; stroke-opacity:1; 
stroke-linecap:round; stroke-linejoin:round;">
</g>
<g style="fill:#000000; fill-opacity:0.0; 
stroke:#000000; stroke-width:150000.000000; stroke-opacity:1; 
stroke-linecap:round; stroke-linejoin:round;">
<text x="268400000.000000" y="135650000.000000"
textLength="1450000.000000" font-size="1733333.000000" lengthAdjust="spacingAndGlyphs"
text-anchor="middle" opacity="0">C</text>
<g class="stroked-text"><desc>C</desc>
<path d="M268802380 135464285
L268740476 135526190
L268554761 135588095
L268430952 135588095
L268245238 135526190
L268121428 135402380
L268059523 135278571
L267997619 135030952
L267997619 134845238
L268059523 134597619
L268121428 134473809
L268245238 134350000
L268430952 134288095
L268554761 134288095
L268740476 134350000
L268802380 134411904
" />
</g></g>
<g style="fill:#000000; fill-opacity:0.0; 
stroke:#000000; stroke-width:21200.000000; stroke-opacity:1; 
stroke-linecap:round; stroke-linejoin:round;">
</g>
<g style="fill:#000000; fill-opacity:0.0; 
stroke:#000000; stroke-width:150000.000000; stroke-opacity:1; 
stroke-linecap:round; stroke-linejoin:round;">
<text x="268400000.000000" y="185650000.000000"
textLength="1450000.000000" font-size="1733333.000000" lengthAdjust="spacingAndGlyphs"
text-anchor="middle" opacity="0">D</text>
<g class="stroked-text"><desc>D</desc>
<path d="M268059523 185588095
L268059523 184288095
L268369047 184288095
L268554761 184350000
L268678571 184473809
L268740476 184597619
L268802380 184845238
L268802380 185030952
L268740476 185278571
L268678571 185402380
L268554761 185526190
L268369047 185588095
L268059523 185588095
" />
</g></g>
<g style="fill:#000000; fill-opacity:0.0; 
stroke:#000000; stroke-width:21200.000000; stroke-opacity:1; 
stroke-linecap:round; stroke-linejoin:round;">
</g>
<g style="fill:#000000; fill-opacity:0.0; 
stroke:#000000; stroke-width:150000.000000; stroke-opacity:1; 
stroke-linecap:round; stroke-linejoin:round;">
<text x="182400000.000000" y="199750000.000000"
textLength="22150000.000000" font-size="2000000.000000" lengthAdjust="spacingAndGlyphs"
text-anchor="start" opacity="0">Date: 2022-04-22</text>
<g class="stroked-text"><desc>Date: 2022-04-22</desc>
<path d="M182832142 199678571
L182832142 198178571
L183189285 198178571
L183403571 198250000
L183546428 198392857
L183617857 198535714
L183689285 198821428
L183689285 199035714
L183617857 199321428
L183546428 199464285
L183403571 199607142
L183189285 199678571
L182832142 199678571
" />
<path d="M184975000 199678571
L184975000 198892857
L184903571 198750000
L184760714 198678571
L184475000 198678571
L184332142 198750000
" />
<path d="M184975000 199607142
L184832142 199678571
L184475000 199678571
L184332142 199607142
L184260714 199464285
L184260714 199321428
L184332142 199178571
L184475000 199107142
L184832142 199107142
L184975000 199035714
" />
<path d="M185475000 198678571
L186046428 198678571
" />
<path d="M185689285 198178571
L185689285 199464285
L185760714 199607142
L185903571 199678571
L186046428 199678571
" />
<path d="M187117857 199607142
L186975000 199678571
L186689285 199678571
L186546428 199607142
L186475000 199464285
L186475000 198892857
L186546428 198750000
L186689285 198678571
L186975000 198678571
L187117857 198750000
L187189285 198892857
L187189285 199035714
L186475000 199178571
" />
<path d="M187832142 199535714
L187903571 199607142
L187832142 199678571
L187760714 199607142
L187832142 199535714
L187832142 199678571
" />
<path d="M187832142 198750000
L187903571 198821428
L187832142 198892857
L187760714 198821428
L187832142 198750000
L187832142 198892857
" />
<path d="M189617857 198321428
L189689285 198250000
L189832142 198178571
L190189285 198178571
L190332142 198250000
L190403571 198321428
L190475000 198464285
L190475000 198607142
L190403571 198821428
L189546428 199678571
L190475000 199678571
" />
<path d="M191403571 198178571
L191546428 198178571
L191689285 198250000
L191760714 198321428
L191832142 198464285
L191903571 198750000
L191903571 199107142
L191832142 199392857
L191760714 199535714
L191689285 199607142
L191546428 199678571
L191403571 199678571
L191260714 199607142
L191189285 199535714
L191117857 199392857
L191046428 199107142
L191046428 198750000
L191117857 198464285
L191189285 198321428
L191260714 198250000
L191403571 198178571
" />
<path d="M192475000 198321428
L192546428 198250000
L192689285 198178571
L193046428 198178571
L193189285 198250000
L193260714 198321428
L193332142 198464285
L193332142 198607142
L193260714 198821428
L192403571 199678571
L193332142 199678571
" />
<path d="M193903571 198321428
L193975000 198250000
L194117857 198178571
L194475000 198178571
L194617857 198250000
L194689285 198321428
L194760714 198464285
L194760714 198607142
L194689285 198821428
L193832142 199678571
L194760714 199678571
" />
<path d="M195403571 199107142
L196546428 199107142
" />
<path d="M197546428 198178571
L197689285 198178571
L197832142 198250000
L197903571 198321428
L197975000 198464285
L198046428 198750000
L198046428 199107142
L197975000 199392857
L197903571 199535714
L197832142 199607142
L197689285 199678571
L197546428 199678571
L197403571 199607142
L197332142 199535714
L197260714 199392857
L197189285 199107142
L197189285 198750000
L197260714 198464285
L197332142 198321428
L197403571 198250000
L197546428 198178571
" />
<path d="M199332142 198678571
L199332142 199678571
" />
<path d="M198975000 198107142
L198617857 199178571
L199546428 199178571
" />
<path d="M200117857 199107142
L201260714 199107142
" />
<path d="M201903571 198321428
L201975000 198250000
L202117857 198178571
L202475000 198178571
L202617857 198250000
L202689285 198321428
L202760714 198464285
L202760714 198607142
L202689285 198821428
L201832142 199678571
L202760714 199678571
" />
<path d="M203332142 198321428
L203403571 198250000
L203546428 198178571
L203903571 198178571
L204046428 198250000
L204117857 198321428
L204189285 198464285
L204189285 198607142
L204117857 198821428
L203260714 199678571
L204189285 199678571
" />
</g></g>
<g style="fill:#000000; fill-opacity:0.0; 
stroke:#000000; stroke-width:21200.000000; stroke-opacity:1; 
stroke-linecap:round; stroke-linejoin:round;">
</g>
<g style="fill:#000000; fill-opacity:0.0; 
stroke:#000000; stroke-width:150000.000000; stroke-opacity:1; 
stroke-linecap:round; stroke-linejoin:round;">
<path d="M159400000 200400000
L267400000 200400000
" />
</g>
<g style="fill:#000000; fill-opacity:0.0; 
stroke:#000000; stroke-width:21200.000000; stroke-opacity:1; 
stroke-linecap:round; stroke-linejoin:round;">
</g>
<g style="fill:#000000; fill-opacity:0.0; 
stroke:#000000; stroke-width:150000.000000; stroke-opacity:1; 
stroke-linecap:round; stroke-linejoin:round;">
<text x="160400000.000000" y="202550000.000000"
textLength="31078571.000000" font-size="2000000.000000" lengthAdjust="spacingAndGlyphs"
text-anchor="start" opacity="0">KiCad E.D.A.  kicad (6.0.4)</text>
<g class="stroked-text"><desc>KiCad E.D.A.  kicad (6.0.4)</desc>
<path d="M160832142 202478571
L160832142 200978571
" />
<path d="M161689285 202478571
L161046428 201621428
" />
<path d="M161689285 200978571
L160832142 201835714
" />
<path d="M162332142 202478571
L162332142 201478571
" />
<path d="M162332142 200978571
L162260714 201050000
L162332142 201121428
L162403571 201050000
L162332142 200978571
L162332142 201121428
" />
<path d="M163903571 202335714
L163832142 202407142
L163617857 202478571
L163475000 202478571
L163260714 202407142
L163117857 202264285
L163046428 202121428
L162975000 201835714
L162975000 201621428
L163046428 201335714
L163117857 201192857
L163260714 201050000
L163475000 200978571
L163617857 200978571
L163832142 201050000
L163903571 201121428
" />
<path d="M165189285 202478571
L165189285 201692857
L165117857 201550000
L164975000 201478571
L164689285 201478571
L164546428 201550000
" />
<path d="M165189285 202407142
L165046428 202478571
L164689285 202478571
L164546428 202407142
L164475000 202264285
L164475000 202121428
L164546428 201978571
L164689285 201907142
L165046428 201907142
L165189285 201835714
" />
<path d="M166546428 202478571
L166546428 200978571
" />
<path d="M166546428 202407142
L166403571 202478571
L166117857 202478571
L165975000 202407142
L165903571 202335714
L165832142 202192857
L165832142 201764285
L165903571 201621428
L165975000 201550000
L166117857 201478571
L166403571 201478571
L166546428 201550000
" />
<path d="M168403571 201692857
L168903571 201692857
" />
<path d="M169117857 202478571
L168403571 202478571
L168403571 200978571
L169117857 200978571
" />
<path d="M169760714 202335714
L169832142 202407142
L169760714 202478571
L169689285 202407142
L169760714 202335714
L169760714 202478571
" />
<path d="M170475000 202478571
L170475000 200978571
L170832142 200978571
L171046428 201050000
L171189285 201192857
L171260714 201335714
L171332142 201621428
L171332142 201835714
L171260714 202121428
L171189285 202264285
L171046428 202407142
L170832142 202478571
L170475000 202478571
" />
<path d="M171975000 202335714
L172046428 202407142
L171975000 202478571
L171903571 202407142
L171975000 202335714
L171975000 202478571
" />
<path d="M172617857 202050000
L173332142 202050000
" />
<path d="M172475000 202478571
L172975000 200978571
L173475000 202478571
" />
<path d="M173975000 202335714
L174046428 202407142
L173975000 202478571
L173903571 202407142
L173975000 202335714
L173975000 202478571
" />
<path d="M176975000 202478571
L176975000 200978571
" />
<path d="M177117857 201907142
L177546428 202478571
" />
<path d="M177546428 201478571
L176975000 202050000
" />
<path d="M178189285 202478571
L178189285 201478571
" />
<path d="M178189285 200978571
L178117857 201050000
L178189285 201121428
L178260714 201050000
L178189285 200978571
L178189285 201121428
" />
<path d="M179546428 202407142
L179403571 202478571
L179117857 202478571
L178975000 202407142
L178903571 202335714
L178832142 202192857
L178832142 201764285
L178903571 201621428
L178975000 201550000
L179117857 201478571
L179403571 201478571
L179546428 201550000
" />
<path d="M180832142 202478571
L180832142 201692857
L180760714 201550000
L180617857 201478571
L180332142 201478571
L180189285 201550000
" />
<path d="M180832142 202407142
L180689285 202478571
L180332142 202478571
L180189285 202407142
L180117857 202264285
L180117857 202121428
L180189285 201978571
L180332142 201907142
L180689285 201907142
L180832142 201835714
" />
<path d="M182189285 202478571
L182189285 200978571
" />
<path d="M182189285 202407142
L182046428 202478571
L181760714 202478571
L181617857 202407142
L181546428 202335714
L181475000 202192857
L181475000 201764285
L181546428 201621428
L181617857 201550000
L181760714 201478571
L182046428 201478571
L182189285 201550000
" />
<path d="M184475000 203050000
L184403571 202978571
L184260714 202764285
L184189285 202621428
L184117857 202407142
L184046428 202050000
L184046428 201764285
L184117857 201407142
L184189285 201192857
L184260714 201050000
L184403571 200835714
L184475000 200764285
" />
<path d="M185689285 200978571
L185403571 200978571
L185260714 201050000
L185189285 201121428
L185046428 201335714
L184975000 201621428
L184975000 202192857
L185046428 202335714
L185117857 202407142
L185260714 202478571
L185546428 202478571
L185689285 202407142
L185760714 202335714
L185832142 202192857
L185832142 201835714
L185760714 201692857
L185689285 201621428
L185546428 201550000
L185260714 201550000
L185117857 201621428
L185046428 201692857
L184975000 201835714
" />
<path d="M186475000 202335714
L186546428 202407142
L186475000 202478571
L186403571 202407142
L186475000 202335714
L186475000 202478571
" />
<path d="M187475000 200978571
L187617857 200978571
L187760714 201050000
L187832142 201121428
L187903571 201264285
L187975000 201550000
L187975000 201907142
L187903571 202192857
L187832142 202335714
L187760714 202407142
L187617857 202478571
L187475000 202478571
L187332142 202407142
L187260714 202335714
L187189285 202192857
L187117857 201907142
L187117857 201550000
L187189285 201264285
L187260714 201121428
L187332142 201050000
L187475000 200978571
" />
<path d="M188617857 202335714
L188689285 202407142
L188617857 202478571
L188546428 202407142
L188617857 202335714
L188617857 202478571
" />
<path d="M189975000 201478571
L189975000 202478571
" />
<path d="M189617857 200907142
L189260714 201978571
L190189285 201978571
" />
<path d="M190617857 203050000
L190689285 202978571
L190832142 202764285
L190903571 202621428
L190975000 202407142
L191046428 202050000
L191046428 201764285
L190975000 201407142
L190903571 201192857
L190832142 201050000
L190689285 200835714
L190617857 200764285
" />
</g></g>
<g style="fill:#000000; fill-opacity:0.0; 
stroke:#000000; stroke-width:21200.000000; stroke-opacity:1; 
stroke-linecap:round; stroke-linejoin:round;">
</g>
<g style="fill:#000000; fill-opacity:0.0; 
stroke:#000000; stroke-width:150000.000000; stroke-opacity:1; 
stroke-linecap:round; stroke-linejoin:round;">
<path d="M159400000 197400000
L267400000 197400000
" />
</g>
<g style="fill:#000000; fill-opacity:0.0; 
stroke:#000000; stroke-width:21200.000000; stroke-opacity:1; 
stroke-linecap:round; stroke-linejoin:round;">
</g>
<g style="fill:#000000; fill-opacity:0.0; 
stroke:#000000; stroke-width:300000.000000; stroke-opacity:1; 
stroke-linecap:round; stroke-linejoin:round;">
<text x="245400000.000000" y="199750000.000000"
textLength="10650000.000000" font-size="2000000.000000" lengthAdjust="spacingAndGlyphs"
text-anchor="start" opacity="0">Rev: v2.0</text>
<g class="stroked-text"><desc>Rev: v2.0</desc>
<path d="M246809285 199678571
L246309285 198964285
" />
<path d="M245952142 199678571
L245952142 198178571
L246523571 198178571
L246666428 198250000
L246737857 198321428
L246809285 198464285
L246809285 198678571
L246737857 198821428
L246666428 198892857
L246523571 198964285
L245952142 198964285
" />
<path d="M248023571 199607142
L247880714 199678571
L247595000 199678571
L247452142 199607142
L247380714 199464285
L247380714 198892857
L247452142 198750000
L247595000 198678571
L247880714 198678571
L248023571 198750000
L248095000 198892857
L248095000 199035714
L247380714 199178571
" />
<path d="M248595000 198678571
L248952142 199678571
L249309285 198678571
" />
<path d="M249880714 199535714
L249952142 199607142
L249880714 199678571
L249809285 199607142
L249880714 199535714
L249880714 199678571
" />
<path d="M249880714 198750000
L249952142 198821428
L249880714 198892857
L249809285 198821428
L249880714 198750000
L249880714 198892857
" />
<path d="M251595000 198678571
L251952142 199678571
L252309285 198678571
" />
<path d="M252809285 198321428
L252880714 198250000
L253023571 198178571
L253380714 198178571
L253523571 198250000
L253595000 198321428
L253666428 198464285
L253666428 198607142
L253595000 198821428
L252737857 199678571
L253666428 199678571
" />
<path d="M254309285 199535714
L254380714 199607142
L254309285 199678571
L254237857 199607142
L254309285 199535714
L254309285 199678571
" />
<path d="M255309285 198178571
L255452142 198178571
L255595000 198250000
L255666428 198321428
L255737857 198464285
L255809285 198750000
L255809285 199107142
L255737857 199392857
L255666428 199535714
L255595000 199607142
L255452142 199678571
L255309285 199678571
L255166428 199607142
L255095000 199535714
L255023571 199392857
L254952142 199107142
L254952142 198750000
L255023571 198464285
L255095000 198321428
L255166428 198250000
L255309285 198178571
" />
</g></g>
<g style="fill:#000000; fill-opacity:0.0; 
stroke:#000000; stroke-width:21200.000000; stroke-opacity:1; 
stroke-linecap:round; stroke-linejoin:round;">
</g>
<g style="fill:#000000; fill-opacity:0.0; 
stroke:#000000; stroke-width:150000.000000; stroke-opacity:1; 
stroke-linecap:round; stroke-linejoin:round;">
<text x="160400000.000000" y="199750000.000000"
textLength="16318571.000000" font-size="2000000.000000" lengthAdjust="spacingAndGlyphs"
text-anchor="start" opacity="0">Size: USLetter</text>
<g class="stroked-text"><desc>Size: USLetter</desc>
<path d="M160760714 199607142
L160975000 199678571
L161332142 199678571
L161475000 199607142
L161546428 199535714
L161617857 199392857
L161617857 199250000
L161546428 199107142
L161475000 199035714
L161332142 198964285
L161046428 198892857
L160903571 198821428
L160832142 198750000
L160760714 198607142
L160760714 198464285
L160832142 198321428
L160903571 198250000
L161046428 198178571
L161403571 198178571
L161617857 198250000
" />
<path d="M162260714 199678571
L162260714 198678571
" />
<path d="M162260714 198178571
L162189285 198250000
L162260714 198321428
L162332142 198250000
L162260714 198178571
L162260714 198321428
" />
<path d="M162832142 198678571
L163617857 198678571
L162832142 199678571
L163617857 199678571
" />
<path d="M164760714 199607142
L164617857 199678571
L164332142 199678571
L164189285 199607142
L164117857 199464285
L164117857 198892857
L164189285 198750000
L164332142 198678571
L164617857 198678571
L164760714 198750000
L164832142 198892857
L164832142 199035714
L164117857 199178571
" />
<path d="M165475000 199535714
L165546428 199607142
L165475000 199678571
L165403571 199607142
L165475000 199535714
L165475000 199678571
" />
<path d="M165475000 198750000
L165546428 198821428
L165475000 198892857
L165403571 198821428
L165475000 198750000
L165475000 198892857
" />
<path d="M167332142 198178571
L167332142 199392857
L167403571 199535714
L167475000 199607142
L167617857 199678571
L167903571 199678571
L168046428 199607142
L168117857 199535714
L168189285 199392857
L168189285 198178571
" />
<path d="M168832142 199607142
L169046428 199678571
L169403571 199678571
L169546428 199607142
L169617857 199535714
L169689285 199392857
L169689285 199250000
L169617857 199107142
L169546428 199035714
L169403571 198964285
L169117857 198892857
L168975000 198821428
L168903571 198750000
L168832142 198607142
L168832142 198464285
L168903571 198321428
L168975000 198250000
L169117857 198178571
L169475000 198178571
L169689285 198250000
" />
<path d="M171046428 199678571
L170332142 199678571
L170332142 198178571
" />
<path d="M172117857 199607142
L171975000 199678571
L171689285 199678571
L171546428 199607142
L171475000 199464285
L171475000 198892857
L171546428 198750000
L171689285 198678571
L171975000 198678571
L172117857 198750000
L172189285 198892857
L172189285 199035714
L171475000 199178571
" />
<path d="M172617857 198678571
L173189285 198678571
" />
<path d="M172832142 198178571
L172832142 199464285
L172903571 199607142
L173046428 199678571
L173189285 199678571
" />
<path d="M173475000 198678571
L174046428 198678571
" />
<path d="M173689285 198178571
L173689285 199464285
L173760714 199607142
L173903571 199678571
L174046428 199678571
" />
<path d="M175117857 199607142
L174975000 199678571
L174689285 199678571
L174546428 199607142
L174475000 199464285
L174475000 198892857
L174546428 198750000
L174689285 198678571
L174975000 198678571
L175117857 198750000
L175189285 198892857
L175189285 199035714
L174475000 199178571
" />
<path d="M175832142 199678571
L175832142 198678571
" />
<path d="M175832142 198964285
L175903571 198821428
L175975000 198750000
L176117857 198678571
L176260714 198678571
" />
</g></g>
<g style="fill:#000000; fill-opacity:0.0; 
stroke:#000000; stroke-width:21200.000000; stroke-opacity:1; 
stroke-linecap:round; stroke-linejoin:round;">
</g>
<g style="fill:#000000; fill-opacity:0.0; 
stroke:#000000; stroke-width:150000.000000; stroke-opacity:1; 
stroke-linecap:round; stroke-linejoin:round;">
<text x="245400000.000000" y="202550000.000000"
textLength="8507143.000000" font-size="2000000.000000" lengthAdjust="spacingAndGlyphs"
text-anchor="start" opacity="0">Id: 1/1</text>
<g class="stroked-text"><desc>Id: 1/1</desc>
<path d="M245832142 202478571
L245832142 200978571
" />
<path d="M247189285 202478571
L247189285 200978571
" />
<path d="M247189285 202407142
L247046428 202478571
L246760714 202478571
L246617857 202407142
L246546428 202335714
L246475000 202192857
L246475000 201764285
L246546428 201621428
L246617857 201550000
L246760714 201478571
L247046428 201478571
L247189285 201550000
" />
<path d="M247903571 202335714
L247975000 202407142
L247903571 202478571
L247832142 202407142
L247903571 202335714
L247903571 202478571
" />
<path d="M247903571 201550000
L247975000 201621428
L247903571 201692857
L247832142 201621428
L247903571 201550000
L247903571 201692857
" />
<path d="M250546428 202478571
L249689285 202478571
" />
<path d="M250117857 202478571
L250117857 200978571
L249975000 201192857
L249832142 201335714
L249689285 201407142
" />
<path d="M252260714 200907142
L250975000 202835714
" />
<path d="M253546428 202478571
L252689285 202478571
" />
<path d="M253117857 202478571
L253117857 200978571
L252975000 201192857
L252832142 201335714
L252689285 201407142
" />
</g></g>
<g style="fill:#000000; fill-opacity:0.0; 
stroke:#000000; stroke-width:21200.000000; stroke-opacity:1; 
stroke-linecap:round; stroke-linejoin:round;">
</g>
<g style="fill:#000000; fill-opacity:0.0; 
stroke:#000000; stroke-width:150000.000000; stroke-opacity:1; 
stroke-linecap:round; stroke-linejoin:round;">
<path d="M159400000 193400000
L267400000 193400000
" />
</g>
<g style="fill:#000000; fill-opacity:0.0; 
stroke:#000000; stroke-width:21200.000000; stroke-opacity:1; 
stroke-linecap:round; stroke-linejoin:round;">
</g>
<g style="fill:#000000; fill-opacity:0.0; 
stroke:#000000; stroke-width:400000.000000; stroke-opacity:1; 
stroke-linecap:round; stroke-linejoin:round;">
<text x="160400000.000000" y="196200000.000000"
textLength="34266786.000000" font-size="2666666.000000" lengthAdjust="spacingAndGlyphs"
text-anchor="start" opacity="0">Title: Beacon Detector</text>
<g class="stroked-text"><desc>Title: Beacon Detector</desc>
<path d="M161112380 194104761
L162255238 194104761
" />
<path d="M161433809 196104761
L161683809 194104761
" />
<path d="M162671904 196104761
L162838571 194771428
" />
<path d="M162921904 194104761
L162814761 194200000
L162898095 194295238
L163005238 194200000
L162921904 194104761
L162898095 194295238
" />
<path d="M163505238 194771428
L164267142 194771428
" />
<path d="M163874285 194104761
L163660000 195819047
L163731428 196009523
L163910000 196104761
L164100476 196104761
" />
<path d="M165052857 196104761
L164874285 196009523
L164802857 195819047
L165017142 194104761
" />
<path d="M166588571 196009523
L166386190 196104761
L166005238 196104761
L165826666 196009523
L165755238 195819047
L165850476 195057142
L165969523 194866666
L166171904 194771428
L166552857 194771428
L166731428 194866666
L166802857 195057142
L166779047 195247619
L165802857 195438095
" />
<path d="M167552857 195914285
L167636190 196009523
L167529047 196104761
L167445714 196009523
L167552857 195914285
L167529047 196104761
" />
<path d="M167683809 194866666
L167767142 194961904
L167660000 195057142
L167576666 194961904
L167683809 194866666
L167660000 195057142
" />
<path d="M170802857 195057142
L171076666 195152380
L171160000 195247619
L171231428 195438095
L171195714 195723809
L171076666 195914285
L170969523 196009523
L170767142 196104761
L170005238 196104761
L170255238 194104761
L170921904 194104761
L171100476 194200000
L171183809 194295238
L171255238 194485714
L171231428 194676190
L171112380 194866666
L171005238 194961904
L170802857 195057142
L170136190 195057142
" />
<path d="M172779047 196009523
L172576666 196104761
L172195714 196104761
L172017142 196009523
L171945714 195819047
L172040952 195057142
L172160000 194866666
L172362380 194771428
L172743333 194771428
L172921904 194866666
L172993333 195057142
L172969523 195247619
L171993333 195438095
" />
<path d="M174576666 196104761
L174707619 195057142
L174636190 194866666
L174457619 194771428
L174076666 194771428
L173874285 194866666
" />
<path d="M174588571 196009523
L174386190 196104761
L173910000 196104761
L173731428 196009523
L173660000 195819047
L173683809 195628571
L173802857 195438095
L174005238 195342857
L174481428 195342857
L174683809 195247619
" />
<path d="M176398095 196009523
L176195714 196104761
L175814761 196104761
L175636190 196009523
L175552857 195914285
L175481428 195723809
L175552857 195152380
L175671904 194961904
L175779047 194866666
L175981428 194771428
L176362380 194771428
L176540952 194866666
" />
<path d="M177529047 196104761
L177350476 196009523
L177267142 195914285
L177195714 195723809
L177267142 195152380
L177386190 194961904
L177493333 194866666
L177695714 194771428
L177981428 194771428
L178160000 194866666
L178243333 194961904
L178314761 195152380
L178243333 195723809
L178124285 195914285
L178017142 196009523
L177814761 196104761
L177529047 196104761
" />
<path d="M179219523 194771428
L179052857 196104761
" />
<path d="M179195714 194961904
L179302857 194866666
L179505238 194771428
L179790952 194771428
L179969523 194866666
L180040952 195057142
L179910000 196104761
" />
<path d="M182386190 196104761
L182636190 194104761
L183112380 194104761
L183386190 194200000
L183552857 194390476
L183624285 194580952
L183671904 194961904
L183636190 195247619
L183493333 195628571
L183374285 195819047
L183160000 196009523
L182862380 196104761
L182386190 196104761
" />
<path d="M185160000 196009523
L184957619 196104761
L184576666 196104761
L184398095 196009523
L184326666 195819047
L184421904 195057142
L184540952 194866666
L184743333 194771428
L185124285 194771428
L185302857 194866666
L185374285 195057142
L185350476 195247619
L184374285 195438095
" />
<path d="M185981428 194771428
L186743333 194771428
" />
<path d="M186350476 194104761
L186136190 195819047
L186207619 196009523
L186386190 196104761
L186576666 196104761
" />
<path d="M188017142 196009523
L187814761 196104761
L187433809 196104761
L187255238 196009523
L187183809 195819047
L187279047 195057142
L187398095 194866666
L187600476 194771428
L187981428 194771428
L188160000 194866666
L188231428 195057142
L188207619 195247619
L187231428 195438095
" />
<path d="M189826666 196009523
L189624285 196104761
L189243333 196104761
L189064761 196009523
L188981428 195914285
L188910000 195723809
L188981428 195152380
L189100476 194961904
L189207619 194866666
L189410000 194771428
L189790952 194771428
L189969523 194866666
" />
<path d="M190552857 194771428
L191314761 194771428
" />
<path d="M190921904 194104761
L190707619 195819047
L190779047 196009523
L190957619 196104761
L191148095 196104761
" />
<path d="M192100476 196104761
L191921904 196009523
L191838571 195914285
L191767142 195723809
L191838571 195152380
L191957619 194961904
L192064761 194866666
L192267142 194771428
L192552857 194771428
L192731428 194866666
L192814761 194961904
L192886190 195152380
L192814761 195723809
L192695714 195914285
L192588571 196009523
L192386190 196104761
L192100476 196104761
" />
<path d="M193624285 196104761
L193790952 194771428
" />
<path d="M193743333 195152380
L193862380 194961904
L193969523 194866666
L194171904 194771428
L194362380 194771428
" />
</g></g>
<g style="fill:#000000; fill-opacity:0.0; 
stroke:#000000; stroke-width:21200.000000; stroke-opacity:1; 
stroke-linecap:round; stroke-linejoin:round;">
</g>
<g style="fill:#000000; fill-opacity:0.0; 
stroke:#000000; stroke-width:150000.000000; stroke-opacity:1; 
stroke-linecap:round; stroke-linejoin:round;">
<text x="160400000.000000" y="192350000.000000"
textLength="39877143.000000" font-size="2000000.000000" lengthAdjust="spacingAndGlyphs"
text-anchor="start" opacity="0">File: beacondetector-v2.kicad_pcb</text>
<g class="stroked-text"><desc>File: beacondetector-v2.kicad_pcb</desc>
<path d="M161332142 191492857
L160832142 191492857
" />
<path d="M160832142 192278571
L160832142 190778571
L161546428 190778571
" />
<path d="M162117857 192278571
L162117857 191278571
" />
<path d="M162117857 190778571
L162046428 190850000
L162117857 190921428
L162189285 190850000
L162117857 190778571
L162117857 190921428
" />
<path d="M163046428 192278571
L162903571 192207142
L162832142 192064285
L162832142 190778571
" />
<path d="M164189285 192207142
L164046428 192278571
L163760714 192278571
L163617857 192207142
L163546428 192064285
L163546428 191492857
L163617857 191350000
L163760714 191278571
L164046428 191278571
L164189285 191350000
L164260714 191492857
L164260714 191635714
L163546428 191778571
" />
<path d="M164903571 192135714
L164975000 192207142
L164903571 192278571
L164832142 192207142
L164903571 192135714
L164903571 192278571
" />
<path d="M164903571 191350000
L164975000 191421428
L164903571 191492857
L164832142 191421428
L164903571 191350000
L164903571 191492857
" />
<path d="M166760714 192278571
L166760714 190778571
" />
<path d="M166760714 191350000
L166903571 191278571
L167189285 191278571
L167332142 191350000
L167403571 191421428
L167475000 191564285
L167475000 191992857
L167403571 192135714
L167332142 192207142
L167189285 192278571
L166903571 192278571
L166760714 192207142
" />
<path d="M168689285 192207142
L168546428 192278571
L168260714 192278571
L168117857 192207142
L168046428 192064285
L168046428 191492857
L168117857 191350000
L168260714 191278571
L168546428 191278571
L168689285 191350000
L168760714 191492857
L168760714 191635714
L168046428 191778571
" />
<path d="M170046428 192278571
L170046428 191492857
L169975000 191350000
L169832142 191278571
L169546428 191278571
L169403571 191350000
" />
<path d="M170046428 192207142
L169903571 192278571
L169546428 192278571
L169403571 192207142
L169332142 192064285
L169332142 191921428
L169403571 191778571
L169546428 191707142
L169903571 191707142
L170046428 191635714
" />
<path d="M171403571 192207142
L171260714 192278571
L170975000 192278571
L170832142 192207142
L170760714 192135714
L170689285 191992857
L170689285 191564285
L170760714 191421428
L170832142 191350000
L170975000 191278571
L171260714 191278571
L171403571 191350000
" />
<path d="M172260714 192278571
L172117857 192207142
L172046428 192135714
L171975000 191992857
L171975000 191564285
L172046428 191421428
L172117857 191350000
L172260714 191278571
L172475000 191278571
L172617857 191350000
L172689285 191421428
L172760714 191564285
L172760714 191992857
L172689285 192135714
L172617857 192207142
L172475000 192278571
L172260714 192278571
" />
<path d="M173403571 191278571
L173403571 192278571
" />
<path d="M173403571 191421428
L173475000 191350000
L173617857 191278571
L173832142 191278571
L173975000 191350000
L174046428 191492857
L174046428 192278571
" />
<path d="M175403571 192278571
L175403571 190778571
" />
<path d="M175403571 192207142
L175260714 192278571
L174975000 192278571
L174832142 192207142
L174760714 192135714
L174689285 191992857
L174689285 191564285
L174760714 191421428
L174832142 191350000
L174975000 191278571
L175260714 191278571
L175403571 191350000
" />
<path d="M176689285 192207142
L176546428 192278571
L176260714 192278571
L176117857 192207142
L176046428 192064285
L176046428 191492857
L176117857 191350000
L176260714 191278571
L176546428 191278571
L176689285 191350000
L176760714 191492857
L176760714 191635714
L176046428 191778571
" />
<path d="M177189285 191278571
L177760714 191278571
" />
<path d="M177403571 190778571
L177403571 192064285
L177475000 192207142
L177617857 192278571
L177760714 192278571
" />
<path d="M178832142 192207142
L178689285 192278571
L178403571 192278571
L178260714 192207142
L178189285 192064285
L178189285 191492857
L178260714 191350000
L178403571 191278571
L178689285 191278571
L178832142 191350000
L178903571 191492857
L178903571 191635714
L178189285 191778571
" />
<path d="M180189285 192207142
L180046428 192278571
L179760714 192278571
L179617857 192207142
L179546428 192135714
L179475000 191992857
L179475000 191564285
L179546428 191421428
L179617857 191350000
L179760714 191278571
L180046428 191278571
L180189285 191350000
" />
<path d="M180617857 191278571
L181189285 191278571
" />
<path d="M180832142 190778571
L180832142 192064285
L180903571 192207142
L181046428 192278571
L181189285 192278571
" />
<path d="M181903571 192278571
L181760714 192207142
L181689285 192135714
L181617857 191992857
L181617857 191564285
L181689285 191421428
L181760714 191350000
L181903571 191278571
L182117857 191278571
L182260714 191350000
L182332142 191421428
L182403571 191564285
L182403571 191992857
L182332142 192135714
L182260714 192207142
L182117857 192278571
L181903571 192278571
" />
<path d="M183046428 192278571
L183046428 191278571
" />
<path d="M183046428 191564285
L183117857 191421428
L183189285 191350000
L183332142 191278571
L183475000 191278571
" />
<path d="M183975000 191707142
L185117857 191707142
" />
<path d="M185689285 191278571
L186046428 192278571
L186403571 191278571
" />
<path d="M186903571 190921428
L186975000 190850000
L187117857 190778571
L187475000 190778571
L187617857 190850000
L187689285 190921428
L187760714 191064285
L187760714 191207142
L187689285 191421428
L186832142 192278571
L187760714 192278571
" />
<path d="M188403571 192135714
L188475000 192207142
L188403571 192278571
L188332142 192207142
L188403571 192135714
L188403571 192278571
" />
<path d="M189117857 192278571
L189117857 190778571
" />
<path d="M189260714 191707142
L189689285 192278571
" />
<path d="M189689285 191278571
L189117857 191850000
" />
<path d="M190332142 192278571
L190332142 191278571
" />
<path d="M190332142 190778571
L190260714 190850000
L190332142 190921428
L190403571 190850000
L190332142 190778571
L190332142 190921428
" />
<path d="M191689285 192207142
L191546428 192278571
L191260714 192278571
L191117857 192207142
L191046428 192135714
L190975000 191992857
L190975000 191564285
L191046428 191421428
L191117857 191350000
L191260714 191278571
L191546428 191278571
L191689285 191350000
" />
<path d="M192975000 192278571
L192975000 191492857
L192903571 191350000
L192760714 191278571
L192475000 191278571
L192332142 191350000
" />
<path d="M192975000 192207142
L192832142 192278571
L192475000 192278571
L192332142 192207142
L192260714 192064285
L192260714 191921428
L192332142 191778571
L192475000 191707142
L192832142 191707142
L192975000 191635714
" />
<path d="M194332142 192278571
L194332142 190778571
" />
<path d="M194332142 192207142
L194189285 192278571
L193903571 192278571
L193760714 192207142
L193689285 192135714
L193617857 191992857
L193617857 191564285
L193689285 191421428
L193760714 191350000
L193903571 191278571
L194189285 191278571
L194332142 191350000
" />
<path d="M194689285 192421428
L195832142 192421428
" />
<path d="M196189285 191278571
L196189285 192778571
" />
<path d="M196189285 191350000
L196332142 191278571
L196617857 191278571
L196760714 191350000
L196832142 191421428
L196903571 191564285
L196903571 191992857
L196832142 192135714
L196760714 192207142
L196617857 192278571
L196332142 192278571
L196189285 192207142
" />
<path d="M198189285 192207142
L198046428 192278571
L197760714 192278571
L197617857 192207142
L197546428 192135714
L197475000 191992857
L197475000 191564285
L197546428 191421428
L197617857 191350000
L197760714 191278571
L198046428 191278571
L198189285 191350000
" />
<path d="M198832142 192278571
L198832142 190778571
" />
<path d="M198832142 191350000
L198975000 191278571
L199260714 191278571
L199403571 191350000
L199475000 191421428
L199546428 191564285
L199546428 191992857
L199475000 192135714
L199403571 192207142
L199260714 192278571
L198975000 192278571
L198832142 192207142
" />
</g></g>
<g style="fill:#000000; fill-opacity:0.0; 
stroke:#000000; stroke-width:21200.000000; stroke-opacity:1; 
stroke-linecap:round; stroke-linejoin:round;">
</g>
<g style="fill:#000000; fill-opacity:0.0; 
stroke:#000000; stroke-width:150000.000000; stroke-opacity:1; 
stroke-linecap:round; stroke-linejoin:round;">
<path d="M159400000 187400000
L267400000 187400000
" />
</g>
<g style="fill:#000000; fill-opacity:0.0; 
stroke:#000000; stroke-width:21200.000000; stroke-opacity:1; 
stroke-linecap:round; stroke-linejoin:round;">
</g>
<g style="fill:#000000; fill-opacity:0.0; 
stroke:#000000; stroke-width:150000.000000; stroke-opacity:1; 
stroke-linecap:round; stroke-linejoin:round;">
<text x="160400000.000000" y="189650000.000000"
textLength="8221429.000000" font-size="2000000.000000" lengthAdjust="spacingAndGlyphs"
text-anchor="start" opacity="0">Sheet: </text>
<g class="stroked-text"><desc>Sheet: </desc>
<path d="M160760714 189507142
L160975000 189578571
L161332142 189578571
L161475000 189507142
L161546428 189435714
L161617857 189292857
L161617857 189150000
L161546428 189007142
L161475000 188935714
L161332142 188864285
L161046428 188792857
L160903571 188721428
L160832142 188650000
L160760714 188507142
L160760714 188364285
L160832142 188221428
L160903571 188150000
L161046428 188078571
L161403571 188078571
L161617857 188150000
" />
<path d="M162260714 189578571
L162260714 188078571
" />
<path d="M162903571 189578571
L162903571 188792857
L162832142 188650000
L162689285 188578571
L162475000 188578571
L162332142 188650000
L162260714 188721428
" />
<path d="M164189285 189507142
L164046428 189578571
L163760714 189578571
L163617857 189507142
L163546428 189364285
L163546428 188792857
L163617857 188650000
L163760714 188578571
L164046428 188578571
L164189285 188650000
L164260714 188792857
L164260714 188935714
L163546428 189078571
" />
<path d="M165475000 189507142
L165332142 189578571
L165046428 189578571
L164903571 189507142
L164832142 189364285
L164832142 188792857
L164903571 188650000
L165046428 188578571
L165332142 188578571
L165475000 188650000
L165546428 188792857
L165546428 188935714
L164832142 189078571
" />
<path d="M165975000 188578571
L166546428 188578571
" />
<path d="M166189285 188078571
L166189285 189364285
L166260714 189507142
L166403571 189578571
L166546428 189578571
" />
<path d="M167046428 189435714
L167117857 189507142
L167046428 189578571
L166975000 189507142
L167046428 189435714
L167046428 189578571
" />
<path d="M167046428 188650000
L167117857 188721428
L167046428 188792857
L166975000 188721428
L167046428 188650000
L167046428 188792857
" />
</g></g>
<g style="fill:#000000; fill-opacity:0.0; 
stroke:#000000; stroke-width:21200.000000; stroke-opacity:1; 
stroke-linecap:round; stroke-linejoin:round;">
</g>
<g style="fill:#000000; fill-opacity:0.0; 
stroke:#000000; stroke-width:300000.000000; stroke-opacity:1; 
stroke-linecap:round; stroke-linejoin:round;">
<text x="160400000.000000" y="186650000.000000"
textLength="32721429.000000" font-size="2000000.000000" lengthAdjust="spacingAndGlyphs"
text-anchor="start" opacity="0">UC Santa Cruz Mechatronics</text>
<g class="stroked-text"><desc>UC Santa Cruz Mechatronics</desc>
<path d="M160952142 185078571
L160952142 186292857
L161023571 186435714
L161095000 186507142
L161237857 186578571
L161523571 186578571
L161666428 186507142
L161737857 186435714
L161809285 186292857
L161809285 185078571
" />
<path d="M163380714 186435714
L163309285 186507142
L163095000 186578571
L162952142 186578571
L162737857 186507142
L162595000 186364285
L162523571 186221428
L162452142 185935714
L162452142 185721428
L162523571 185435714
L162595000 185292857
L162737857 185150000
L162952142 185078571
L163095000 185078571
L163309285 185150000
L163380714 185221428
" />
<path d="M165095000 186507142
L165309285 186578571
L165666428 186578571
L165809285 186507142
L165880714 186435714
L165952142 186292857
L165952142 186150000
L165880714 186007142
L165809285 185935714
L165666428 185864285
L165380714 185792857
L165237857 185721428
L165166428 185650000
L165095000 185507142
L165095000 185364285
L165166428 185221428
L165237857 185150000
L165380714 185078571
L165737857 185078571
L165952142 185150000
" />
<path d="M167237857 186578571
L167237857 185792857
L167166428 185650000
L167023571 185578571
L166737857 185578571
L166595000 185650000
" />
<path d="M167237857 186507142
L167095000 186578571
L166737857 186578571
L166595000 186507142
L166523571 186364285
L166523571 186221428
L166595000 186078571
L166737857 186007142
L167095000 186007142
L167237857 185935714
" />
<path d="M167952142 185578571
L167952142 186578571
" />
<path d="M167952142 185721428
L168023571 185650000
L168166428 185578571
L168380714 185578571
L168523571 185650000
L168595000 185792857
L168595000 186578571
" />
<path d="M169095000 185578571
L169666428 185578571
" />
<path d="M169309285 185078571
L169309285 186364285
L169380714 186507142
L169523571 186578571
L169666428 186578571
" />
<path d="M170809285 186578571
L170809285 185792857
L170737857 185650000
L170595000 185578571
L170309285 185578571
L170166428 185650000
" />
<path d="M170809285 186507142
L170666428 186578571
L170309285 186578571
L170166428 186507142
L170095000 186364285
L170095000 186221428
L170166428 186078571
L170309285 186007142
L170666428 186007142
L170809285 185935714
" />
<path d="M173523571 186435714
L173452142 186507142
L173237857 186578571
L173095000 186578571
L172880714 186507142
L172737857 186364285
L172666428 186221428
L172595000 185935714
L172595000 185721428
L172666428 185435714
L172737857 185292857
L172880714 185150000
L173095000 185078571
L173237857 185078571
L173452142 185150000
L173523571 185221428
" />
<path d="M174166428 186578571
L174166428 185578571
" />
<path d="M174166428 185864285
L174237857 185721428
L174309285 185650000
L174452142 185578571
L174595000 185578571
" />
<path d="M175737857 185578571
L175737857 186578571
" />
<path d="M175095000 185578571
L175095000 186364285
L175166428 186507142
L175309285 186578571
L175523571 186578571
L175666428 186507142
L175737857 186435714
" />
<path d="M176309285 185578571
L177095000 185578571
L176309285 186578571
L177095000 186578571
" />
<path d="M178809285 186578571
L178809285 185078571
L179309285 186150000
L179809285 185078571
L179809285 186578571
" />
<path d="M181095000 186507142
L180952142 186578571
L180666428 186578571
L180523571 186507142
L180452142 186364285
L180452142 185792857
L180523571 185650000
L180666428 185578571
L180952142 185578571
L181095000 185650000
L181166428 185792857
L181166428 185935714
L180452142 186078571
" />
<path d="M182452142 186507142
L182309285 186578571
L182023571 186578571
L181880714 186507142
L181809285 186435714
L181737857 186292857
L181737857 185864285
L181809285 185721428
L181880714 185650000
L182023571 185578571
L182309285 185578571
L182452142 185650000
" />
<path d="M183095000 186578571
L183095000 185078571
" />
<path d="M183737857 186578571
L183737857 185792857
L183666428 185650000
L183523571 185578571
L183309285 185578571
L183166428 185650000
L183095000 185721428
" />
<path d="M185095000 186578571
L185095000 185792857
L185023571 185650000
L184880714 185578571
L184595000 185578571
L184452142 185650000
" />
<path d="M185095000 186507142
L184952142 186578571
L184595000 186578571
L184452142 186507142
L184380714 186364285
L184380714 186221428
L184452142 186078571
L184595000 186007142
L184952142 186007142
L185095000 185935714
" />
<path d="M185595000 185578571
L186166428 185578571
" />
<path d="M185809285 185078571
L185809285 186364285
L185880714 186507142
L186023571 186578571
L186166428 186578571
" />
<path d="M186666428 186578571
L186666428 185578571
" />
<path d="M186666428 185864285
L186737857 185721428
L186809285 185650000
L186952142 185578571
L187095000 185578571
" />
<path d="M187809285 186578571
L187666428 186507142
L187595000 186435714
L187523571 186292857
L187523571 185864285
L187595000 185721428
L187666428 185650000
L187809285 185578571
L188023571 185578571
L188166428 185650000
L188237857 185721428
L188309285 185864285
L188309285 186292857
L188237857 186435714
L188166428 186507142
L188023571 186578571
L187809285 186578571
" />
<path d="M188952142 185578571
L188952142 186578571
" />
<path d="M188952142 185721428
L189023571 185650000
L189166428 185578571
L189380714 185578571
L189523571 185650000
L189595000 185792857
L189595000 186578571
" />
<path d="M190309285 186578571
L190309285 185578571
" />
<path d="M190309285 185078571
L190237857 185150000
L190309285 185221428
L190380714 185150000
L190309285 185078571
L190309285 185221428
" />
<path d="M191666428 186507142
L191523571 186578571
L191237857 186578571
L191095000 186507142
L191023571 186435714
L190952142 186292857
L190952142 185864285
L191023571 185721428
L191095000 185650000
L191237857 185578571
L191523571 185578571
L191666428 185650000
" />
<path d="M192237857 186507142
L192380714 186578571
L192666428 186578571
L192809285 186507142
L192880714 186364285
L192880714 186292857
L192809285 186150000
L192666428 186078571
L192452142 186078571
L192309285 186007142
L192237857 185864285
L192237857 185792857
L192309285 185650000
L192452142 185578571
L192666428 185578571
L192809285 185650000
" />
</g></g>
<g style="fill:#000000; fill-opacity:0.0; 
stroke:#000000; stroke-width:21200.000000; stroke-opacity:1; 
stroke-linecap:round; stroke-linejoin:round;">
</g>
<g style="fill:#000000; fill-opacity:0.0; 
stroke:#000000; stroke-width:150000.000000; stroke-opacity:1; 
stroke-linecap:round; stroke-linejoin:round;">
<text x="160400000.000000" y="183650000.000000"
textLength="390000.000000" font-size="2000000.000000" lengthAdjust="spacingAndGlyphs"
text-anchor="start" opacity="0"></text>
<g class="stroked-text"><desc></desc>
</g></g>
<g style="fill:#000000; fill-opacity:0.0; 
stroke:#000000; stroke-width:21200.000000; stroke-opacity:1; 
stroke-linecap:round; stroke-linejoin:round;">
</g>
<g style="fill:#000000; fill-opacity:0.0; 
stroke:#000000; stroke-width:150000.000000; stroke-opacity:1; 
stroke-linecap:round; stroke-linejoin:round;">
<text x="160400000.000000" y="180650000.000000"
textLength="150000.000000" font-size="2000000.000000" lengthAdjust="spacingAndGlyphs"
text-anchor="start" opacity="0"></text>
<g class="stroked-text"><desc></desc>
</g></g>
<g style="fill:#000000; fill-opacity:0.0; 
stroke:#000000; stroke-width:21200.000000; stroke-opacity:1; 
stroke-linecap:round; stroke-linejoin:round;">
</g>
<g style="fill:#000000; fill-opacity:0.0; 
stroke:#000000; stroke-width:150000.000000; stroke-opacity:1; 
stroke-linecap:round; stroke-linejoin:round;">
<text x="160400000.000000" y="177650000.000000"
textLength="150000.000000" font-size="2000000.000000" lengthAdjust="spacingAndGlyphs"
text-anchor="start" opacity="0"></text>
<g class="stroked-text"><desc></desc>
</g></g>
<g style="fill:#000000; fill-opacity:0.0; 
stroke:#000000; stroke-width:21200.000000; stroke-opacity:1; 
stroke-linecap:round; stroke-linejoin:round;">
</g>
<g style="fill:#000000; fill-opacity:0.0; 
stroke:#000000; stroke-width:150000.000000; stroke-opacity:1; 
stroke-linecap:round; stroke-linejoin:round;">
<text x="160400000.000000" y="174650000.000000"
textLength="150000.000000" font-size="2000000.000000" lengthAdjust="spacingAndGlyphs"
text-anchor="start" opacity="0"></text>
<g class="stroked-text"><desc></desc>
</g></g>
<g style="fill:#000000; fill-opacity:0.0; 
stroke:#000000; stroke-width:21200.000000; stroke-opacity:1; 
stroke-linecap:round; stroke-linejoin:round;">
</g>
<g style="fill:#000000; fill-opacity:0.0; 
stroke:#000000; stroke-width:150000.000000; stroke-opacity:1; 
stroke-linecap:round; stroke-linejoin:round;">
<path d="M179400000 197400000
L179400000 200400000
" />
</g>
<g style="fill:#000000; fill-opacity:0.0; 
stroke:#000000; stroke-width:21200.000000; stroke-opacity:1; 
stroke-linecap:round; stroke-linejoin:round;">
</g>
<g style="fill:#000000; fill-opacity:0.0; 
stroke:#000000; stroke-width:150000.000000; stroke-opacity:1; 
stroke-linecap:round; stroke-linejoin:round;">
<path d="M243400000 197400000
L243400000 203900000
" />
<g >
</g>
<g >
</g>
<g >
</g>
<g >
</g>
<g >
</g>
<g >
</g>
<g >
</g>
<g >
</g>
<g >
</g>
<g >
</g>
<g >
</g>
<g >
</g>
<g >
</g>
<g >
</g>
<g >
</g>
<g >
</g>
<g >
</g>
<g >
</g>
<g >
</g>
<g >
</g>
<g >
</g>
<g >
</g>
<g >
</g>
<g >
</g>
<g >
</g>
<g >
</g>
<g >
</g>
<g >
</g>
<g >
</g>
<g >
</g>
<g >
</g>
<g >
</g>
<g >
</g>
<g >
</g>
<g >
</g>
<g >
</g>
<g >
</g>
<g >
</g>
<g >
</g>
<g >
</g>
<g >
</g>
<g >
</g>
<g >
</g>
<g >
</g>
<g >
</g>
<g >
</g>
<g >
</g>
<g >
</g>
<g >
</g>
<g >
</g>
<g >
</g>
</g> 
</svg>
