%TF.GenerationSoftware,KiCad,Pcbnew,(6.0.4)*%
%TF.CreationDate,2022-04-22T20:46:49-07:00*%
%TF.ProjectId,beacondetector-v2,62656163-6f6e-4646-9574-6563746f722d,v2.0*%
%TF.SameCoordinates,Original*%
%TF.FileFunction,Copper,L1,Top*%
%TF.FilePolarity,Positive*%
%FSLAX46Y46*%
G04 Gerber Fmt 4.6, Leading zero omitted, Abs format (unit mm)*
G04 Created by KiCad (PCBNEW (6.0.4)) date 2022-04-22 20:46:49*
%MOMM*%
%LPD*%
G01*
G04 APERTURE LIST*
G04 Aperture macros list*
%AMRoundRect*
0 Rectangle with rounded corners*
0 $1 Rounding radius*
0 $2 $3 $4 $5 $6 $7 $8 $9 X,Y pos of 4 corners*
0 Add a 4 corners polygon primitive as box body*
4,1,4,$2,$3,$4,$5,$6,$7,$8,$9,$2,$3,0*
0 Add four circle primitives for the rounded corners*
1,1,$1+$1,$2,$3*
1,1,$1+$1,$4,$5*
1,1,$1+$1,$6,$7*
1,1,$1+$1,$8,$9*
0 Add four rect primitives between the rounded corners*
20,1,$1+$1,$2,$3,$4,$5,0*
20,1,$1+$1,$4,$5,$6,$7,0*
20,1,$1+$1,$6,$7,$8,$9,0*
20,1,$1+$1,$8,$9,$2,$3,0*%
G04 Aperture macros list end*
%TA.AperFunction,ComponentPad*%
%ADD10O,1.600000X1.600000*%
%TD*%
%TA.AperFunction,ComponentPad*%
%ADD11R,1.600000X1.600000*%
%TD*%
%TA.AperFunction,ComponentPad*%
%ADD12C,1.600000*%
%TD*%
%TA.AperFunction,ComponentPad*%
%ADD13O,1.400000X1.400000*%
%TD*%
%TA.AperFunction,ComponentPad*%
%ADD14C,1.400000*%
%TD*%
%TA.AperFunction,ComponentPad*%
%ADD15R,2.200000X2.200000*%
%TD*%
%TA.AperFunction,ComponentPad*%
%ADD16O,2.200000X2.200000*%
%TD*%
%TA.AperFunction,ComponentPad*%
%ADD17C,2.000000*%
%TD*%
%TA.AperFunction,ComponentPad*%
%ADD18R,2.000000X2.000000*%
%TD*%
%TA.AperFunction,ComponentPad*%
%ADD19R,1.700000X1.700000*%
%TD*%
%TA.AperFunction,ComponentPad*%
%ADD20O,1.700000X1.700000*%
%TD*%
%TA.AperFunction,ComponentPad*%
%ADD21C,1.800000*%
%TD*%
%TA.AperFunction,ComponentPad*%
%ADD22R,1.800000X1.800000*%
%TD*%
%TA.AperFunction,ComponentPad*%
%ADD23RoundRect,0.250000X-1.330000X-1.800000X1.330000X-1.800000X1.330000X1.800000X-1.330000X1.800000X0*%
%TD*%
%TA.AperFunction,ComponentPad*%
%ADD24O,3.160000X4.100000*%
%TD*%
%TA.AperFunction,Conductor*%
%ADD25C,0.508000*%
%TD*%
G04 APERTURE END LIST*
D10*
X163103400Y-81173400D03*
X163103400Y-83713400D03*
X163103400Y-86253400D03*
X163103400Y-88793400D03*
X163103400Y-91333400D03*
X163103400Y-93873400D03*
X163103400Y-96413400D03*
X155483400Y-96413400D03*
X155483400Y-93873400D03*
X155483400Y-91333400D03*
X155483400Y-88793400D03*
X155483400Y-86253400D03*
X155483400Y-83713400D03*
D11*
X155483400Y-81173400D03*
D12*
X170713400Y-110923400D03*
X165713400Y-110923400D03*
D13*
X166913400Y-114243400D03*
D14*
X166913400Y-121863400D03*
D13*
X152843400Y-95798400D03*
D14*
X145223400Y-95798400D03*
D15*
X127865607Y-97897010D03*
D16*
X127865607Y-87737010D03*
D17*
X123665600Y-94177000D03*
X123665600Y-91637000D03*
D18*
X123665600Y-89097000D03*
D14*
X145203400Y-89598400D03*
D13*
X152823400Y-89598400D03*
D14*
X135933400Y-124313400D03*
D13*
X135933400Y-116693400D03*
D14*
X135933400Y-101353400D03*
D13*
X135933400Y-108973400D03*
D11*
X143843400Y-86298400D03*
D12*
X143843400Y-83798400D03*
D14*
X133633400Y-108973400D03*
D13*
X133633400Y-101353400D03*
D14*
X145110200Y-120802400D03*
D13*
X152730200Y-120802400D03*
X142683400Y-106613400D03*
D14*
X142683400Y-114233400D03*
X152823400Y-93448400D03*
D13*
X145203400Y-93448400D03*
X155498800Y-103733600D03*
D14*
X147878800Y-103733600D03*
D12*
X138633400Y-111673400D03*
X133633400Y-111673400D03*
D13*
X165483400Y-86208400D03*
D14*
X165483400Y-78588400D03*
D12*
X117965600Y-89107000D03*
D11*
X117965600Y-91607000D03*
X155483400Y-106573400D03*
D10*
X155483400Y-109113400D03*
X155483400Y-111653400D03*
X155483400Y-114193400D03*
X155483400Y-116733400D03*
X155483400Y-119273400D03*
X155483400Y-121813400D03*
X163103400Y-121813400D03*
X163103400Y-119273400D03*
X163103400Y-116733400D03*
X163103400Y-114193400D03*
X163103400Y-111653400D03*
X163103400Y-109113400D03*
X163103400Y-106573400D03*
D14*
X152730200Y-114503200D03*
D13*
X145110200Y-114503200D03*
X145223400Y-98498400D03*
D14*
X152843400Y-98498400D03*
D13*
X172669200Y-93878400D03*
D14*
X172669200Y-86258400D03*
X165633400Y-107463400D03*
D13*
X173253400Y-107463400D03*
D12*
X147583400Y-111623400D03*
X152583400Y-111623400D03*
D19*
X118133393Y-109073391D03*
D20*
X118133393Y-111613391D03*
D14*
X133833400Y-116713400D03*
D13*
X133833400Y-124333400D03*
D12*
X120633400Y-124273400D03*
X120633400Y-119273400D03*
D13*
X152730200Y-124663200D03*
D14*
X145110200Y-124663200D03*
D11*
X123733400Y-106573400D03*
D10*
X123733400Y-109113400D03*
X123733400Y-111653400D03*
X123733400Y-114193400D03*
X123733400Y-116733400D03*
X123733400Y-119273400D03*
X123733400Y-121813400D03*
X131353400Y-121813400D03*
X131353400Y-119273400D03*
X131353400Y-116733400D03*
X131353400Y-114193400D03*
X131353400Y-111653400D03*
X131353400Y-109113400D03*
X131353400Y-106573400D03*
D13*
X152243400Y-78628400D03*
D14*
X152243400Y-86248400D03*
D12*
X131165600Y-95397000D03*
X131165600Y-97897000D03*
D14*
X121133400Y-109073400D03*
D13*
X121133400Y-101453400D03*
D21*
X172694600Y-80594200D03*
D22*
X172694600Y-83134200D03*
D14*
X142943400Y-89598400D03*
D13*
X142943400Y-97218400D03*
D12*
X147730200Y-117551200D03*
X152730200Y-117551200D03*
D14*
X138133400Y-114193400D03*
D13*
X138133400Y-121813400D03*
D12*
X170713400Y-104163400D03*
X165713400Y-104163400D03*
D23*
X123585600Y-83352000D03*
D24*
X127545600Y-83352000D03*
D13*
X138233400Y-101353400D03*
D14*
X138233400Y-108973400D03*
X152593400Y-108923400D03*
D13*
X144973400Y-108923400D03*
D14*
X168043400Y-81178400D03*
D13*
X168043400Y-88798400D03*
D14*
X170713400Y-114243400D03*
D13*
X170713400Y-121863400D03*
D16*
X148743400Y-76108400D03*
D15*
X148743400Y-86268400D03*
D19*
X168143400Y-93898400D03*
D25*
X152730200Y-120802400D02*
X148971000Y-120802400D01*
X148971000Y-120802400D02*
X145110200Y-124663200D01*
X155483400Y-121813400D02*
X155483400Y-121910000D01*
X155483400Y-121910000D02*
X152730200Y-124663200D01*
X170713400Y-110923400D02*
X172542200Y-112752200D01*
X172542200Y-112752200D02*
X172542200Y-120034600D01*
X172542200Y-120034600D02*
X170713400Y-121863400D01*
X155483400Y-116733400D02*
X153548000Y-116733400D01*
X153548000Y-116733400D02*
X152730200Y-117551200D01*
X152730200Y-114503200D02*
X152730200Y-117551200D01*
X145110200Y-120802400D02*
X141599200Y-124313400D01*
X141599200Y-124313400D02*
X135933400Y-124313400D01*
X145110200Y-120802400D02*
X145110200Y-114503200D01*
X155483400Y-119273400D02*
X154259200Y-119273400D01*
X154259200Y-119273400D02*
X152730200Y-120802400D01*
X147878800Y-103733600D02*
X144999000Y-106613400D01*
X144999000Y-106613400D02*
X142683400Y-106613400D01*
X147878800Y-103733600D02*
X150103600Y-103733600D01*
X150103600Y-103733600D02*
X155483400Y-109113400D01*
X155498800Y-103733600D02*
X155498800Y-106558000D01*
X155498800Y-106558000D02*
X155483400Y-106573400D01*
X172669200Y-93878400D02*
X168163400Y-93878400D01*
X168163400Y-93878400D02*
X168143400Y-93898400D01*
X172694600Y-83134200D02*
X172694600Y-86233000D01*
X172694600Y-86233000D02*
X172669200Y-86258400D01*
X165483400Y-78588400D02*
X170688800Y-78588400D01*
X170688800Y-78588400D02*
X172694600Y-80594200D01*
X131353400Y-114193400D02*
X130099889Y-112939889D01*
X130099889Y-100735444D02*
X132419111Y-98416222D01*
X130099889Y-112939889D02*
X130099889Y-100735444D01*
X132419111Y-98416222D02*
X132419111Y-96650511D01*
X132419111Y-96650511D02*
X131165600Y-95397000D01*
X152243400Y-78628400D02*
X156212689Y-78628400D01*
X156212689Y-78628400D02*
X161849889Y-84265600D01*
X161849889Y-84265600D02*
X161849889Y-87539889D01*
X161849889Y-87539889D02*
X163103400Y-88793400D01*
X131165600Y-95397000D02*
X141122000Y-95397000D01*
X141122000Y-95397000D02*
X141143400Y-95418400D01*
X163103400Y-91333400D02*
X160563400Y-91333400D01*
X160563400Y-91333400D02*
X155483400Y-96413400D01*
X163103400Y-111653400D02*
X161849889Y-112906911D01*
X161849889Y-112906911D02*
X146249889Y-112906911D01*
X146249889Y-112906911D02*
X144933400Y-114223400D01*
X144933400Y-114223400D02*
X142693400Y-114223400D01*
X142693400Y-114223400D02*
X142683400Y-114233400D01*
X152843400Y-95798400D02*
X152843400Y-98498400D01*
X155483400Y-96413400D02*
X155483400Y-96108400D01*
X155483400Y-96108400D02*
X152823400Y-93448400D01*
X142943400Y-89598400D02*
X145203400Y-89598400D01*
X143843400Y-83798400D02*
X141143400Y-86498400D01*
X141143400Y-86498400D02*
X141143400Y-95418400D01*
X141143400Y-95418400D02*
X142943400Y-97218400D01*
X145203400Y-93448400D02*
X145203400Y-95778400D01*
X145203400Y-95778400D02*
X145223400Y-95798400D01*
X147178400Y-91333400D02*
X146938400Y-91333400D01*
X155483400Y-91333400D02*
X147178400Y-91333400D01*
X147178400Y-91333400D02*
X147178400Y-96543400D01*
X147178400Y-96543400D02*
X145223400Y-98498400D01*
X146938400Y-91333400D02*
X145203400Y-89598400D01*
X155483400Y-83713400D02*
X156736911Y-84966911D01*
X156736911Y-84966911D02*
X156736911Y-92619889D01*
X156736911Y-92619889D02*
X155483400Y-93873400D01*
X120633400Y-124273400D02*
X123813400Y-124273400D01*
X123813400Y-124273400D02*
X131353400Y-116733400D01*
X131353400Y-109113400D02*
X132646911Y-107819889D01*
X132646911Y-107819889D02*
X134779889Y-107819889D01*
X134779889Y-107819889D02*
X135933400Y-108973400D01*
X138133400Y-114193400D02*
X138133400Y-114493400D01*
X138133400Y-114493400D02*
X135933400Y-116693400D01*
X131353400Y-119273400D02*
X133353400Y-119273400D01*
X133353400Y-119273400D02*
X135933400Y-116693400D01*
X133833400Y-116713400D02*
X131373400Y-116713400D01*
X131373400Y-116713400D02*
X131353400Y-116733400D01*
X131353400Y-106573400D02*
X133013400Y-106573400D01*
X133013400Y-106573400D02*
X138233400Y-101353400D01*
X135933400Y-101353400D02*
X133633400Y-101353400D01*
X135933400Y-108973400D02*
X138793400Y-108973400D01*
X133633400Y-108973400D02*
X133633400Y-111673400D01*
X131353400Y-111653400D02*
X133613400Y-111653400D01*
X133613400Y-111653400D02*
X133633400Y-111673400D01*
X138633400Y-111673400D02*
X140133400Y-113173400D01*
X140133400Y-113173400D02*
X140133400Y-119813400D01*
X140133400Y-119813400D02*
X138133400Y-121813400D01*
X131353400Y-121813400D02*
X138133400Y-121813400D01*
X135933400Y-124273400D02*
X133853400Y-124273400D01*
X133853400Y-124273400D02*
X133833400Y-124293400D01*
X155483400Y-121813400D02*
X158023400Y-121813400D01*
X158023400Y-121813400D02*
X163103400Y-116733400D01*
X144973400Y-108923400D02*
X144973400Y-114183400D01*
X144973400Y-114183400D02*
X144933400Y-114223400D01*
X155483400Y-111653400D02*
X152613400Y-111653400D01*
X152613400Y-111653400D02*
X152583400Y-111623400D01*
X152593400Y-108923400D02*
X152593400Y-111613400D01*
X152593400Y-111613400D02*
X152583400Y-111623400D01*
X163103400Y-109113400D02*
X163983400Y-109113400D01*
X163983400Y-109113400D02*
X165633400Y-107463400D01*
X163103400Y-109113400D02*
X163903400Y-109113400D01*
X163903400Y-109113400D02*
X165713400Y-110923400D01*
X163103400Y-119273400D02*
X163103400Y-121813400D01*
X170713400Y-114243400D02*
X165683400Y-119273400D01*
X165683400Y-119273400D02*
X163103400Y-119273400D01*
X166913400Y-121863400D02*
X170713400Y-121863400D01*
X163103400Y-114193400D02*
X166863400Y-114193400D01*
X166863400Y-114193400D02*
X166913400Y-114243400D01*
X173253400Y-107463400D02*
X169013400Y-107463400D01*
X169013400Y-107463400D02*
X165713400Y-104163400D01*
X163103400Y-106573400D02*
X163303400Y-106573400D01*
X163303400Y-106573400D02*
X165713400Y-104163400D01*
X168143400Y-93898400D02*
X163128400Y-93898400D01*
X163128400Y-93898400D02*
X163103400Y-93873400D01*
X163103400Y-93873400D02*
X163103400Y-96413400D01*
X168043400Y-88798400D02*
X163108400Y-88798400D01*
X163108400Y-88798400D02*
X163103400Y-88793400D01*
X168043400Y-81178400D02*
X165483400Y-83738400D01*
X165483400Y-83738400D02*
X165483400Y-86208400D01*
X163103400Y-86253400D02*
X165438400Y-86253400D01*
X165438400Y-86253400D02*
X165483400Y-86208400D01*
X163103400Y-81173400D02*
X163103400Y-83713400D01*
X155483400Y-83713400D02*
X154778400Y-83713400D01*
X154778400Y-83713400D02*
X152243400Y-86248400D01*
X148743400Y-86268400D02*
X152223400Y-86268400D01*
X152223400Y-86268400D02*
X152243400Y-86248400D01*
X148743400Y-86268400D02*
X143873400Y-86268400D01*
X143873400Y-86268400D02*
X143843400Y-86298400D01*
X152243400Y-78628400D02*
X149013400Y-78628400D01*
X149013400Y-78628400D02*
X143843400Y-83798400D01*
X123733400Y-106573400D02*
X124986911Y-107826911D01*
X124986911Y-107826911D02*
X124986911Y-115479889D01*
X124986911Y-115479889D02*
X123733400Y-116733400D01*
X123733400Y-121813400D02*
X123733400Y-119273400D01*
X123733400Y-119273400D02*
X120633400Y-119273400D01*
X123733400Y-106573400D02*
X123733400Y-104053400D01*
X123733400Y-104053400D02*
X121133400Y-101453400D01*
X123733400Y-109113400D02*
X121173400Y-109113400D01*
X121173400Y-109113400D02*
X121133400Y-109073400D01*
X118133400Y-109073400D02*
X121133400Y-109073400D01*
X131165600Y-95397000D02*
X129965600Y-95397000D01*
X129965600Y-95397000D02*
X123665600Y-89097000D01*
X131165600Y-97897000D02*
X127865600Y-97897000D01*
X123665600Y-94177000D02*
X127385600Y-97897000D01*
X127385600Y-97897000D02*
X127865600Y-97897000D01*
X117965600Y-91607000D02*
X123635600Y-91607000D01*
X123635600Y-91607000D02*
X123665600Y-91637000D01*
X123665600Y-89097000D02*
X117975600Y-89097000D01*
X117975600Y-89097000D02*
X117965600Y-89107000D01*
X123585600Y-83352000D02*
X123665600Y-83432000D01*
X123665600Y-83432000D02*
X123665600Y-89097000D01*
X127545600Y-83352000D02*
X127545600Y-87417000D01*
X127545600Y-87417000D02*
X127865600Y-87737000D01*
M02*
