%TF.GenerationSoftware,KiCad,Pcbnew,(6.0.4)*%
%TF.CreationDate,2022-04-22T20:46:49-07:00*%
%TF.ProjectId,beacondetector-v2,62656163-6f6e-4646-9574-6563746f722d,v2.0*%
%TF.SameCoordinates,Original*%
%TF.FileFunction,Copper,L2,Bot*%
%TF.FilePolarity,Positive*%
%FSLAX46Y46*%
G04 Gerber Fmt 4.6, Leading zero omitted, Abs format (unit mm)*
G04 Created by KiCad (PCBNEW (6.0.4)) date 2022-04-22 20:46:49*
%MOMM*%
%LPD*%
G01*
G04 APERTURE LIST*
G04 Aperture macros list*
%AMRoundRect*
0 Rectangle with rounded corners*
0 $1 Rounding radius*
0 $2 $3 $4 $5 $6 $7 $8 $9 X,Y pos of 4 corners*
0 Add a 4 corners polygon primitive as box body*
4,1,4,$2,$3,$4,$5,$6,$7,$8,$9,$2,$3,0*
0 Add four circle primitives for the rounded corners*
1,1,$1+$1,$2,$3*
1,1,$1+$1,$4,$5*
1,1,$1+$1,$6,$7*
1,1,$1+$1,$8,$9*
0 Add four rect primitives between the rounded corners*
20,1,$1+$1,$2,$3,$4,$5,0*
20,1,$1+$1,$4,$5,$6,$7,0*
20,1,$1+$1,$6,$7,$8,$9,0*
20,1,$1+$1,$8,$9,$2,$3,0*%
G04 Aperture macros list end*
%TA.AperFunction,ComponentPad*%
%ADD10O,1.600000X1.600000*%
%TD*%
%TA.AperFunction,ComponentPad*%
%ADD11R,1.600000X1.600000*%
%TD*%
%TA.AperFunction,ComponentPad*%
%ADD12C,1.600000*%
%TD*%
%TA.AperFunction,ComponentPad*%
%ADD13O,1.400000X1.400000*%
%TD*%
%TA.AperFunction,ComponentPad*%
%ADD14C,1.400000*%
%TD*%
%TA.AperFunction,ComponentPad*%
%ADD15R,2.200000X2.200000*%
%TD*%
%TA.AperFunction,ComponentPad*%
%ADD16O,2.200000X2.200000*%
%TD*%
%TA.AperFunction,ComponentPad*%
%ADD17C,2.000000*%
%TD*%
%TA.AperFunction,ComponentPad*%
%ADD18R,2.000000X2.000000*%
%TD*%
%TA.AperFunction,ComponentPad*%
%ADD19R,1.700000X1.700000*%
%TD*%
%TA.AperFunction,ComponentPad*%
%ADD20O,1.700000X1.700000*%
%TD*%
%TA.AperFunction,ComponentPad*%
%ADD21C,1.800000*%
%TD*%
%TA.AperFunction,ComponentPad*%
%ADD22R,1.800000X1.800000*%
%TD*%
%TA.AperFunction,ComponentPad*%
%ADD23RoundRect,0.250000X-1.330000X-1.800000X1.330000X-1.800000X1.330000X1.800000X-1.330000X1.800000X0*%
%TD*%
%TA.AperFunction,ComponentPad*%
%ADD24O,3.160000X4.100000*%
%TD*%
%TA.AperFunction,Conductor*%
%ADD25C,0.508000*%
%TD*%
G04 APERTURE END LIST*
D10*
X163103400Y-81173400D03*
X163103400Y-83713400D03*
X163103400Y-86253400D03*
X163103400Y-88793400D03*
X163103400Y-91333400D03*
X163103400Y-93873400D03*
X163103400Y-96413400D03*
X155483400Y-96413400D03*
X155483400Y-93873400D03*
X155483400Y-91333400D03*
X155483400Y-88793400D03*
X155483400Y-86253400D03*
X155483400Y-83713400D03*
D11*
X155483400Y-81173400D03*
D12*
X170713400Y-110923400D03*
X165713400Y-110923400D03*
D13*
X166913400Y-114243400D03*
D14*
X166913400Y-121863400D03*
D13*
X152843400Y-95798400D03*
D14*
X145223400Y-95798400D03*
D15*
X127865607Y-97897010D03*
D16*
X127865607Y-87737010D03*
D17*
X123665600Y-94177000D03*
X123665600Y-91637000D03*
D18*
X123665600Y-89097000D03*
D14*
X145203400Y-89598400D03*
D13*
X152823400Y-89598400D03*
D14*
X135933400Y-124313400D03*
D13*
X135933400Y-116693400D03*
D14*
X135933400Y-101353400D03*
D13*
X135933400Y-108973400D03*
D11*
X143843400Y-86298400D03*
D12*
X143843400Y-83798400D03*
D14*
X133633400Y-108973400D03*
D13*
X133633400Y-101353400D03*
D14*
X145110200Y-120802400D03*
D13*
X152730200Y-120802400D03*
X142683400Y-106613400D03*
D14*
X142683400Y-114233400D03*
X152823400Y-93448400D03*
D13*
X145203400Y-93448400D03*
X155498800Y-103733600D03*
D14*
X147878800Y-103733600D03*
D12*
X138633400Y-111673400D03*
X133633400Y-111673400D03*
D13*
X165483400Y-86208400D03*
D14*
X165483400Y-78588400D03*
D12*
X117965600Y-89107000D03*
D11*
X117965600Y-91607000D03*
X155483400Y-106573400D03*
D10*
X155483400Y-109113400D03*
X155483400Y-111653400D03*
X155483400Y-114193400D03*
X155483400Y-116733400D03*
X155483400Y-119273400D03*
X155483400Y-121813400D03*
X163103400Y-121813400D03*
X163103400Y-119273400D03*
X163103400Y-116733400D03*
X163103400Y-114193400D03*
X163103400Y-111653400D03*
X163103400Y-109113400D03*
X163103400Y-106573400D03*
D14*
X152730200Y-114503200D03*
D13*
X145110200Y-114503200D03*
X145223400Y-98498400D03*
D14*
X152843400Y-98498400D03*
D13*
X172669200Y-93878400D03*
D14*
X172669200Y-86258400D03*
X165633400Y-107463400D03*
D13*
X173253400Y-107463400D03*
D12*
X147583400Y-111623400D03*
X152583400Y-111623400D03*
D19*
X118133393Y-109073391D03*
D20*
X118133393Y-111613391D03*
D14*
X133833400Y-116713400D03*
D13*
X133833400Y-124333400D03*
D12*
X120633400Y-124273400D03*
X120633400Y-119273400D03*
D13*
X152730200Y-124663200D03*
D14*
X145110200Y-124663200D03*
D11*
X123733400Y-106573400D03*
D10*
X123733400Y-109113400D03*
X123733400Y-111653400D03*
X123733400Y-114193400D03*
X123733400Y-116733400D03*
X123733400Y-119273400D03*
X123733400Y-121813400D03*
X131353400Y-121813400D03*
X131353400Y-119273400D03*
X131353400Y-116733400D03*
X131353400Y-114193400D03*
X131353400Y-111653400D03*
X131353400Y-109113400D03*
X131353400Y-106573400D03*
D13*
X152243400Y-78628400D03*
D14*
X152243400Y-86248400D03*
D12*
X131165600Y-95397000D03*
X131165600Y-97897000D03*
D14*
X121133400Y-109073400D03*
D13*
X121133400Y-101453400D03*
D21*
X172694600Y-80594200D03*
D22*
X172694600Y-83134200D03*
D14*
X142943400Y-89598400D03*
D13*
X142943400Y-97218400D03*
D12*
X147730200Y-117551200D03*
X152730200Y-117551200D03*
D14*
X138133400Y-114193400D03*
D13*
X138133400Y-121813400D03*
D12*
X170713400Y-104163400D03*
X165713400Y-104163400D03*
D23*
X123585600Y-83352000D03*
D24*
X127545600Y-83352000D03*
D13*
X138233400Y-101353400D03*
D14*
X138233400Y-108973400D03*
X152593400Y-108923400D03*
D13*
X144973400Y-108923400D03*
D14*
X168043400Y-81178400D03*
D13*
X168043400Y-88798400D03*
D14*
X170713400Y-114243400D03*
D13*
X170713400Y-121863400D03*
D16*
X148743400Y-76108400D03*
D15*
X148743400Y-86268400D03*
D19*
X168143400Y-93898400D03*
D25*
X138233400Y-101353400D02*
X141510800Y-101353400D01*
X141510800Y-101353400D02*
X147583400Y-107426000D01*
X147583400Y-107426000D02*
X147583400Y-111623400D01*
X156736911Y-112939889D02*
X155483400Y-114193400D01*
X156736911Y-90046911D02*
X156736911Y-112939889D01*
X155483400Y-88793400D02*
X156736911Y-90046911D01*
X147628600Y-117551200D02*
X150088600Y-115091200D01*
X150088600Y-115091200D02*
X150088600Y-108661200D01*
X150088600Y-108661200D02*
X152176400Y-106573400D01*
X152176400Y-106573400D02*
X155483400Y-106573400D01*
X123733400Y-114193400D02*
X118869956Y-114193400D01*
X118869956Y-114193400D02*
X116829889Y-112153333D01*
X116829889Y-112153333D02*
X116829889Y-92742711D01*
X116829889Y-92742711D02*
X117965600Y-91607000D01*
X137267800Y-91637000D02*
X123665600Y-91637000D01*
X137267800Y-85387003D02*
X148099914Y-74554889D01*
X148682000Y-91637000D02*
X137267800Y-91637000D01*
X137267800Y-91637000D02*
X137267800Y-85387003D01*
X148099914Y-74554889D02*
X161449889Y-74554889D01*
X161449889Y-74554889D02*
X165483400Y-78588400D01*
X155483400Y-86253400D02*
X156769889Y-87539889D01*
X163622622Y-87539889D02*
X165713400Y-89630667D01*
X156769889Y-87539889D02*
X163622622Y-87539889D01*
X165713400Y-89630667D02*
X165713400Y-104163400D01*
X174211001Y-112453399D02*
X174853600Y-111810800D01*
X163903399Y-112453399D02*
X174211001Y-112453399D01*
X164879712Y-83713400D02*
X163103400Y-83713400D01*
X163103400Y-111653400D02*
X163903399Y-112453399D01*
X174853600Y-111810800D02*
X174853600Y-93687288D01*
X174853600Y-93687288D02*
X164879712Y-83713400D01*
X148743400Y-76108400D02*
X151726400Y-76108400D01*
X151726400Y-76108400D02*
X155483400Y-79865400D01*
X155483400Y-79865400D02*
X155483400Y-81173400D01*
X152843400Y-95798400D02*
X148682000Y-91637000D01*
X163103400Y-88793400D02*
X161849889Y-90046911D01*
X161849889Y-90046911D02*
X161849889Y-112939889D01*
X161849889Y-112939889D02*
X163103400Y-114193400D01*
X131353400Y-114193400D02*
X130099889Y-112939889D01*
X130099889Y-112939889D02*
X119459889Y-112939889D01*
X119459889Y-112939889D02*
X118133400Y-111613400D01*
X135933400Y-101353400D02*
X135933400Y-102343349D01*
X135933400Y-102343349D02*
X142513451Y-108923400D01*
X142513451Y-108923400D02*
X144973400Y-108923400D01*
X155483400Y-88793400D02*
X154043400Y-90233400D01*
X154043400Y-90233400D02*
X154043400Y-94598400D01*
X154043400Y-94598400D02*
X152843400Y-95798400D01*
X152823400Y-89598400D02*
X152823400Y-93448400D01*
X123733400Y-111653400D02*
X133633400Y-101753400D01*
X133633400Y-101753400D02*
X133633400Y-101353400D01*
X170713400Y-104163400D02*
X170713400Y-110923400D01*
M02*
