%TF.GenerationSoftware,KiCad,Pcbnew,(6.0.4)*%
%TF.CreationDate,2022-04-22T20:46:49-07:00*%
%TF.ProjectId,beacondetector-v2,62656163-6f6e-4646-9574-6563746f722d,v2.0*%
%TF.SameCoordinates,Original*%
%TF.FileFunction,Legend,Top*%
%TF.FilePolarity,Positive*%
%FSLAX46Y46*%
G04 Gerber Fmt 4.6, Leading zero omitted, Abs format (unit mm)*
G04 Created by KiCad (PCBNEW (6.0.4)) date 2022-04-22 20:46:49*
%MOMM*%
%LPD*%
G01*
G04 APERTURE LIST*
G04 Aperture macros list*
%AMRoundRect*
0 Rectangle with rounded corners*
0 $1 Rounding radius*
0 $2 $3 $4 $5 $6 $7 $8 $9 X,Y pos of 4 corners*
0 Add a 4 corners polygon primitive as box body*
4,1,4,$2,$3,$4,$5,$6,$7,$8,$9,$2,$3,0*
0 Add four circle primitives for the rounded corners*
1,1,$1+$1,$2,$3*
1,1,$1+$1,$4,$5*
1,1,$1+$1,$6,$7*
1,1,$1+$1,$8,$9*
0 Add four rect primitives between the rounded corners*
20,1,$1+$1,$2,$3,$4,$5,0*
20,1,$1+$1,$4,$5,$6,$7,0*
20,1,$1+$1,$6,$7,$8,$9,0*
20,1,$1+$1,$8,$9,$2,$3,0*%
G04 Aperture macros list end*
%ADD10C,0.150000*%
%ADD11C,0.120000*%
%ADD12C,0.100000*%
%ADD13O,1.600000X1.600000*%
%ADD14R,1.600000X1.600000*%
%ADD15C,1.600000*%
%ADD16C,3.200000*%
%ADD17O,1.400000X1.400000*%
%ADD18C,1.400000*%
%ADD19R,2.200000X2.200000*%
%ADD20O,2.200000X2.200000*%
%ADD21C,2.000000*%
%ADD22R,2.000000X2.000000*%
%ADD23R,1.700000X1.700000*%
%ADD24O,1.700000X1.700000*%
%ADD25C,1.800000*%
%ADD26R,1.800000X1.800000*%
%ADD27RoundRect,0.250000X-1.330000X-1.800000X1.330000X-1.800000X1.330000X1.800000X-1.330000X1.800000X0*%
%ADD28O,3.160000X4.100000*%
G04 APERTURE END LIST*
D10*
X158531495Y-78295780D02*
X158531495Y-79105304D01*
X158579114Y-79200542D01*
X158626733Y-79248161D01*
X158721971Y-79295780D01*
X158912447Y-79295780D01*
X159007685Y-79248161D01*
X159055304Y-79200542D01*
X159102923Y-79105304D01*
X159102923Y-78295780D01*
X159483876Y-78295780D02*
X160102923Y-78295780D01*
X159769590Y-78676733D01*
X159912447Y-78676733D01*
X160007685Y-78724352D01*
X160055304Y-78771971D01*
X160102923Y-78867209D01*
X160102923Y-79105304D01*
X160055304Y-79200542D01*
X160007685Y-79248161D01*
X159912447Y-79295780D01*
X159626733Y-79295780D01*
X159531495Y-79248161D01*
X159483876Y-79200542D01*
X168108333Y-111278942D02*
X168060714Y-111326561D01*
X167917857Y-111374180D01*
X167822619Y-111374180D01*
X167679761Y-111326561D01*
X167584523Y-111231323D01*
X167536904Y-111136085D01*
X167489285Y-110945609D01*
X167489285Y-110802752D01*
X167536904Y-110612276D01*
X167584523Y-110517038D01*
X167679761Y-110421800D01*
X167822619Y-110374180D01*
X167917857Y-110374180D01*
X168060714Y-110421800D01*
X168108333Y-110469419D01*
X169060714Y-111374180D02*
X168489285Y-111374180D01*
X168775000Y-111374180D02*
X168775000Y-110374180D01*
X168679761Y-110517038D01*
X168584523Y-110612276D01*
X168489285Y-110659895D01*
X167355780Y-118327466D02*
X166879590Y-118660800D01*
X167355780Y-118898895D02*
X166355780Y-118898895D01*
X166355780Y-118517942D01*
X166403400Y-118422704D01*
X166451019Y-118375085D01*
X166546257Y-118327466D01*
X166689114Y-118327466D01*
X166784352Y-118375085D01*
X166831971Y-118422704D01*
X166879590Y-118517942D01*
X166879590Y-118898895D01*
X166355780Y-117422704D02*
X166355780Y-117898895D01*
X166831971Y-117946514D01*
X166784352Y-117898895D01*
X166736733Y-117803657D01*
X166736733Y-117565561D01*
X166784352Y-117470323D01*
X166831971Y-117422704D01*
X166927209Y-117375085D01*
X167165304Y-117375085D01*
X167260542Y-117422704D01*
X167308161Y-117470323D01*
X167355780Y-117565561D01*
X167355780Y-117803657D01*
X167308161Y-117898895D01*
X167260542Y-117946514D01*
X148378942Y-93975180D02*
X148045609Y-93498990D01*
X147807514Y-93975180D02*
X147807514Y-92975180D01*
X148188466Y-92975180D01*
X148283704Y-93022800D01*
X148331323Y-93070419D01*
X148378942Y-93165657D01*
X148378942Y-93308514D01*
X148331323Y-93403752D01*
X148283704Y-93451371D01*
X148188466Y-93498990D01*
X147807514Y-93498990D01*
X149331323Y-93975180D02*
X148759895Y-93975180D01*
X149045609Y-93975180D02*
X149045609Y-92975180D01*
X148950371Y-93118038D01*
X148855133Y-93213276D01*
X148759895Y-93260895D01*
X150236085Y-92975180D02*
X149759895Y-92975180D01*
X149712276Y-93451371D01*
X149759895Y-93403752D01*
X149855133Y-93356133D01*
X150093228Y-93356133D01*
X150188466Y-93403752D01*
X150236085Y-93451371D01*
X150283704Y-93546609D01*
X150283704Y-93784704D01*
X150236085Y-93879942D01*
X150188466Y-93927561D01*
X150093228Y-93975180D01*
X149855133Y-93975180D01*
X149759895Y-93927561D01*
X149712276Y-93879942D01*
X128341387Y-93397305D02*
X127341387Y-93397305D01*
X127341387Y-93159210D01*
X127389007Y-93016352D01*
X127484245Y-92921114D01*
X127579483Y-92873495D01*
X127769959Y-92825876D01*
X127912816Y-92825876D01*
X128103292Y-92873495D01*
X128198530Y-92921114D01*
X128293768Y-93016352D01*
X128341387Y-93159210D01*
X128341387Y-93397305D01*
X127341387Y-92492543D02*
X127341387Y-91873495D01*
X127722340Y-92206829D01*
X127722340Y-92063971D01*
X127769959Y-91968733D01*
X127817578Y-91921114D01*
X127912816Y-91873495D01*
X128150911Y-91873495D01*
X128246149Y-91921114D01*
X128293768Y-91968733D01*
X128341387Y-92063971D01*
X128341387Y-92349686D01*
X128293768Y-92444924D01*
X128246149Y-92492543D01*
X128315980Y-100185504D02*
X127315980Y-100185504D01*
X128315980Y-99614076D02*
X127744552Y-100042647D01*
X127315980Y-99614076D02*
X127887409Y-100185504D01*
X148429742Y-90063580D02*
X148096409Y-89587390D01*
X147858314Y-90063580D02*
X147858314Y-89063580D01*
X148239266Y-89063580D01*
X148334504Y-89111200D01*
X148382123Y-89158819D01*
X148429742Y-89254057D01*
X148429742Y-89396914D01*
X148382123Y-89492152D01*
X148334504Y-89539771D01*
X148239266Y-89587390D01*
X147858314Y-89587390D01*
X149382123Y-90063580D02*
X148810695Y-90063580D01*
X149096409Y-90063580D02*
X149096409Y-89063580D01*
X149001171Y-89206438D01*
X148905933Y-89301676D01*
X148810695Y-89349295D01*
X149953552Y-89492152D02*
X149858314Y-89444533D01*
X149810695Y-89396914D01*
X149763076Y-89301676D01*
X149763076Y-89254057D01*
X149810695Y-89158819D01*
X149858314Y-89111200D01*
X149953552Y-89063580D01*
X150144028Y-89063580D01*
X150239266Y-89111200D01*
X150286885Y-89158819D01*
X150334504Y-89254057D01*
X150334504Y-89301676D01*
X150286885Y-89396914D01*
X150239266Y-89444533D01*
X150144028Y-89492152D01*
X149953552Y-89492152D01*
X149858314Y-89539771D01*
X149810695Y-89587390D01*
X149763076Y-89682628D01*
X149763076Y-89873104D01*
X149810695Y-89968342D01*
X149858314Y-90015961D01*
X149953552Y-90063580D01*
X150144028Y-90063580D01*
X150239266Y-90015961D01*
X150286885Y-89968342D01*
X150334504Y-89873104D01*
X150334504Y-89682628D01*
X150286885Y-89587390D01*
X150239266Y-89539771D01*
X150144028Y-89492152D01*
X136418580Y-120562666D02*
X135942390Y-120896000D01*
X136418580Y-121134095D02*
X135418580Y-121134095D01*
X135418580Y-120753142D01*
X135466200Y-120657904D01*
X135513819Y-120610285D01*
X135609057Y-120562666D01*
X135751914Y-120562666D01*
X135847152Y-120610285D01*
X135894771Y-120657904D01*
X135942390Y-120753142D01*
X135942390Y-121134095D01*
X135418580Y-120229333D02*
X135418580Y-119562666D01*
X136418580Y-119991238D01*
X136367780Y-105806257D02*
X135891590Y-106139590D01*
X136367780Y-106377685D02*
X135367780Y-106377685D01*
X135367780Y-105996733D01*
X135415400Y-105901495D01*
X135463019Y-105853876D01*
X135558257Y-105806257D01*
X135701114Y-105806257D01*
X135796352Y-105853876D01*
X135843971Y-105901495D01*
X135891590Y-105996733D01*
X135891590Y-106377685D01*
X136367780Y-104853876D02*
X136367780Y-105425304D01*
X136367780Y-105139590D02*
X135367780Y-105139590D01*
X135510638Y-105234828D01*
X135605876Y-105330066D01*
X135653495Y-105425304D01*
X135367780Y-104520542D02*
X135367780Y-103901495D01*
X135748733Y-104234828D01*
X135748733Y-104091971D01*
X135796352Y-103996733D01*
X135843971Y-103949114D01*
X135939209Y-103901495D01*
X136177304Y-103901495D01*
X136272542Y-103949114D01*
X136320161Y-103996733D01*
X136367780Y-104091971D01*
X136367780Y-104377685D01*
X136320161Y-104472923D01*
X136272542Y-104520542D01*
X140450542Y-85215066D02*
X140498161Y-85262685D01*
X140545780Y-85405542D01*
X140545780Y-85500780D01*
X140498161Y-85643638D01*
X140402923Y-85738876D01*
X140307685Y-85786495D01*
X140117209Y-85834114D01*
X139974352Y-85834114D01*
X139783876Y-85786495D01*
X139688638Y-85738876D01*
X139593400Y-85643638D01*
X139545780Y-85500780D01*
X139545780Y-85405542D01*
X139593400Y-85262685D01*
X139641019Y-85215066D01*
X139879114Y-84357923D02*
X140545780Y-84357923D01*
X139498161Y-84596019D02*
X140212447Y-84834114D01*
X140212447Y-84215066D01*
X134132580Y-105806257D02*
X133656390Y-106139590D01*
X134132580Y-106377685D02*
X133132580Y-106377685D01*
X133132580Y-105996733D01*
X133180200Y-105901495D01*
X133227819Y-105853876D01*
X133323057Y-105806257D01*
X133465914Y-105806257D01*
X133561152Y-105853876D01*
X133608771Y-105901495D01*
X133656390Y-105996733D01*
X133656390Y-106377685D01*
X134132580Y-104853876D02*
X134132580Y-105425304D01*
X134132580Y-105139590D02*
X133132580Y-105139590D01*
X133275438Y-105234828D01*
X133370676Y-105330066D01*
X133418295Y-105425304D01*
X133465914Y-103996733D02*
X134132580Y-103996733D01*
X133084961Y-104234828D02*
X133799247Y-104472923D01*
X133799247Y-103853876D01*
X148277342Y-121280180D02*
X147944009Y-120803990D01*
X147705914Y-121280180D02*
X147705914Y-120280180D01*
X148086866Y-120280180D01*
X148182104Y-120327800D01*
X148229723Y-120375419D01*
X148277342Y-120470657D01*
X148277342Y-120613514D01*
X148229723Y-120708752D01*
X148182104Y-120756371D01*
X148086866Y-120803990D01*
X147705914Y-120803990D01*
X148658295Y-120375419D02*
X148705914Y-120327800D01*
X148801152Y-120280180D01*
X149039247Y-120280180D01*
X149134485Y-120327800D01*
X149182104Y-120375419D01*
X149229723Y-120470657D01*
X149229723Y-120565895D01*
X149182104Y-120708752D01*
X148610676Y-121280180D01*
X149229723Y-121280180D01*
X149563057Y-120280180D02*
X150182104Y-120280180D01*
X149848771Y-120661133D01*
X149991628Y-120661133D01*
X150086866Y-120708752D01*
X150134485Y-120756371D01*
X150182104Y-120851609D01*
X150182104Y-121089704D01*
X150134485Y-121184942D01*
X150086866Y-121232561D01*
X149991628Y-121280180D01*
X149705914Y-121280180D01*
X149610676Y-121232561D01*
X149563057Y-121184942D01*
X143098780Y-111005857D02*
X142622590Y-111339190D01*
X143098780Y-111577285D02*
X142098780Y-111577285D01*
X142098780Y-111196333D01*
X142146400Y-111101095D01*
X142194019Y-111053476D01*
X142289257Y-111005857D01*
X142432114Y-111005857D01*
X142527352Y-111053476D01*
X142574971Y-111101095D01*
X142622590Y-111196333D01*
X142622590Y-111577285D01*
X143098780Y-110053476D02*
X143098780Y-110624904D01*
X143098780Y-110339190D02*
X142098780Y-110339190D01*
X142241638Y-110434428D01*
X142336876Y-110529666D01*
X142384495Y-110624904D01*
X143098780Y-109577285D02*
X143098780Y-109386809D01*
X143051161Y-109291571D01*
X143003542Y-109243952D01*
X142860685Y-109148714D01*
X142670209Y-109101095D01*
X142289257Y-109101095D01*
X142194019Y-109148714D01*
X142146400Y-109196333D01*
X142098780Y-109291571D01*
X142098780Y-109482047D01*
X142146400Y-109577285D01*
X142194019Y-109624904D01*
X142289257Y-109672523D01*
X142527352Y-109672523D01*
X142622590Y-109624904D01*
X142670209Y-109577285D01*
X142717828Y-109482047D01*
X142717828Y-109291571D01*
X142670209Y-109196333D01*
X142622590Y-109148714D01*
X142527352Y-109101095D01*
X148429742Y-96311980D02*
X148096409Y-95835790D01*
X147858314Y-96311980D02*
X147858314Y-95311980D01*
X148239266Y-95311980D01*
X148334504Y-95359600D01*
X148382123Y-95407219D01*
X148429742Y-95502457D01*
X148429742Y-95645314D01*
X148382123Y-95740552D01*
X148334504Y-95788171D01*
X148239266Y-95835790D01*
X147858314Y-95835790D01*
X149382123Y-96311980D02*
X148810695Y-96311980D01*
X149096409Y-96311980D02*
X149096409Y-95311980D01*
X149001171Y-95454838D01*
X148905933Y-95550076D01*
X148810695Y-95597695D01*
X150239266Y-95311980D02*
X150048790Y-95311980D01*
X149953552Y-95359600D01*
X149905933Y-95407219D01*
X149810695Y-95550076D01*
X149763076Y-95740552D01*
X149763076Y-96121504D01*
X149810695Y-96216742D01*
X149858314Y-96264361D01*
X149953552Y-96311980D01*
X150144028Y-96311980D01*
X150239266Y-96264361D01*
X150286885Y-96216742D01*
X150334504Y-96121504D01*
X150334504Y-95883409D01*
X150286885Y-95788171D01*
X150239266Y-95740552D01*
X150144028Y-95692933D01*
X149953552Y-95692933D01*
X149858314Y-95740552D01*
X149810695Y-95788171D01*
X149763076Y-95883409D01*
X151045942Y-104185980D02*
X150712609Y-103709790D01*
X150474514Y-104185980D02*
X150474514Y-103185980D01*
X150855466Y-103185980D01*
X150950704Y-103233600D01*
X150998323Y-103281219D01*
X151045942Y-103376457D01*
X151045942Y-103519314D01*
X150998323Y-103614552D01*
X150950704Y-103662171D01*
X150855466Y-103709790D01*
X150474514Y-103709790D01*
X151426895Y-103281219D02*
X151474514Y-103233600D01*
X151569752Y-103185980D01*
X151807847Y-103185980D01*
X151903085Y-103233600D01*
X151950704Y-103281219D01*
X151998323Y-103376457D01*
X151998323Y-103471695D01*
X151950704Y-103614552D01*
X151379276Y-104185980D01*
X151998323Y-104185980D01*
X152379276Y-103281219D02*
X152426895Y-103233600D01*
X152522133Y-103185980D01*
X152760228Y-103185980D01*
X152855466Y-103233600D01*
X152903085Y-103281219D01*
X152950704Y-103376457D01*
X152950704Y-103471695D01*
X152903085Y-103614552D01*
X152331657Y-104185980D01*
X152950704Y-104185980D01*
X136002733Y-112015542D02*
X135955114Y-112063161D01*
X135812257Y-112110780D01*
X135717019Y-112110780D01*
X135574161Y-112063161D01*
X135478923Y-111967923D01*
X135431304Y-111872685D01*
X135383685Y-111682209D01*
X135383685Y-111539352D01*
X135431304Y-111348876D01*
X135478923Y-111253638D01*
X135574161Y-111158400D01*
X135717019Y-111110780D01*
X135812257Y-111110780D01*
X135955114Y-111158400D01*
X136002733Y-111206019D01*
X136907495Y-111110780D02*
X136431304Y-111110780D01*
X136383685Y-111586971D01*
X136431304Y-111539352D01*
X136526542Y-111491733D01*
X136764638Y-111491733D01*
X136859876Y-111539352D01*
X136907495Y-111586971D01*
X136955114Y-111682209D01*
X136955114Y-111920304D01*
X136907495Y-112015542D01*
X136859876Y-112063161D01*
X136764638Y-112110780D01*
X136526542Y-112110780D01*
X136431304Y-112063161D01*
X136383685Y-112015542D01*
X165933380Y-82564266D02*
X165457190Y-82897600D01*
X165933380Y-83135695D02*
X164933380Y-83135695D01*
X164933380Y-82754742D01*
X164981000Y-82659504D01*
X165028619Y-82611885D01*
X165123857Y-82564266D01*
X165266714Y-82564266D01*
X165361952Y-82611885D01*
X165409571Y-82659504D01*
X165457190Y-82754742D01*
X165457190Y-83135695D01*
X165933380Y-81611885D02*
X165933380Y-82183314D01*
X165933380Y-81897600D02*
X164933380Y-81897600D01*
X165076238Y-81992838D01*
X165171476Y-82088076D01*
X165219095Y-82183314D01*
X114572742Y-90523666D02*
X114620361Y-90571285D01*
X114667980Y-90714142D01*
X114667980Y-90809380D01*
X114620361Y-90952238D01*
X114525123Y-91047476D01*
X114429885Y-91095095D01*
X114239409Y-91142714D01*
X114096552Y-91142714D01*
X113906076Y-91095095D01*
X113810838Y-91047476D01*
X113715600Y-90952238D01*
X113667980Y-90809380D01*
X113667980Y-90714142D01*
X113715600Y-90571285D01*
X113763219Y-90523666D01*
X114667980Y-90047476D02*
X114667980Y-89857000D01*
X114620361Y-89761761D01*
X114572742Y-89714142D01*
X114429885Y-89618904D01*
X114239409Y-89571285D01*
X113858457Y-89571285D01*
X113763219Y-89618904D01*
X113715600Y-89666523D01*
X113667980Y-89761761D01*
X113667980Y-89952238D01*
X113715600Y-90047476D01*
X113763219Y-90095095D01*
X113858457Y-90142714D01*
X114096552Y-90142714D01*
X114191790Y-90095095D01*
X114239409Y-90047476D01*
X114287028Y-89952238D01*
X114287028Y-89761761D01*
X114239409Y-89666523D01*
X114191790Y-89618904D01*
X114096552Y-89571285D01*
X158531495Y-103695780D02*
X158531495Y-104505304D01*
X158579114Y-104600542D01*
X158626733Y-104648161D01*
X158721971Y-104695780D01*
X158912447Y-104695780D01*
X159007685Y-104648161D01*
X159055304Y-104600542D01*
X159102923Y-104505304D01*
X159102923Y-103695780D01*
X159531495Y-103791019D02*
X159579114Y-103743400D01*
X159674352Y-103695780D01*
X159912447Y-103695780D01*
X160007685Y-103743400D01*
X160055304Y-103791019D01*
X160102923Y-103886257D01*
X160102923Y-103981495D01*
X160055304Y-104124352D01*
X159483876Y-104695780D01*
X160102923Y-104695780D01*
X148429742Y-115006380D02*
X148096409Y-114530190D01*
X147858314Y-115006380D02*
X147858314Y-114006380D01*
X148239266Y-114006380D01*
X148334504Y-114054000D01*
X148382123Y-114101619D01*
X148429742Y-114196857D01*
X148429742Y-114339714D01*
X148382123Y-114434952D01*
X148334504Y-114482571D01*
X148239266Y-114530190D01*
X147858314Y-114530190D01*
X148810695Y-114101619D02*
X148858314Y-114054000D01*
X148953552Y-114006380D01*
X149191647Y-114006380D01*
X149286885Y-114054000D01*
X149334504Y-114101619D01*
X149382123Y-114196857D01*
X149382123Y-114292095D01*
X149334504Y-114434952D01*
X148763076Y-115006380D01*
X149382123Y-115006380D01*
X150239266Y-114339714D02*
X150239266Y-115006380D01*
X150001171Y-113958761D02*
X149763076Y-114673047D01*
X150382123Y-114673047D01*
X148429742Y-99004380D02*
X148096409Y-98528190D01*
X147858314Y-99004380D02*
X147858314Y-98004380D01*
X148239266Y-98004380D01*
X148334504Y-98052000D01*
X148382123Y-98099619D01*
X148429742Y-98194857D01*
X148429742Y-98337714D01*
X148382123Y-98432952D01*
X148334504Y-98480571D01*
X148239266Y-98528190D01*
X147858314Y-98528190D01*
X149382123Y-99004380D02*
X148810695Y-99004380D01*
X149096409Y-99004380D02*
X149096409Y-98004380D01*
X149001171Y-98147238D01*
X148905933Y-98242476D01*
X148810695Y-98290095D01*
X150334504Y-99004380D02*
X149763076Y-99004380D01*
X150048790Y-99004380D02*
X150048790Y-98004380D01*
X149953552Y-98147238D01*
X149858314Y-98242476D01*
X149763076Y-98290095D01*
X173121580Y-90609657D02*
X172645390Y-90942990D01*
X173121580Y-91181085D02*
X172121580Y-91181085D01*
X172121580Y-90800133D01*
X172169200Y-90704895D01*
X172216819Y-90657276D01*
X172312057Y-90609657D01*
X172454914Y-90609657D01*
X172550152Y-90657276D01*
X172597771Y-90704895D01*
X172645390Y-90800133D01*
X172645390Y-91181085D01*
X172216819Y-90228704D02*
X172169200Y-90181085D01*
X172121580Y-90085847D01*
X172121580Y-89847752D01*
X172169200Y-89752514D01*
X172216819Y-89704895D01*
X172312057Y-89657276D01*
X172407295Y-89657276D01*
X172550152Y-89704895D01*
X173121580Y-90276323D01*
X173121580Y-89657276D01*
X173121580Y-88704895D02*
X173121580Y-89276323D01*
X173121580Y-88990609D02*
X172121580Y-88990609D01*
X172264438Y-89085847D01*
X172359676Y-89181085D01*
X172407295Y-89276323D01*
X169378333Y-107919780D02*
X169045000Y-107443590D01*
X168806904Y-107919780D02*
X168806904Y-106919780D01*
X169187857Y-106919780D01*
X169283095Y-106967400D01*
X169330714Y-107015019D01*
X169378333Y-107110257D01*
X169378333Y-107253114D01*
X169330714Y-107348352D01*
X169283095Y-107395971D01*
X169187857Y-107443590D01*
X168806904Y-107443590D01*
X170235476Y-106919780D02*
X170045000Y-106919780D01*
X169949761Y-106967400D01*
X169902142Y-107015019D01*
X169806904Y-107157876D01*
X169759285Y-107348352D01*
X169759285Y-107729304D01*
X169806904Y-107824542D01*
X169854523Y-107872161D01*
X169949761Y-107919780D01*
X170140238Y-107919780D01*
X170235476Y-107872161D01*
X170283095Y-107824542D01*
X170330714Y-107729304D01*
X170330714Y-107491209D01*
X170283095Y-107395971D01*
X170235476Y-107348352D01*
X170140238Y-107300733D01*
X169949761Y-107300733D01*
X169854523Y-107348352D01*
X169806904Y-107395971D01*
X169759285Y-107491209D01*
X150023533Y-111990142D02*
X149975914Y-112037761D01*
X149833057Y-112085380D01*
X149737819Y-112085380D01*
X149594961Y-112037761D01*
X149499723Y-111942523D01*
X149452104Y-111847285D01*
X149404485Y-111656809D01*
X149404485Y-111513952D01*
X149452104Y-111323476D01*
X149499723Y-111228238D01*
X149594961Y-111133000D01*
X149737819Y-111085380D01*
X149833057Y-111085380D01*
X149975914Y-111133000D01*
X150023533Y-111180619D01*
X150880676Y-111085380D02*
X150690200Y-111085380D01*
X150594961Y-111133000D01*
X150547342Y-111180619D01*
X150452104Y-111323476D01*
X150404485Y-111513952D01*
X150404485Y-111894904D01*
X150452104Y-111990142D01*
X150499723Y-112037761D01*
X150594961Y-112085380D01*
X150785438Y-112085380D01*
X150880676Y-112037761D01*
X150928295Y-111990142D01*
X150975914Y-111894904D01*
X150975914Y-111656809D01*
X150928295Y-111561571D01*
X150880676Y-111513952D01*
X150785438Y-111466333D01*
X150594961Y-111466333D01*
X150499723Y-111513952D01*
X150452104Y-111561571D01*
X150404485Y-111656809D01*
X134284980Y-120562666D02*
X133808790Y-120896000D01*
X134284980Y-121134095D02*
X133284980Y-121134095D01*
X133284980Y-120753142D01*
X133332600Y-120657904D01*
X133380219Y-120610285D01*
X133475457Y-120562666D01*
X133618314Y-120562666D01*
X133713552Y-120610285D01*
X133761171Y-120657904D01*
X133808790Y-120753142D01*
X133808790Y-121134095D01*
X133713552Y-119991238D02*
X133665933Y-120086476D01*
X133618314Y-120134095D01*
X133523076Y-120181714D01*
X133475457Y-120181714D01*
X133380219Y-120134095D01*
X133332600Y-120086476D01*
X133284980Y-119991238D01*
X133284980Y-119800761D01*
X133332600Y-119705523D01*
X133380219Y-119657904D01*
X133475457Y-119610285D01*
X133523076Y-119610285D01*
X133618314Y-119657904D01*
X133665933Y-119705523D01*
X133713552Y-119800761D01*
X133713552Y-119991238D01*
X133761171Y-120086476D01*
X133808790Y-120134095D01*
X133904028Y-120181714D01*
X134094504Y-120181714D01*
X134189742Y-120134095D01*
X134237361Y-120086476D01*
X134284980Y-119991238D01*
X134284980Y-119800761D01*
X134237361Y-119705523D01*
X134189742Y-119657904D01*
X134094504Y-119610285D01*
X133904028Y-119610285D01*
X133808790Y-119657904D01*
X133761171Y-119705523D01*
X133713552Y-119800761D01*
X120981742Y-121883466D02*
X121029361Y-121931085D01*
X121076980Y-122073942D01*
X121076980Y-122169180D01*
X121029361Y-122312038D01*
X120934123Y-122407276D01*
X120838885Y-122454895D01*
X120648409Y-122502514D01*
X120505552Y-122502514D01*
X120315076Y-122454895D01*
X120219838Y-122407276D01*
X120124600Y-122312038D01*
X120076980Y-122169180D01*
X120076980Y-122073942D01*
X120124600Y-121931085D01*
X120172219Y-121883466D01*
X120076980Y-121550133D02*
X120076980Y-120931085D01*
X120457933Y-121264419D01*
X120457933Y-121121561D01*
X120505552Y-121026323D01*
X120553171Y-120978704D01*
X120648409Y-120931085D01*
X120886504Y-120931085D01*
X120981742Y-120978704D01*
X121029361Y-121026323D01*
X121076980Y-121121561D01*
X121076980Y-121407276D01*
X121029361Y-121502514D01*
X120981742Y-121550133D01*
X148353542Y-125115580D02*
X148020209Y-124639390D01*
X147782114Y-125115580D02*
X147782114Y-124115580D01*
X148163066Y-124115580D01*
X148258304Y-124163200D01*
X148305923Y-124210819D01*
X148353542Y-124306057D01*
X148353542Y-124448914D01*
X148305923Y-124544152D01*
X148258304Y-124591771D01*
X148163066Y-124639390D01*
X147782114Y-124639390D01*
X148734495Y-124210819D02*
X148782114Y-124163200D01*
X148877352Y-124115580D01*
X149115447Y-124115580D01*
X149210685Y-124163200D01*
X149258304Y-124210819D01*
X149305923Y-124306057D01*
X149305923Y-124401295D01*
X149258304Y-124544152D01*
X148686876Y-125115580D01*
X149305923Y-125115580D01*
X150210685Y-124115580D02*
X149734495Y-124115580D01*
X149686876Y-124591771D01*
X149734495Y-124544152D01*
X149829733Y-124496533D01*
X150067828Y-124496533D01*
X150163066Y-124544152D01*
X150210685Y-124591771D01*
X150258304Y-124687009D01*
X150258304Y-124925104D01*
X150210685Y-125020342D01*
X150163066Y-125067961D01*
X150067828Y-125115580D01*
X149829733Y-125115580D01*
X149734495Y-125067961D01*
X149686876Y-125020342D01*
X126781495Y-103695780D02*
X126781495Y-104505304D01*
X126829114Y-104600542D01*
X126876733Y-104648161D01*
X126971971Y-104695780D01*
X127162447Y-104695780D01*
X127257685Y-104648161D01*
X127305304Y-104600542D01*
X127352923Y-104505304D01*
X127352923Y-103695780D01*
X128352923Y-104695780D02*
X127781495Y-104695780D01*
X128067209Y-104695780D02*
X128067209Y-103695780D01*
X127971971Y-103838638D01*
X127876733Y-103933876D01*
X127781495Y-103981495D01*
X152725380Y-82513466D02*
X152249190Y-82846800D01*
X152725380Y-83084895D02*
X151725380Y-83084895D01*
X151725380Y-82703942D01*
X151773000Y-82608704D01*
X151820619Y-82561085D01*
X151915857Y-82513466D01*
X152058714Y-82513466D01*
X152153952Y-82561085D01*
X152201571Y-82608704D01*
X152249190Y-82703942D01*
X152249190Y-83084895D01*
X152725380Y-82037276D02*
X152725380Y-81846800D01*
X152677761Y-81751561D01*
X152630142Y-81703942D01*
X152487285Y-81608704D01*
X152296809Y-81561085D01*
X151915857Y-81561085D01*
X151820619Y-81608704D01*
X151773000Y-81656323D01*
X151725380Y-81751561D01*
X151725380Y-81942038D01*
X151773000Y-82037276D01*
X151820619Y-82084895D01*
X151915857Y-82132514D01*
X152153952Y-82132514D01*
X152249190Y-82084895D01*
X152296809Y-82037276D01*
X152344428Y-81942038D01*
X152344428Y-81751561D01*
X152296809Y-81656323D01*
X152249190Y-81608704D01*
X152153952Y-81561085D01*
X133884942Y-97042266D02*
X133932561Y-97089885D01*
X133980180Y-97232742D01*
X133980180Y-97327980D01*
X133932561Y-97470838D01*
X133837323Y-97566076D01*
X133742085Y-97613695D01*
X133551609Y-97661314D01*
X133408752Y-97661314D01*
X133218276Y-97613695D01*
X133123038Y-97566076D01*
X133027800Y-97470838D01*
X132980180Y-97327980D01*
X132980180Y-97232742D01*
X133027800Y-97089885D01*
X133075419Y-97042266D01*
X133408752Y-96470838D02*
X133361133Y-96566076D01*
X133313514Y-96613695D01*
X133218276Y-96661314D01*
X133170657Y-96661314D01*
X133075419Y-96613695D01*
X133027800Y-96566076D01*
X132980180Y-96470838D01*
X132980180Y-96280361D01*
X133027800Y-96185123D01*
X133075419Y-96137504D01*
X133170657Y-96089885D01*
X133218276Y-96089885D01*
X133313514Y-96137504D01*
X133361133Y-96185123D01*
X133408752Y-96280361D01*
X133408752Y-96470838D01*
X133456371Y-96566076D01*
X133503990Y-96613695D01*
X133599228Y-96661314D01*
X133789704Y-96661314D01*
X133884942Y-96613695D01*
X133932561Y-96566076D01*
X133980180Y-96470838D01*
X133980180Y-96280361D01*
X133932561Y-96185123D01*
X133884942Y-96137504D01*
X133789704Y-96089885D01*
X133599228Y-96089885D01*
X133503990Y-96137504D01*
X133456371Y-96185123D01*
X133408752Y-96280361D01*
X121584980Y-105525866D02*
X121108790Y-105859200D01*
X121584980Y-106097295D02*
X120584980Y-106097295D01*
X120584980Y-105716342D01*
X120632600Y-105621104D01*
X120680219Y-105573485D01*
X120775457Y-105525866D01*
X120918314Y-105525866D01*
X121013552Y-105573485D01*
X121061171Y-105621104D01*
X121108790Y-105716342D01*
X121108790Y-106097295D01*
X120584980Y-105192533D02*
X120584980Y-104573485D01*
X120965933Y-104906819D01*
X120965933Y-104763961D01*
X121013552Y-104668723D01*
X121061171Y-104621104D01*
X121156409Y-104573485D01*
X121394504Y-104573485D01*
X121489742Y-104621104D01*
X121537361Y-104668723D01*
X121584980Y-104763961D01*
X121584980Y-105049676D01*
X121537361Y-105144914D01*
X121489742Y-105192533D01*
X177210980Y-82678495D02*
X176210980Y-82678495D01*
X176210980Y-82440400D01*
X176258600Y-82297542D01*
X176353838Y-82202304D01*
X176449076Y-82154685D01*
X176639552Y-82107066D01*
X176782409Y-82107066D01*
X176972885Y-82154685D01*
X177068123Y-82202304D01*
X177163361Y-82297542D01*
X177210980Y-82440400D01*
X177210980Y-82678495D01*
X176306219Y-81726114D02*
X176258600Y-81678495D01*
X176210980Y-81583257D01*
X176210980Y-81345161D01*
X176258600Y-81249923D01*
X176306219Y-81202304D01*
X176401457Y-81154685D01*
X176496695Y-81154685D01*
X176639552Y-81202304D01*
X177210980Y-81773733D01*
X177210980Y-81154685D01*
X143428980Y-94114857D02*
X142952790Y-94448190D01*
X143428980Y-94686285D02*
X142428980Y-94686285D01*
X142428980Y-94305333D01*
X142476600Y-94210095D01*
X142524219Y-94162476D01*
X142619457Y-94114857D01*
X142762314Y-94114857D01*
X142857552Y-94162476D01*
X142905171Y-94210095D01*
X142952790Y-94305333D01*
X142952790Y-94686285D01*
X143428980Y-93162476D02*
X143428980Y-93733904D01*
X143428980Y-93448190D02*
X142428980Y-93448190D01*
X142571838Y-93543428D01*
X142667076Y-93638666D01*
X142714695Y-93733904D01*
X142524219Y-92781523D02*
X142476600Y-92733904D01*
X142428980Y-92638666D01*
X142428980Y-92400571D01*
X142476600Y-92305333D01*
X142524219Y-92257714D01*
X142619457Y-92210095D01*
X142714695Y-92210095D01*
X142857552Y-92257714D01*
X143428980Y-92829142D01*
X143428980Y-92210095D01*
X150074333Y-117908342D02*
X150026714Y-117955961D01*
X149883857Y-118003580D01*
X149788619Y-118003580D01*
X149645761Y-117955961D01*
X149550523Y-117860723D01*
X149502904Y-117765485D01*
X149455285Y-117575009D01*
X149455285Y-117432152D01*
X149502904Y-117241676D01*
X149550523Y-117146438D01*
X149645761Y-117051200D01*
X149788619Y-117003580D01*
X149883857Y-117003580D01*
X150026714Y-117051200D01*
X150074333Y-117098819D01*
X150407666Y-117003580D02*
X151074333Y-117003580D01*
X150645761Y-118003580D01*
X138602980Y-118646257D02*
X138126790Y-118979590D01*
X138602980Y-119217685D02*
X137602980Y-119217685D01*
X137602980Y-118836733D01*
X137650600Y-118741495D01*
X137698219Y-118693876D01*
X137793457Y-118646257D01*
X137936314Y-118646257D01*
X138031552Y-118693876D01*
X138079171Y-118741495D01*
X138126790Y-118836733D01*
X138126790Y-119217685D01*
X138602980Y-117693876D02*
X138602980Y-118265304D01*
X138602980Y-117979590D02*
X137602980Y-117979590D01*
X137745838Y-118074828D01*
X137841076Y-118170066D01*
X137888695Y-118265304D01*
X137602980Y-117074828D02*
X137602980Y-116979590D01*
X137650600Y-116884352D01*
X137698219Y-116836733D01*
X137793457Y-116789114D01*
X137983933Y-116741495D01*
X138222028Y-116741495D01*
X138412504Y-116789114D01*
X138507742Y-116836733D01*
X138555361Y-116884352D01*
X138602980Y-116979590D01*
X138602980Y-117074828D01*
X138555361Y-117170066D01*
X138507742Y-117217685D01*
X138412504Y-117265304D01*
X138222028Y-117312923D01*
X137983933Y-117312923D01*
X137793457Y-117265304D01*
X137698219Y-117217685D01*
X137650600Y-117170066D01*
X137602980Y-117074828D01*
X168184533Y-104522542D02*
X168136914Y-104570161D01*
X167994057Y-104617780D01*
X167898819Y-104617780D01*
X167755961Y-104570161D01*
X167660723Y-104474923D01*
X167613104Y-104379685D01*
X167565485Y-104189209D01*
X167565485Y-104046352D01*
X167613104Y-103855876D01*
X167660723Y-103760638D01*
X167755961Y-103665400D01*
X167898819Y-103617780D01*
X167994057Y-103617780D01*
X168136914Y-103665400D01*
X168184533Y-103713019D01*
X168565485Y-103713019D02*
X168613104Y-103665400D01*
X168708342Y-103617780D01*
X168946438Y-103617780D01*
X169041676Y-103665400D01*
X169089295Y-103713019D01*
X169136914Y-103808257D01*
X169136914Y-103903495D01*
X169089295Y-104046352D01*
X168517866Y-104617780D01*
X169136914Y-104617780D01*
X125232266Y-72894380D02*
X125232266Y-73608666D01*
X125184647Y-73751523D01*
X125089409Y-73846761D01*
X124946552Y-73894380D01*
X124851314Y-73894380D01*
X126232266Y-73894380D02*
X125660838Y-73894380D01*
X125946552Y-73894380D02*
X125946552Y-72894380D01*
X125851314Y-73037238D01*
X125756076Y-73132476D01*
X125660838Y-73180095D01*
X138704580Y-105798857D02*
X138228390Y-106132190D01*
X138704580Y-106370285D02*
X137704580Y-106370285D01*
X137704580Y-105989333D01*
X137752200Y-105894095D01*
X137799819Y-105846476D01*
X137895057Y-105798857D01*
X138037914Y-105798857D01*
X138133152Y-105846476D01*
X138180771Y-105894095D01*
X138228390Y-105989333D01*
X138228390Y-106370285D01*
X138704580Y-104846476D02*
X138704580Y-105417904D01*
X138704580Y-105132190D02*
X137704580Y-105132190D01*
X137847438Y-105227428D01*
X137942676Y-105322666D01*
X137990295Y-105417904D01*
X137704580Y-104513142D02*
X137704580Y-103846476D01*
X138704580Y-104275047D01*
X148251942Y-109342180D02*
X147918609Y-108865990D01*
X147680514Y-109342180D02*
X147680514Y-108342180D01*
X148061466Y-108342180D01*
X148156704Y-108389800D01*
X148204323Y-108437419D01*
X148251942Y-108532657D01*
X148251942Y-108675514D01*
X148204323Y-108770752D01*
X148156704Y-108818371D01*
X148061466Y-108865990D01*
X147680514Y-108865990D01*
X148632895Y-108437419D02*
X148680514Y-108389800D01*
X148775752Y-108342180D01*
X149013847Y-108342180D01*
X149109085Y-108389800D01*
X149156704Y-108437419D01*
X149204323Y-108532657D01*
X149204323Y-108627895D01*
X149156704Y-108770752D01*
X148585276Y-109342180D01*
X149204323Y-109342180D01*
X149823371Y-108342180D02*
X149918609Y-108342180D01*
X150013847Y-108389800D01*
X150061466Y-108437419D01*
X150109085Y-108532657D01*
X150156704Y-108723133D01*
X150156704Y-108961228D01*
X150109085Y-109151704D01*
X150061466Y-109246942D01*
X150013847Y-109294561D01*
X149918609Y-109342180D01*
X149823371Y-109342180D01*
X149728133Y-109294561D01*
X149680514Y-109246942D01*
X149632895Y-109151704D01*
X149585276Y-108961228D01*
X149585276Y-108723133D01*
X149632895Y-108532657D01*
X149680514Y-108437419D01*
X149728133Y-108389800D01*
X149823371Y-108342180D01*
X168473380Y-85155066D02*
X167997190Y-85488400D01*
X168473380Y-85726495D02*
X167473380Y-85726495D01*
X167473380Y-85345542D01*
X167521000Y-85250304D01*
X167568619Y-85202685D01*
X167663857Y-85155066D01*
X167806714Y-85155066D01*
X167901952Y-85202685D01*
X167949571Y-85250304D01*
X167997190Y-85345542D01*
X167997190Y-85726495D01*
X167568619Y-84774114D02*
X167521000Y-84726495D01*
X167473380Y-84631257D01*
X167473380Y-84393161D01*
X167521000Y-84297923D01*
X167568619Y-84250304D01*
X167663857Y-84202685D01*
X167759095Y-84202685D01*
X167901952Y-84250304D01*
X168473380Y-84821733D01*
X168473380Y-84202685D01*
X171165780Y-118225866D02*
X170689590Y-118559200D01*
X171165780Y-118797295D02*
X170165780Y-118797295D01*
X170165780Y-118416342D01*
X170213400Y-118321104D01*
X170261019Y-118273485D01*
X170356257Y-118225866D01*
X170499114Y-118225866D01*
X170594352Y-118273485D01*
X170641971Y-118321104D01*
X170689590Y-118416342D01*
X170689590Y-118797295D01*
X170499114Y-117368723D02*
X171165780Y-117368723D01*
X170118161Y-117606819D02*
X170832447Y-117844914D01*
X170832447Y-117225866D01*
X149169380Y-82068895D02*
X148169380Y-82068895D01*
X148169380Y-81830800D01*
X148217000Y-81687942D01*
X148312238Y-81592704D01*
X148407476Y-81545085D01*
X148597952Y-81497466D01*
X148740809Y-81497466D01*
X148931285Y-81545085D01*
X149026523Y-81592704D01*
X149121761Y-81687942D01*
X149169380Y-81830800D01*
X149169380Y-82068895D01*
X149169380Y-80545085D02*
X149169380Y-81116514D01*
X149169380Y-80830800D02*
X148169380Y-80830800D01*
X148312238Y-80926038D01*
X148407476Y-81021276D01*
X148455095Y-81116514D01*
X149194780Y-88374504D02*
X148194780Y-88374504D01*
X149194780Y-87803076D02*
X148623352Y-88231647D01*
X148194780Y-87803076D02*
X148766209Y-88374504D01*
X167810066Y-96175580D02*
X167810066Y-96889866D01*
X167762447Y-97032723D01*
X167667209Y-97127961D01*
X167524352Y-97175580D01*
X167429114Y-97175580D01*
X168191019Y-96175580D02*
X168810066Y-96175580D01*
X168476733Y-96556533D01*
X168619590Y-96556533D01*
X168714828Y-96604152D01*
X168762447Y-96651771D01*
X168810066Y-96747009D01*
X168810066Y-96985104D01*
X168762447Y-97080342D01*
X168714828Y-97127961D01*
X168619590Y-97175580D01*
X168333876Y-97175580D01*
X168238638Y-97127961D01*
X168191019Y-97080342D01*
D11*
X158293400Y-79843400D02*
G75*
G03*
X160293400Y-79843400I1000000J0D01*
G01*
X161943400Y-79843400D02*
X160293400Y-79843400D01*
X156643400Y-97743400D02*
X161943400Y-97743400D01*
X161943400Y-97743400D02*
X161943400Y-79843400D01*
X156643400Y-79843400D02*
X156643400Y-97743400D01*
X158293400Y-79843400D02*
X156643400Y-79843400D01*
X164593400Y-112793400D02*
X164593400Y-109053400D01*
X171833400Y-112793400D02*
X171833400Y-109053400D01*
X171833400Y-109053400D02*
X164593400Y-109053400D01*
X171833400Y-112793400D02*
X164593400Y-112793400D01*
X167833400Y-116133400D02*
X165993400Y-116133400D01*
X165993400Y-119973400D02*
X167833400Y-119973400D01*
X166913400Y-115183400D02*
X166913400Y-116133400D01*
X167833400Y-119973400D02*
X167833400Y-116133400D01*
X166913400Y-120923400D02*
X166913400Y-119973400D01*
X165993400Y-116133400D02*
X165993400Y-119973400D01*
X150953400Y-94878400D02*
X147113400Y-94878400D01*
X147113400Y-96718400D02*
X150953400Y-96718400D01*
X146163400Y-95798400D02*
X147113400Y-95798400D01*
X150953400Y-96718400D02*
X150953400Y-94878400D01*
X151903400Y-95798400D02*
X150953400Y-95798400D01*
X147113400Y-94878400D02*
X147113400Y-96718400D01*
X129335607Y-95537010D02*
X129335607Y-90097010D01*
X126395607Y-95537010D02*
X129335607Y-95537010D01*
X129335607Y-90097010D02*
X126395607Y-90097010D01*
X126395607Y-94637010D02*
X129335607Y-94637010D01*
X127865607Y-89077010D02*
X127865607Y-90097010D01*
X127865607Y-96557010D02*
X127865607Y-95537010D01*
X126395607Y-94757010D02*
X129335607Y-94757010D01*
X126395607Y-94517010D02*
X129335607Y-94517010D01*
X126395607Y-90097010D02*
X126395607Y-95537010D01*
D12*
X121265600Y-96737000D02*
X121265600Y-96337000D01*
X126065600Y-86537000D02*
X125665600Y-86537000D01*
X121265600Y-86537000D02*
X125665600Y-86537000D01*
X126065600Y-86537000D02*
X126065600Y-86937000D01*
X124955600Y-86537000D02*
X124955600Y-96637000D01*
X126065600Y-96737000D02*
X125665600Y-96737000D01*
X126065600Y-96337000D02*
X126065600Y-96737000D01*
X121265600Y-86537000D02*
X121265600Y-86937000D01*
X121265600Y-96737000D02*
X121665600Y-96737000D01*
D11*
X146143400Y-89598400D02*
X147093400Y-89598400D01*
X147093400Y-90518400D02*
X150933400Y-90518400D01*
X150933400Y-88678400D02*
X147093400Y-88678400D01*
X147093400Y-88678400D02*
X147093400Y-90518400D01*
X151883400Y-89598400D02*
X150933400Y-89598400D01*
X150933400Y-90518400D02*
X150933400Y-88678400D01*
X136853400Y-122423400D02*
X136853400Y-118583400D01*
X135933400Y-117633400D02*
X135933400Y-118583400D01*
X135013400Y-122423400D02*
X136853400Y-122423400D01*
X136853400Y-118583400D02*
X135013400Y-118583400D01*
X135933400Y-123373400D02*
X135933400Y-122423400D01*
X135013400Y-118583400D02*
X135013400Y-122423400D01*
X135013400Y-107083400D02*
X136853400Y-107083400D01*
X135933400Y-108033400D02*
X135933400Y-107083400D01*
X136853400Y-103243400D02*
X135013400Y-103243400D01*
X136853400Y-107083400D02*
X136853400Y-103243400D01*
X135933400Y-102293400D02*
X135933400Y-103243400D01*
X135013400Y-103243400D02*
X135013400Y-107083400D01*
X144883400Y-83367400D02*
X145814400Y-83367400D01*
X141332400Y-84448400D02*
X142803400Y-84448400D01*
X144883400Y-84087400D02*
X146241400Y-84087400D01*
X141263400Y-85008400D02*
X146423400Y-85008400D01*
X144883400Y-84648400D02*
X146393400Y-84648400D01*
X141533400Y-83887400D02*
X142803400Y-83887400D01*
X144883400Y-83007400D02*
X145448400Y-83007400D01*
X144883400Y-84488400D02*
X146363400Y-84488400D01*
X142118400Y-87603175D02*
X142618400Y-87603175D01*
X141445400Y-84087400D02*
X142803400Y-84087400D01*
X144883400Y-84728400D02*
X146404400Y-84728400D01*
X144883400Y-83687400D02*
X146043400Y-83687400D01*
X144883400Y-84207400D02*
X146285400Y-84207400D01*
X144883400Y-84448400D02*
X146354400Y-84448400D01*
X141721400Y-83567400D02*
X142803400Y-83567400D01*
X144883400Y-84408400D02*
X146344400Y-84408400D01*
X144883400Y-83647400D02*
X146018400Y-83647400D01*
X144883400Y-83447400D02*
X145878400Y-83447400D01*
X142100400Y-83127400D02*
X142803400Y-83127400D01*
X144883400Y-84808400D02*
X146412400Y-84808400D01*
X144883400Y-83327400D02*
X145780400Y-83327400D01*
X141778400Y-83487400D02*
X142803400Y-83487400D01*
X141282400Y-84728400D02*
X142803400Y-84728400D01*
X141307400Y-84568400D02*
X142803400Y-84568400D01*
X144883400Y-83087400D02*
X145542400Y-83087400D01*
X141575400Y-83807400D02*
X142803400Y-83807400D01*
X144883400Y-83247400D02*
X145707400Y-83247400D01*
X141315400Y-84528400D02*
X142803400Y-84528400D01*
X141596400Y-83767400D02*
X142803400Y-83767400D01*
X144883400Y-84247400D02*
X146298400Y-84247400D01*
X144883400Y-82767400D02*
X145094400Y-82767400D01*
X141287400Y-84688400D02*
X142803400Y-84688400D01*
X144883400Y-83567400D02*
X145965400Y-83567400D01*
X144883400Y-82967400D02*
X145397400Y-82967400D01*
X144883400Y-84127400D02*
X146257400Y-84127400D01*
X142928400Y-82607400D02*
X144758400Y-82607400D01*
X144883400Y-84528400D02*
X146371400Y-84528400D01*
X141839400Y-83407400D02*
X142803400Y-83407400D01*
X141342400Y-84408400D02*
X142803400Y-84408400D01*
X141293400Y-84648400D02*
X142803400Y-84648400D01*
X141619400Y-83727400D02*
X142803400Y-83727400D01*
X142289400Y-82967400D02*
X142803400Y-82967400D01*
X142665400Y-82727400D02*
X145021400Y-82727400D01*
X143038400Y-82567400D02*
X144648400Y-82567400D01*
X141415400Y-84167400D02*
X142803400Y-84167400D01*
X144883400Y-83527400D02*
X145938400Y-83527400D01*
X141495400Y-83967400D02*
X142803400Y-83967400D01*
X142190400Y-83047400D02*
X142803400Y-83047400D01*
X144883400Y-84047400D02*
X146225400Y-84047400D01*
X141461400Y-84047400D02*
X142803400Y-84047400D01*
X144883400Y-83727400D02*
X146067400Y-83727400D01*
X144883400Y-84688400D02*
X146399400Y-84688400D01*
X143325400Y-82487400D02*
X144361400Y-82487400D01*
X144883400Y-84287400D02*
X146311400Y-84287400D01*
X144883400Y-83607400D02*
X145992400Y-83607400D01*
X141694400Y-83607400D02*
X142803400Y-83607400D01*
X144883400Y-83287400D02*
X145744400Y-83287400D01*
X141270400Y-84848400D02*
X146416400Y-84848400D01*
X142592400Y-82767400D02*
X142803400Y-82767400D01*
X144883400Y-83487400D02*
X145908400Y-83487400D01*
X141808400Y-83447400D02*
X142803400Y-83447400D01*
X143166400Y-82527400D02*
X144520400Y-82527400D01*
X144883400Y-84768400D02*
X146408400Y-84768400D01*
X144883400Y-83167400D02*
X145628400Y-83167400D01*
X141906400Y-83327400D02*
X142803400Y-83327400D01*
X141401400Y-84207400D02*
X142803400Y-84207400D01*
X144883400Y-83407400D02*
X145847400Y-83407400D01*
X141300400Y-84608400D02*
X142803400Y-84608400D01*
X142238400Y-83007400D02*
X142803400Y-83007400D01*
X142144400Y-83087400D02*
X142803400Y-83087400D01*
X141267400Y-84888400D02*
X146419400Y-84888400D01*
X141668400Y-83647400D02*
X142803400Y-83647400D01*
X144883400Y-82887400D02*
X145286400Y-82887400D01*
X141264400Y-84968400D02*
X146422400Y-84968400D01*
X141388400Y-84247400D02*
X142803400Y-84247400D01*
X141323400Y-84488400D02*
X142803400Y-84488400D01*
X142460400Y-82847400D02*
X142803400Y-82847400D01*
X141872400Y-83367400D02*
X142803400Y-83367400D01*
X142524400Y-82807400D02*
X142803400Y-82807400D01*
X141265400Y-84928400D02*
X146421400Y-84928400D01*
X141748400Y-83527400D02*
X142803400Y-83527400D01*
X141942400Y-83287400D02*
X142803400Y-83287400D01*
X142368400Y-87853175D02*
X142368400Y-87353175D01*
X142745400Y-82687400D02*
X144941400Y-82687400D01*
X141375400Y-84287400D02*
X142803400Y-84287400D01*
X144883400Y-84167400D02*
X146271400Y-84167400D01*
X141363400Y-84327400D02*
X142803400Y-84327400D01*
X144883400Y-83807400D02*
X146111400Y-83807400D01*
X141478400Y-84007400D02*
X142803400Y-84007400D01*
X142017400Y-83207400D02*
X142803400Y-83207400D01*
X144883400Y-83967400D02*
X146191400Y-83967400D01*
X141514400Y-83927400D02*
X142803400Y-83927400D01*
X142400400Y-82887400D02*
X142803400Y-82887400D01*
X144883400Y-83847400D02*
X146133400Y-83847400D01*
X144883400Y-83927400D02*
X146172400Y-83927400D01*
X142343400Y-82927400D02*
X142803400Y-82927400D01*
X141263400Y-85048400D02*
X146423400Y-85048400D01*
X142832400Y-82647400D02*
X144854400Y-82647400D01*
X144883400Y-84327400D02*
X146323400Y-84327400D01*
X144883400Y-83127400D02*
X145586400Y-83127400D01*
X144883400Y-82807400D02*
X145162400Y-82807400D01*
X144883400Y-83767400D02*
X146090400Y-83767400D01*
X144883400Y-83887400D02*
X146153400Y-83887400D01*
X143559400Y-82447400D02*
X144127400Y-82447400D01*
X141429400Y-84127400D02*
X142803400Y-84127400D01*
X141553400Y-83847400D02*
X142803400Y-83847400D01*
X144883400Y-84608400D02*
X146386400Y-84608400D01*
X141352400Y-84368400D02*
X142803400Y-84368400D01*
X141979400Y-83247400D02*
X142803400Y-83247400D01*
X141274400Y-84808400D02*
X142803400Y-84808400D01*
X144883400Y-84368400D02*
X146334400Y-84368400D01*
X141278400Y-84768400D02*
X142803400Y-84768400D01*
X141643400Y-83687400D02*
X142803400Y-83687400D01*
X144883400Y-83047400D02*
X145496400Y-83047400D01*
X144883400Y-83207400D02*
X145669400Y-83207400D01*
X144883400Y-82927400D02*
X145343400Y-82927400D01*
X144883400Y-84007400D02*
X146208400Y-84007400D01*
X144883400Y-84568400D02*
X146379400Y-84568400D01*
X144883400Y-82847400D02*
X145226400Y-82847400D01*
X142058400Y-83167400D02*
X142803400Y-83167400D01*
X146463400Y-85048400D02*
G75*
G03*
X146463400Y-85048400I-2620000J0D01*
G01*
X133633400Y-108033400D02*
X133633400Y-107083400D01*
X132713400Y-103243400D02*
X132713400Y-107083400D01*
X133633400Y-102293400D02*
X133633400Y-103243400D01*
X134553400Y-103243400D02*
X132713400Y-103243400D01*
X132713400Y-107083400D02*
X134553400Y-107083400D01*
X134553400Y-107083400D02*
X134553400Y-103243400D01*
X147000200Y-121722400D02*
X150840200Y-121722400D01*
X151790200Y-120802400D02*
X150840200Y-120802400D01*
X147000200Y-119882400D02*
X147000200Y-121722400D01*
X150840200Y-119882400D02*
X147000200Y-119882400D01*
X150840200Y-121722400D02*
X150840200Y-119882400D01*
X146050200Y-120802400D02*
X147000200Y-120802400D01*
X142683400Y-113293400D02*
X142683400Y-112343400D01*
X143603400Y-112343400D02*
X143603400Y-108503400D01*
X142683400Y-107553400D02*
X142683400Y-108503400D01*
X143603400Y-108503400D02*
X141763400Y-108503400D01*
X141763400Y-108503400D02*
X141763400Y-112343400D01*
X141763400Y-112343400D02*
X143603400Y-112343400D01*
X151883400Y-93448400D02*
X150933400Y-93448400D01*
X150933400Y-92528400D02*
X147093400Y-92528400D01*
X147093400Y-94368400D02*
X150933400Y-94368400D01*
X150933400Y-94368400D02*
X150933400Y-92528400D01*
X146143400Y-93448400D02*
X147093400Y-93448400D01*
X147093400Y-92528400D02*
X147093400Y-94368400D01*
X153608800Y-102813600D02*
X149768800Y-102813600D01*
X148818800Y-103733600D02*
X149768800Y-103733600D01*
X149768800Y-104653600D02*
X153608800Y-104653600D01*
X154558800Y-103733600D02*
X153608800Y-103733600D01*
X149768800Y-102813600D02*
X149768800Y-104653600D01*
X153608800Y-104653600D02*
X153608800Y-102813600D01*
X133513400Y-113043400D02*
X133513400Y-112728400D01*
X138753400Y-113043400D02*
X138753400Y-112728400D01*
X138753400Y-110618400D02*
X138753400Y-110303400D01*
X138753400Y-113043400D02*
X133513400Y-113043400D01*
X133513400Y-110618400D02*
X133513400Y-110303400D01*
X138753400Y-110303400D02*
X133513400Y-110303400D01*
X166403400Y-80478400D02*
X164563400Y-80478400D01*
X165483400Y-85268400D02*
X165483400Y-84318400D01*
X165483400Y-79528400D02*
X165483400Y-80478400D01*
X164563400Y-80478400D02*
X164563400Y-84318400D01*
X166403400Y-84318400D02*
X166403400Y-80478400D01*
X164563400Y-84318400D02*
X166403400Y-84318400D01*
X120585600Y-90357000D02*
G75*
G03*
X120585600Y-90357000I-2620000J0D01*
G01*
X119005600Y-89156000D02*
X120255600Y-89156000D01*
X119005600Y-89036000D02*
X120189600Y-89036000D01*
X117160600Y-87876000D02*
X118770600Y-87876000D01*
X115655600Y-89196000D02*
X116925600Y-89196000D01*
X115697600Y-89116000D02*
X116925600Y-89116000D01*
X115385600Y-90317000D02*
X120545600Y-90317000D01*
X115523600Y-89516000D02*
X116925600Y-89516000D01*
X115485600Y-89636000D02*
X116925600Y-89636000D01*
X115617600Y-89276000D02*
X116925600Y-89276000D01*
X119005600Y-88596000D02*
X119866600Y-88596000D01*
X116222600Y-88436000D02*
X116925600Y-88436000D01*
X119005600Y-88196000D02*
X119408600Y-88196000D01*
X119005600Y-88316000D02*
X119570600Y-88316000D01*
X115445600Y-89797000D02*
X116925600Y-89797000D01*
X117050600Y-87916000D02*
X118880600Y-87916000D01*
X119005600Y-90117000D02*
X120534600Y-90117000D01*
X119005600Y-89757000D02*
X120476600Y-89757000D01*
X119005600Y-88156000D02*
X119348600Y-88156000D01*
X119005600Y-88796000D02*
X120030600Y-88796000D01*
X119005600Y-88476000D02*
X119750600Y-88476000D01*
X119005600Y-88876000D02*
X120087600Y-88876000D01*
X115583600Y-89356000D02*
X116925600Y-89356000D01*
X115510600Y-89556000D02*
X116925600Y-89556000D01*
X119005600Y-90037000D02*
X120526600Y-90037000D01*
X115765600Y-88996000D02*
X116925600Y-88996000D01*
X115396600Y-90117000D02*
X116925600Y-90117000D01*
X115930600Y-88756000D02*
X116925600Y-88756000D01*
X119005600Y-89436000D02*
X120379600Y-89436000D01*
X115961600Y-88716000D02*
X116925600Y-88716000D01*
X115400600Y-90077000D02*
X116925600Y-90077000D01*
X116360600Y-88316000D02*
X116925600Y-88316000D01*
X116101600Y-88556000D02*
X116925600Y-88556000D01*
X115415600Y-89957000D02*
X116925600Y-89957000D01*
X119005600Y-88436000D02*
X119708600Y-88436000D01*
X119005600Y-89276000D02*
X120313600Y-89276000D01*
X115437600Y-89837000D02*
X116925600Y-89837000D01*
X116139600Y-88516000D02*
X116925600Y-88516000D01*
X119005600Y-89196000D02*
X120275600Y-89196000D01*
X119005600Y-89837000D02*
X120493600Y-89837000D01*
X115994600Y-88676000D02*
X116925600Y-88676000D01*
X115900600Y-88796000D02*
X116925600Y-88796000D01*
X119005600Y-89356000D02*
X120347600Y-89356000D01*
X115385600Y-90357000D02*
X120545600Y-90357000D01*
X117447600Y-87796000D02*
X118483600Y-87796000D01*
X116646600Y-88116000D02*
X116925600Y-88116000D01*
X119005600Y-88556000D02*
X119829600Y-88556000D01*
X119005600Y-88116000D02*
X119284600Y-88116000D01*
X119005600Y-89636000D02*
X120445600Y-89636000D01*
X115389600Y-90197000D02*
X120541600Y-90197000D01*
X119005600Y-88636000D02*
X119902600Y-88636000D01*
X115404600Y-90037000D02*
X116925600Y-90037000D01*
X119005600Y-89717000D02*
X120466600Y-89717000D01*
X119005600Y-88916000D02*
X120114600Y-88916000D01*
X116490600Y-93161775D02*
X116490600Y-92661775D01*
X115497600Y-89596000D02*
X116925600Y-89596000D01*
X115675600Y-89156000D02*
X116925600Y-89156000D01*
X115790600Y-88956000D02*
X116925600Y-88956000D01*
X119005600Y-88396000D02*
X119664600Y-88396000D01*
X116582600Y-88156000D02*
X116925600Y-88156000D01*
X115422600Y-89917000D02*
X116925600Y-89917000D01*
X115718600Y-89076000D02*
X116925600Y-89076000D01*
X119005600Y-89116000D02*
X120233600Y-89116000D01*
X119005600Y-88516000D02*
X119791600Y-88516000D01*
X116522600Y-88196000D02*
X116925600Y-88196000D01*
X116266600Y-88396000D02*
X116925600Y-88396000D01*
X119005600Y-90077000D02*
X120530600Y-90077000D01*
X115741600Y-89036000D02*
X116925600Y-89036000D01*
X115387600Y-90237000D02*
X120543600Y-90237000D01*
X119005600Y-89997000D02*
X120521600Y-89997000D01*
X119005600Y-89677000D02*
X120456600Y-89677000D01*
X115551600Y-89436000D02*
X116925600Y-89436000D01*
X115386600Y-90277000D02*
X120544600Y-90277000D01*
X115843600Y-88876000D02*
X116925600Y-88876000D01*
X116714600Y-88076000D02*
X116925600Y-88076000D01*
X115474600Y-89677000D02*
X116925600Y-89677000D01*
X115464600Y-89717000D02*
X116925600Y-89717000D01*
X119005600Y-88756000D02*
X120000600Y-88756000D01*
X115454600Y-89757000D02*
X116925600Y-89757000D01*
X115392600Y-90157000D02*
X120538600Y-90157000D01*
X119005600Y-89476000D02*
X120393600Y-89476000D01*
X119005600Y-89076000D02*
X120212600Y-89076000D01*
X119005600Y-89957000D02*
X120515600Y-89957000D01*
X119005600Y-88676000D02*
X119936600Y-88676000D01*
X116465600Y-88236000D02*
X116925600Y-88236000D01*
X116240600Y-92911775D02*
X116740600Y-92911775D01*
X119005600Y-88996000D02*
X120165600Y-88996000D01*
X119005600Y-89877000D02*
X120501600Y-89877000D01*
X119005600Y-88716000D02*
X119969600Y-88716000D01*
X119005600Y-89516000D02*
X120407600Y-89516000D01*
X115567600Y-89396000D02*
X116925600Y-89396000D01*
X117681600Y-87756000D02*
X118249600Y-87756000D01*
X116064600Y-88596000D02*
X116925600Y-88596000D01*
X116312600Y-88356000D02*
X116925600Y-88356000D01*
X119005600Y-89917000D02*
X120508600Y-89917000D01*
X116411600Y-88276000D02*
X116925600Y-88276000D01*
X119005600Y-88956000D02*
X120140600Y-88956000D01*
X119005600Y-89596000D02*
X120433600Y-89596000D01*
X117288600Y-87836000D02*
X118642600Y-87836000D01*
X119005600Y-88276000D02*
X119519600Y-88276000D01*
X115409600Y-89997000D02*
X116925600Y-89997000D01*
X115870600Y-88836000D02*
X116925600Y-88836000D01*
X119005600Y-89556000D02*
X120420600Y-89556000D01*
X116867600Y-87996000D02*
X119063600Y-87996000D01*
X119005600Y-88356000D02*
X119618600Y-88356000D01*
X115429600Y-89877000D02*
X116925600Y-89877000D01*
X119005600Y-89316000D02*
X120330600Y-89316000D01*
X115816600Y-88916000D02*
X116925600Y-88916000D01*
X116180600Y-88476000D02*
X116925600Y-88476000D01*
X119005600Y-89236000D02*
X120294600Y-89236000D01*
X119005600Y-88236000D02*
X119465600Y-88236000D01*
X116954600Y-87956000D02*
X118976600Y-87956000D01*
X116787600Y-88036000D02*
X119143600Y-88036000D01*
X116028600Y-88636000D02*
X116925600Y-88636000D01*
X115600600Y-89316000D02*
X116925600Y-89316000D01*
X119005600Y-88836000D02*
X120060600Y-88836000D01*
X119005600Y-89797000D02*
X120485600Y-89797000D01*
X119005600Y-88076000D02*
X119216600Y-88076000D01*
X119005600Y-89396000D02*
X120363600Y-89396000D01*
X115636600Y-89236000D02*
X116925600Y-89236000D01*
X115537600Y-89476000D02*
X116925600Y-89476000D01*
X156643400Y-105243400D02*
X156643400Y-123143400D01*
X156643400Y-123143400D02*
X161943400Y-123143400D01*
X161943400Y-123143400D02*
X161943400Y-105243400D01*
X161943400Y-105243400D02*
X160293400Y-105243400D01*
X158293400Y-105243400D02*
X156643400Y-105243400D01*
X158293400Y-105243400D02*
G75*
G03*
X160293400Y-105243400I1000000J0D01*
G01*
X147000200Y-115423200D02*
X150840200Y-115423200D01*
X150840200Y-115423200D02*
X150840200Y-113583200D01*
X150840200Y-113583200D02*
X147000200Y-113583200D01*
X147000200Y-113583200D02*
X147000200Y-115423200D01*
X146050200Y-114503200D02*
X147000200Y-114503200D01*
X151790200Y-114503200D02*
X150840200Y-114503200D01*
X150953400Y-99418400D02*
X150953400Y-97578400D01*
X151903400Y-98498400D02*
X150953400Y-98498400D01*
X147113400Y-99418400D02*
X150953400Y-99418400D01*
X146163400Y-98498400D02*
X147113400Y-98498400D01*
X150953400Y-97578400D02*
X147113400Y-97578400D01*
X147113400Y-97578400D02*
X147113400Y-99418400D01*
X171749200Y-88148400D02*
X171749200Y-91988400D01*
X173589200Y-91988400D02*
X173589200Y-88148400D01*
X172669200Y-92938400D02*
X172669200Y-91988400D01*
X173589200Y-88148400D02*
X171749200Y-88148400D01*
X171749200Y-91988400D02*
X173589200Y-91988400D01*
X172669200Y-87198400D02*
X172669200Y-88148400D01*
X167523400Y-106543400D02*
X167523400Y-108383400D01*
X171363400Y-106543400D02*
X167523400Y-106543400D01*
X167523400Y-108383400D02*
X171363400Y-108383400D01*
X166573400Y-107463400D02*
X167523400Y-107463400D01*
X171363400Y-108383400D02*
X171363400Y-106543400D01*
X172313400Y-107463400D02*
X171363400Y-107463400D01*
X147463400Y-110253400D02*
X152703400Y-110253400D01*
X152703400Y-110253400D02*
X152703400Y-110568400D01*
X147463400Y-110253400D02*
X147463400Y-110568400D01*
X152703400Y-112678400D02*
X152703400Y-112993400D01*
X147463400Y-112993400D02*
X152703400Y-112993400D01*
X147463400Y-112678400D02*
X147463400Y-112993400D01*
X119463393Y-110343391D02*
X119463393Y-112943391D01*
X116803393Y-110343391D02*
X119463393Y-110343391D01*
X116803393Y-109073391D02*
X116803393Y-107743391D01*
X116803393Y-107743391D02*
X118133393Y-107743391D01*
X116803393Y-112943391D02*
X119463393Y-112943391D01*
X116803393Y-110343391D02*
X116803393Y-112943391D01*
X134753400Y-122443400D02*
X134753400Y-118603400D01*
X132913400Y-118603400D02*
X132913400Y-122443400D01*
X134753400Y-118603400D02*
X132913400Y-118603400D01*
X132913400Y-122443400D02*
X134753400Y-122443400D01*
X133833400Y-117653400D02*
X133833400Y-118603400D01*
X133833400Y-123393400D02*
X133833400Y-122443400D01*
X122003400Y-119153400D02*
X121688400Y-119153400D01*
X122003400Y-119153400D02*
X122003400Y-124393400D01*
X119263400Y-119153400D02*
X119263400Y-124393400D01*
X122003400Y-124393400D02*
X121688400Y-124393400D01*
X119578400Y-119153400D02*
X119263400Y-119153400D01*
X119578400Y-124393400D02*
X119263400Y-124393400D01*
X150840200Y-125583200D02*
X150840200Y-123743200D01*
X151790200Y-124663200D02*
X150840200Y-124663200D01*
X150840200Y-123743200D02*
X147000200Y-123743200D01*
X147000200Y-123743200D02*
X147000200Y-125583200D01*
X147000200Y-125583200D02*
X150840200Y-125583200D01*
X146050200Y-124663200D02*
X147000200Y-124663200D01*
X130193400Y-105243400D02*
X128543400Y-105243400D01*
X124893400Y-123143400D02*
X130193400Y-123143400D01*
X126543400Y-105243400D02*
X124893400Y-105243400D01*
X130193400Y-123143400D02*
X130193400Y-105243400D01*
X124893400Y-105243400D02*
X124893400Y-123143400D01*
X126543400Y-105243400D02*
G75*
G03*
X128543400Y-105243400I1000000J0D01*
G01*
X151323400Y-80518400D02*
X151323400Y-84358400D01*
X153163400Y-80518400D02*
X151323400Y-80518400D01*
X151323400Y-84358400D02*
X153163400Y-84358400D01*
X152243400Y-79568400D02*
X152243400Y-80518400D01*
X152243400Y-85308400D02*
X152243400Y-84358400D01*
X153163400Y-84358400D02*
X153163400Y-80518400D01*
X131830600Y-94527000D02*
X132535600Y-94527000D01*
X129795600Y-98767000D02*
X130500600Y-98767000D01*
X131830600Y-98767000D02*
X132535600Y-98767000D01*
X129795600Y-98767000D02*
X129795600Y-94527000D01*
X129795600Y-94527000D02*
X130500600Y-94527000D01*
X132535600Y-98767000D02*
X132535600Y-94527000D01*
X120213400Y-107183400D02*
X122053400Y-107183400D01*
X121133400Y-102393400D02*
X121133400Y-103343400D01*
X122053400Y-103343400D02*
X120213400Y-103343400D01*
X120213400Y-103343400D02*
X120213400Y-107183400D01*
X121133400Y-108133400D02*
X121133400Y-107183400D01*
X122053400Y-107183400D02*
X122053400Y-103343400D01*
X175194600Y-81864200D02*
G75*
G03*
X175194600Y-81864200I-2500000J0D01*
G01*
X172695062Y-78874200D02*
G75*
G03*
X171149770Y-84424200I-462J-2990000D01*
G01*
X174239430Y-84424200D02*
G75*
G03*
X172694138Y-78874200I-1544830J2560000D01*
G01*
X171149600Y-84424200D02*
X174239600Y-84424200D01*
X143863400Y-91488400D02*
X142023400Y-91488400D01*
X143863400Y-95328400D02*
X143863400Y-91488400D01*
X142943400Y-96278400D02*
X142943400Y-95328400D01*
X142023400Y-91488400D02*
X142023400Y-95328400D01*
X142943400Y-90538400D02*
X142943400Y-91488400D01*
X142023400Y-95328400D02*
X143863400Y-95328400D01*
X152850200Y-118606200D02*
X152850200Y-118921200D01*
X152850200Y-116181200D02*
X152850200Y-116496200D01*
X147610200Y-118606200D02*
X147610200Y-118921200D01*
X147610200Y-116181200D02*
X152850200Y-116181200D01*
X147610200Y-116181200D02*
X147610200Y-116496200D01*
X147610200Y-118921200D02*
X152850200Y-118921200D01*
X137213400Y-119923400D02*
X139053400Y-119923400D01*
X137213400Y-116083400D02*
X137213400Y-119923400D01*
X139053400Y-116083400D02*
X137213400Y-116083400D01*
X138133400Y-120873400D02*
X138133400Y-119923400D01*
X139053400Y-119923400D02*
X139053400Y-116083400D01*
X138133400Y-115133400D02*
X138133400Y-116083400D01*
X171833400Y-106033400D02*
X164593400Y-106033400D01*
X171833400Y-102293400D02*
X164593400Y-102293400D01*
X171833400Y-106033400D02*
X171833400Y-102293400D01*
X164593400Y-106033400D02*
X164593400Y-102293400D01*
X121570600Y-78052000D02*
X121570600Y-74532000D01*
X126745600Y-74532000D02*
X126745600Y-75132000D01*
X128345600Y-75132000D02*
X128345600Y-74532000D01*
X124385600Y-75132000D02*
X124385600Y-74532000D01*
X122785600Y-74532000D02*
X122785600Y-75132000D01*
X121570600Y-74532000D02*
X129560600Y-74532000D01*
X129560600Y-78052000D02*
X121570600Y-78052000D01*
X129560600Y-74532000D02*
X129560600Y-78052000D01*
X122785600Y-75132000D02*
X124385600Y-75132000D01*
X126745600Y-75132000D02*
X128345600Y-75132000D01*
X121280600Y-81352000D02*
X121280600Y-85352000D01*
X137313400Y-107083400D02*
X139153400Y-107083400D01*
X138233400Y-108033400D02*
X138233400Y-107083400D01*
X139153400Y-107083400D02*
X139153400Y-103243400D01*
X138233400Y-102293400D02*
X138233400Y-103243400D01*
X137313400Y-103243400D02*
X137313400Y-107083400D01*
X139153400Y-103243400D02*
X137313400Y-103243400D01*
X146863400Y-108003400D02*
X146863400Y-109843400D01*
X145913400Y-108923400D02*
X146863400Y-108923400D01*
X150703400Y-109843400D02*
X150703400Y-108003400D01*
X151653400Y-108923400D02*
X150703400Y-108923400D01*
X150703400Y-108003400D02*
X146863400Y-108003400D01*
X146863400Y-109843400D02*
X150703400Y-109843400D01*
X168963400Y-83068400D02*
X167123400Y-83068400D01*
X167123400Y-86908400D02*
X168963400Y-86908400D01*
X168963400Y-86908400D02*
X168963400Y-83068400D01*
X167123400Y-83068400D02*
X167123400Y-86908400D01*
X168043400Y-87858400D02*
X168043400Y-86908400D01*
X168043400Y-82118400D02*
X168043400Y-83068400D01*
X171633400Y-119973400D02*
X171633400Y-116133400D01*
X170713400Y-115183400D02*
X170713400Y-116133400D01*
X171633400Y-116133400D02*
X169793400Y-116133400D01*
X169793400Y-119973400D02*
X171633400Y-119973400D01*
X169793400Y-116133400D02*
X169793400Y-119973400D01*
X170713400Y-120923400D02*
X170713400Y-119973400D01*
X147273400Y-83128400D02*
X150213400Y-83128400D01*
X147273400Y-78468400D02*
X147273400Y-83908400D01*
X150213400Y-83908400D02*
X150213400Y-78468400D01*
X147273400Y-82888400D02*
X150213400Y-82888400D01*
X147273400Y-83908400D02*
X150213400Y-83908400D01*
X150213400Y-78468400D02*
X147273400Y-78468400D01*
X147273400Y-83008400D02*
X150213400Y-83008400D01*
X148743400Y-84928400D02*
X148743400Y-83908400D01*
X148743400Y-77448400D02*
X148743400Y-78468400D01*
X166813400Y-95168400D02*
X166813400Y-95228400D01*
X166813400Y-95168400D02*
X169473400Y-95168400D01*
X166813400Y-93898400D02*
X166813400Y-92568400D01*
X169473400Y-95168400D02*
X169473400Y-95228400D01*
X166813400Y-92568400D02*
X168143400Y-92568400D01*
X166813400Y-95228400D02*
X169473400Y-95228400D01*
%LPC*%
D13*
X163103400Y-81173400D03*
X163103400Y-83713400D03*
X163103400Y-86253400D03*
X163103400Y-88793400D03*
X163103400Y-91333400D03*
X163103400Y-93873400D03*
X163103400Y-96413400D03*
X155483400Y-96413400D03*
X155483400Y-93873400D03*
X155483400Y-91333400D03*
X155483400Y-88793400D03*
X155483400Y-86253400D03*
X155483400Y-83713400D03*
D14*
X155483400Y-81173400D03*
D15*
X170713400Y-110923400D03*
X165713400Y-110923400D03*
D16*
X114833400Y-125628400D03*
D17*
X166913400Y-114243400D03*
D18*
X166913400Y-121863400D03*
D17*
X152843400Y-95798400D03*
D18*
X145223400Y-95798400D03*
D19*
X127865607Y-97897010D03*
D20*
X127865607Y-87737010D03*
D21*
X123665600Y-94177000D03*
X123665600Y-91637000D03*
D22*
X123665600Y-89097000D03*
D18*
X145203400Y-89598400D03*
D17*
X152823400Y-89598400D03*
D18*
X135933400Y-124313400D03*
D17*
X135933400Y-116693400D03*
D18*
X135933400Y-101353400D03*
D17*
X135933400Y-108973400D03*
D14*
X143843400Y-86298400D03*
D15*
X143843400Y-83798400D03*
D18*
X133633400Y-108973400D03*
D17*
X133633400Y-101353400D03*
D18*
X145110200Y-120802400D03*
D17*
X152730200Y-120802400D03*
X142683400Y-106613400D03*
D18*
X142683400Y-114233400D03*
D16*
X114833400Y-74828400D03*
D18*
X152823400Y-93448400D03*
D17*
X145203400Y-93448400D03*
X155498800Y-103733600D03*
D18*
X147878800Y-103733600D03*
D15*
X138633400Y-111673400D03*
X133633400Y-111673400D03*
D17*
X165483400Y-86208400D03*
D18*
X165483400Y-78588400D03*
D16*
X175793400Y-74828400D03*
D15*
X117965600Y-89107000D03*
D14*
X117965600Y-91607000D03*
D16*
X175793400Y-125628400D03*
D14*
X155483400Y-106573400D03*
D13*
X155483400Y-109113400D03*
X155483400Y-111653400D03*
X155483400Y-114193400D03*
X155483400Y-116733400D03*
X155483400Y-119273400D03*
X155483400Y-121813400D03*
X163103400Y-121813400D03*
X163103400Y-119273400D03*
X163103400Y-116733400D03*
X163103400Y-114193400D03*
X163103400Y-111653400D03*
X163103400Y-109113400D03*
X163103400Y-106573400D03*
D18*
X152730200Y-114503200D03*
D17*
X145110200Y-114503200D03*
X145223400Y-98498400D03*
D18*
X152843400Y-98498400D03*
D17*
X172669200Y-93878400D03*
D18*
X172669200Y-86258400D03*
X165633400Y-107463400D03*
D17*
X173253400Y-107463400D03*
D15*
X147583400Y-111623400D03*
X152583400Y-111623400D03*
D23*
X118133393Y-109073391D03*
D24*
X118133393Y-111613391D03*
D18*
X133833400Y-116713400D03*
D17*
X133833400Y-124333400D03*
D15*
X120633400Y-124273400D03*
X120633400Y-119273400D03*
D17*
X152730200Y-124663200D03*
D18*
X145110200Y-124663200D03*
D14*
X123733400Y-106573400D03*
D13*
X123733400Y-109113400D03*
X123733400Y-111653400D03*
X123733400Y-114193400D03*
X123733400Y-116733400D03*
X123733400Y-119273400D03*
X123733400Y-121813400D03*
X131353400Y-121813400D03*
X131353400Y-119273400D03*
X131353400Y-116733400D03*
X131353400Y-114193400D03*
X131353400Y-111653400D03*
X131353400Y-109113400D03*
X131353400Y-106573400D03*
D17*
X152243400Y-78628400D03*
D18*
X152243400Y-86248400D03*
D15*
X131165600Y-95397000D03*
X131165600Y-97897000D03*
D18*
X121133400Y-109073400D03*
D17*
X121133400Y-101453400D03*
D25*
X172694600Y-80594200D03*
D26*
X172694600Y-83134200D03*
D18*
X142943400Y-89598400D03*
D17*
X142943400Y-97218400D03*
D15*
X147730200Y-117551200D03*
X152730200Y-117551200D03*
D18*
X138133400Y-114193400D03*
D17*
X138133400Y-121813400D03*
D15*
X170713400Y-104163400D03*
X165713400Y-104163400D03*
D27*
X123585600Y-83352000D03*
D28*
X127545600Y-83352000D03*
D17*
X138233400Y-101353400D03*
D18*
X138233400Y-108973400D03*
X152593400Y-108923400D03*
D17*
X144973400Y-108923400D03*
D18*
X168043400Y-81178400D03*
D17*
X168043400Y-88798400D03*
D18*
X170713400Y-114243400D03*
D17*
X170713400Y-121863400D03*
D20*
X148743400Y-76108400D03*
D19*
X148743400Y-86268400D03*
D23*
X168143400Y-93898400D03*
M02*
